solid OpenSCAD_Model
  facet normal -0 0 1
    outer loop
      vertex 1 9 17
      vertex 2.08183 7.01243 17
      vertex 2.08183 9 17
    endloop
  endfacet
  facet normal 0 0 1
    outer loop
      vertex 2.08183 7.01243 17
      vertex 1 9 17
      vertex 0.0818329 5.01243 17
    endloop
  endfacet
  facet normal 0 0 1
    outer loop
      vertex 2.08183 7.01243 17
      vertex 0.723158 3.14432 17
      vertex 1.93631 1.58566 17
    endloop
  endfacet
  facet normal 0 0 1
    outer loop
      vertex 1 45 17
      vertex 0.0818329 48.9876 17
      vertex 1 9 17
    endloop
  endfacet
  facet normal 0 0 1
    outer loop
      vertex 0.0818329 5.01243 17
      vertex 1 9 17
      vertex 0.0818329 48.9876 17
    endloop
  endfacet
  facet normal 0 0 1
    outer loop
      vertex 2.08183 7.01243 17
      vertex 0.0818329 5.01243 17
      vertex 0.723158 3.14432 17
    endloop
  endfacet
  facet normal 0 0 1
    outer loop
      vertex 60 48 17
      vertex 57.6749 47.9482 17
      vertex 58 46 17
    endloop
  endfacet
  facet normal 0 0 1
    outer loop
      vertex 56.7348 49.6853 17
      vertex 58.7348 51.6853 17
      vertex 57.2817 53.023 17
    endloop
  endfacet
  facet normal 0 0 1
    outer loop
      vertex 59.6749 49.9482 17
      vertex 56.7348 49.6853 17
      vertex 57.6749 47.9482 17
    endloop
  endfacet
  facet normal 0 0 1
    outer loop
      vertex 55.2817 51.023 17
      vertex 57.2817 53.023 17
      vertex 55.4729 53.8164 17
    endloop
  endfacet
  facet normal 0 0 1
    outer loop
      vertex 57.2817 53.023 17
      vertex 55.2817 51.023 17
      vertex 56.7348 49.6853 17
    endloop
  endfacet
  facet normal 0 0 1
    outer loop
      vertex 53.4729 51.8164 17
      vertex 55.4729 53.8164 17
      vertex 53.5045 53.9795 17
    endloop
  endfacet
  facet normal 0 0 1
    outer loop
      vertex 55.4729 53.8164 17
      vertex 53.4729 51.8164 17
      vertex 55.2817 51.023 17
    endloop
  endfacet
  facet normal 0 0 1
    outer loop
      vertex 53.5045 53.9795 17
      vertex 51.5045 51.9795 17
      vertex 53.4729 51.8164 17
    endloop
  endfacet
  facet normal 0 0 1
    outer loop
      vertex 53.5045 53.9795 17
      vertex 7.50452 51.9795 17
      vertex 51.5045 51.9795 17
    endloop
  endfacet
  facet normal -0 0 1
    outer loop
      vertex 5.50452 53.9795 17
      vertex 7.50452 51.9795 17
      vertex 53.5045 53.9795 17
    endloop
  endfacet
  facet normal 0 0 1
    outer loop
      vertex 5.50452 53.9795 17
      vertex 5.58983 51.4946 17
      vertex 7.50452 51.9795 17
    endloop
  endfacet
  facet normal -0 0 1
    outer loop
      vertex 3.58983 53.4946 17
      vertex 5.58983 51.4946 17
      vertex 5.50452 53.9795 17
    endloop
  endfacet
  facet normal 0 0 1
    outer loop
      vertex 5.58983 51.4946 17
      vertex 3.58983 53.4946 17
      vertex 3.93631 50.4143 17
    endloop
  endfacet
  facet normal -0 0 1
    outer loop
      vertex 1.93631 52.4143 17
      vertex 3.93631 50.4143 17
      vertex 3.58983 53.4946 17
    endloop
  endfacet
  facet normal -0 0 1
    outer loop
      vertex 0.723158 50.8557 17
      vertex 3.93631 50.4143 17
      vertex 1.93631 52.4143 17
    endloop
  endfacet
  facet normal 0 0 1
    outer loop
      vertex 3.93631 50.4143 17
      vertex 0.723158 50.8557 17
      vertex 2.72316 48.8557 17
    endloop
  endfacet
  facet normal -0 0 1
    outer loop
      vertex 0.0818329 48.9876 17
      vertex 2.72316 48.8557 17
      vertex 0.723158 50.8557 17
    endloop
  endfacet
  facet normal 0 0 1
    outer loop
      vertex 2.72316 48.8557 17
      vertex 0.0818329 48.9876 17
      vertex 2.08183 46.9876 17
    endloop
  endfacet
  facet normal 0 0 1
    outer loop
      vertex 2.08183 46.9876 17
      vertex 0.0818329 48.9876 17
      vertex 1 45 17
    endloop
  endfacet
  facet normal 0 0 1
    outer loop
      vertex 2.08183 46.9876 17
      vertex 1 45 17
      vertex 2.08183 45 17
    endloop
  endfacet
  facet normal 0 0 1
    outer loop
      vertex 57.6749 47.9482 17
      vertex 60 48 17
      vertex 59.6749 49.9482 17
    endloop
  endfacet
  facet normal 0 0 1
    outer loop
      vertex 60 48 17
      vertex 59 45 17
      vertex 60 6 17
    endloop
  endfacet
  facet normal -0 0 1
    outer loop
      vertex 59 9 17
      vertex 60 6 17
      vertex 59 45 17
    endloop
  endfacet
  facet normal 0 0 1
    outer loop
      vertex 56.7348 49.6853 17
      vertex 59.6749 49.9482 17
      vertex 58.7348 51.6853 17
    endloop
  endfacet
  facet normal 0 0 1
    outer loop
      vertex 60 48 17
      vertex 58 46 17
      vertex 59 45 17
    endloop
  endfacet
  facet normal 0 0 1
    outer loop
      vertex 59 45 17
      vertex 58 46 17
      vertex 58 45 17
    endloop
  endfacet
  facet normal -0 0 1
    outer loop
      vertex 58 8 17
      vertex 60 6 17
      vertex 59 9 17
    endloop
  endfacet
  facet normal -0 0 1
    outer loop
      vertex 57.6749 6.0518 17
      vertex 60 6 17
      vertex 58 8 17
    endloop
  endfacet
  facet normal 0 0 1
    outer loop
      vertex 58 8 17
      vertex 59 9 17
      vertex 58 9 17
    endloop
  endfacet
  facet normal 0 0 1
    outer loop
      vertex 60 6 17
      vertex 57.6749 6.0518 17
      vertex 59.6749 4.0518 17
    endloop
  endfacet
  facet normal -0 0 1
    outer loop
      vertex 56.7348 4.31472 17
      vertex 59.6749 4.0518 17
      vertex 57.6749 6.0518 17
    endloop
  endfacet
  facet normal 0 0 1
    outer loop
      vertex 59.6749 4.0518 17
      vertex 56.7348 4.31472 17
      vertex 58.7348 2.31472 17
    endloop
  endfacet
  facet normal 0 0 1
    outer loop
      vertex 58.7348 2.31472 17
      vertex 56.7348 4.31472 17
      vertex 57.2817 0.977001 17
    endloop
  endfacet
  facet normal -0 0 1
    outer loop
      vertex 55.2817 2.977 17
      vertex 57.2817 0.977001 17
      vertex 56.7348 4.31472 17
    endloop
  endfacet
  facet normal 0 0 1
    outer loop
      vertex 57.2817 0.977001 17
      vertex 55.2817 2.977 17
      vertex 55.4729 0.183599 17
    endloop
  endfacet
  facet normal -0 0 1
    outer loop
      vertex 53.4729 2.1836 17
      vertex 55.4729 0.183599 17
      vertex 55.2817 2.977 17
    endloop
  endfacet
  facet normal 0 0 1
    outer loop
      vertex 55.4729 0.183599 17
      vertex 53.4729 2.1836 17
      vertex 53.5045 0.0204935 17
    endloop
  endfacet
  facet normal -0 0 1
    outer loop
      vertex 51.5045 2.02049 17
      vertex 53.5045 0.0204935 17
      vertex 53.4729 2.1836 17
    endloop
  endfacet
  facet normal -0 0 1
    outer loop
      vertex 7.50452 2.02049 17
      vertex 53.5045 0.0204935 17
      vertex 51.5045 2.02049 17
    endloop
  endfacet
  facet normal 0 0 1
    outer loop
      vertex 7.50452 2.02049 17
      vertex 5.50452 0.0204935 17
      vertex 53.5045 0.0204935 17
    endloop
  endfacet
  facet normal 0 0 1
    outer loop
      vertex 5.58983 2.50536 17
      vertex 5.50452 0.0204935 17
      vertex 7.50452 2.02049 17
    endloop
  endfacet
  facet normal 0 0 1
    outer loop
      vertex 3.58983 0.505361 17
      vertex 5.58983 2.50536 17
      vertex 3.93631 3.58566 17
    endloop
  endfacet
  facet normal 0 0 1
    outer loop
      vertex 5.58983 2.50536 17
      vertex 3.58983 0.505361 17
      vertex 5.50452 0.0204935 17
    endloop
  endfacet
  facet normal 0 0 1
    outer loop
      vertex 1.93631 1.58566 17
      vertex 3.93631 3.58566 17
      vertex 2.72316 5.14432 17
    endloop
  endfacet
  facet normal 0 0 1
    outer loop
      vertex 1.93631 1.58566 17
      vertex 2.72316 5.14432 17
      vertex 2.08183 7.01243 17
    endloop
  endfacet
  facet normal 0 0 1
    outer loop
      vertex 3.93631 3.58566 17
      vertex 1.93631 1.58566 17
      vertex 3.58983 0.505361 17
    endloop
  endfacet
  facet normal -1 0 0
    outer loop
      vertex 0.0818329 5.01243 0
      vertex 0.0818329 48.9876 17
      vertex 0.0818329 48.9876 0
    endloop
  endfacet
  facet normal -1 -0 0
    outer loop
      vertex 0.0818329 48.9876 17
      vertex 0.0818329 5.01243 0
      vertex 0.0818329 5.01243 17
    endloop
  endfacet
  facet normal 0 1 -0
    outer loop
      vertex 53.5045 53.9795 0
      vertex 5.50452 53.9795 17
      vertex 53.5045 53.9795 17
    endloop
  endfacet
  facet normal 0 1 0
    outer loop
      vertex 5.50452 53.9795 17
      vertex 53.5045 53.9795 0
      vertex 5.50452 53.9795 0
    endloop
  endfacet
  facet normal 1 -0 0
    outer loop
      vertex 60 6 17
      vertex 60 48 0
      vertex 60 48 17
    endloop
  endfacet
  facet normal 1 0 0
    outer loop
      vertex 60 48 0
      vertex 60 6 17
      vertex 60 6 0
    endloop
  endfacet
  facet normal -0.245486 -0.9694 0
    outer loop
      vertex 3.58983 0.505361 0
      vertex 5.50452 0.0204935 17
      vertex 3.58983 0.505361 17
    endloop
  endfacet
  facet normal -0.245486 -0.9694 -0
    outer loop
      vertex 5.50452 0.0204935 17
      vertex 3.58983 0.505361 0
      vertex 5.50452 0.0204935 0
    endloop
  endfacet
  facet normal -0.546948 -0.837166 0
    outer loop
      vertex 1.93631 1.58566 0
      vertex 3.58983 0.505361 17
      vertex 1.93631 1.58566 17
    endloop
  endfacet
  facet normal -0.546948 -0.837166 -0
    outer loop
      vertex 3.58983 0.505361 17
      vertex 1.93631 1.58566 0
      vertex 3.58983 0.505361 0
    endloop
  endfacet
  facet normal 0.986361 -0.164594 0
    outer loop
      vertex 59.6749 4.0518 17
      vertex 60 6 0
      vertex 60 6 17
    endloop
  endfacet
  facet normal 0.986361 -0.164594 0
    outer loop
      vertex 60 6 0
      vertex 59.6749 4.0518 17
      vertex 59.6749 4.0518 0
    endloop
  endfacet
  facet normal 0.0825792 -0.996585 0
    outer loop
      vertex 53.5045 0.0204935 0
      vertex 55.4729 0.183599 17
      vertex 53.5045 0.0204935 17
    endloop
  endfacet
  facet normal 0.0825792 -0.996585 0
    outer loop
      vertex 55.4729 0.183599 17
      vertex 53.5045 0.0204935 0
      vertex 55.4729 0.183599 0
    endloop
  endfacet
  facet normal -0.245486 0.9694 0
    outer loop
      vertex 5.50452 53.9795 0
      vertex 3.58983 53.4946 17
      vertex 5.50452 53.9795 17
    endloop
  endfacet
  facet normal -0.245486 0.9694 0
    outer loop
      vertex 3.58983 53.4946 17
      vertex 5.50452 53.9795 0
      vertex 3.58983 53.4946 0
    endloop
  endfacet
  facet normal -0.546948 0.837167 0
    outer loop
      vertex 3.58983 53.4946 0
      vertex 1.93631 52.4143 17
      vertex 3.58983 53.4946 17
    endloop
  endfacet
  facet normal -0.546948 0.837167 0
    outer loop
      vertex 1.93631 52.4143 17
      vertex 3.58983 53.4946 0
      vertex 1.93631 52.4143 0
    endloop
  endfacet
  facet normal -0.945817 0.3247 0
    outer loop
      vertex 0.0818329 48.9876 0
      vertex 0.723158 50.8557 17
      vertex 0.723158 50.8557 0
    endloop
  endfacet
  facet normal -0.945817 0.3247 0
    outer loop
      vertex 0.723158 50.8557 17
      vertex 0.0818329 48.9876 0
      vertex 0.0818329 48.9876 17
    endloop
  endfacet
  facet normal -0.789141 0.614212 0
    outer loop
      vertex 0.723158 50.8557 0
      vertex 1.93631 52.4143 17
      vertex 1.93631 52.4143 0
    endloop
  endfacet
  facet normal -0.789141 0.614212 0
    outer loop
      vertex 1.93631 52.4143 17
      vertex 0.723158 50.8557 0
      vertex 0.723158 50.8557 17
    endloop
  endfacet
  facet normal 0.0825792 0.996585 -0
    outer loop
      vertex 55.4729 53.8164 0
      vertex 53.5045 53.9795 17
      vertex 55.4729 53.8164 17
    endloop
  endfacet
  facet normal 0.0825792 0.996585 0
    outer loop
      vertex 53.5045 53.9795 17
      vertex 55.4729 53.8164 0
      vertex 53.5045 53.9795 0
    endloop
  endfacet
  facet normal 0 -1 0
    outer loop
      vertex 5.50452 0.0204935 0
      vertex 53.5045 0.0204935 17
      vertex 5.50452 0.0204935 17
    endloop
  endfacet
  facet normal 0 -1 -0
    outer loop
      vertex 53.5045 0.0204935 17
      vertex 5.50452 0.0204935 0
      vertex 53.5045 0.0204935 0
    endloop
  endfacet
  facet normal 0 0 -1
    outer loop
      vertex 53.5045 0.0204935 0
      vertex 60 6 0
      vertex 59.6749 4.0518 0
    endloop
  endfacet
  facet normal 0 0 -1
    outer loop
      vertex 60 6 0
      vertex 50 12 0
      vertex 60 48 0
    endloop
  endfacet
  facet normal 0 0 -1
    outer loop
      vertex 53.5045 0.0204935 0
      vertex 59.6749 4.0518 0
      vertex 58.7348 2.31472 0
    endloop
  endfacet
  facet normal 0 0 -1
    outer loop
      vertex 50 42 0
      vertex 60 48 0
      vertex 50 12 0
    endloop
  endfacet
  facet normal 0 0 -1
    outer loop
      vertex 53.5045 0.0204935 0
      vertex 58.7348 2.31472 0
      vertex 57.2817 0.977001 0
    endloop
  endfacet
  facet normal 0 -0 -1
    outer loop
      vertex 53.5045 53.9795 0
      vertex 60 48 0
      vertex 50 42 0
    endloop
  endfacet
  facet normal 0 0 -1
    outer loop
      vertex 53.5045 0.0204935 0
      vertex 57.2817 0.977001 0
      vertex 55.4729 0.183599 0
    endloop
  endfacet
  facet normal 0 0 -1
    outer loop
      vertex 60 48 0
      vertex 53.5045 53.9795 0
      vertex 59.6749 49.9482 0
    endloop
  endfacet
  facet normal -0 0 -1
    outer loop
      vertex 60 6 0
      vertex 53.5045 0.0204935 0
      vertex 50 12 0
    endloop
  endfacet
  facet normal 0 0 -1
    outer loop
      vertex 59.6749 49.9482 0
      vertex 53.5045 53.9795 0
      vertex 58.7348 51.6853 0
    endloop
  endfacet
  facet normal 0 0 -1
    outer loop
      vertex 58.7348 51.6853 0
      vertex 53.5045 53.9795 0
      vertex 57.2817 53.023 0
    endloop
  endfacet
  facet normal 0 0 -1
    outer loop
      vertex 53.5045 0.0204935 0
      vertex 12 12 0
      vertex 50 12 0
    endloop
  endfacet
  facet normal 0 0 -1
    outer loop
      vertex 0.0818329 5.01243 0
      vertex 12 12 0
      vertex 5.50452 0.0204935 0
    endloop
  endfacet
  facet normal 0 0 -1
    outer loop
      vertex 5.50452 0.0204935 0
      vertex 12 12 0
      vertex 53.5045 0.0204935 0
    endloop
  endfacet
  facet normal 0 0 -1
    outer loop
      vertex 57.2817 53.023 0
      vertex 53.5045 53.9795 0
      vertex 55.4729 53.8164 0
    endloop
  endfacet
  facet normal 0 0 -1
    outer loop
      vertex 12 42 0
      vertex 53.5045 53.9795 0
      vertex 50 42 0
    endloop
  endfacet
  facet normal 0 0 -1
    outer loop
      vertex 12 42 0
      vertex 5.50452 53.9795 0
      vertex 53.5045 53.9795 0
    endloop
  endfacet
  facet normal -0 0 -1
    outer loop
      vertex 12 12 0
      vertex 0.0818329 5.01243 0
      vertex 12 42 0
    endloop
  endfacet
  facet normal 0 0 -1
    outer loop
      vertex 0.0818329 5.01243 0
      vertex 5.50452 0.0204935 0
      vertex 3.58983 0.505361 0
    endloop
  endfacet
  facet normal 0 0 -1
    outer loop
      vertex 0.0818329 48.9876 0
      vertex 12 42 0
      vertex 0.0818329 5.01243 0
    endloop
  endfacet
  facet normal 0 0 -1
    outer loop
      vertex 0.0818329 5.01243 0
      vertex 3.58983 0.505361 0
      vertex 1.93631 1.58566 0
    endloop
  endfacet
  facet normal 0 0 -1
    outer loop
      vertex 12 42 0
      vertex 0.0818329 48.9876 0
      vertex 5.50452 53.9795 0
    endloop
  endfacet
  facet normal 0 0 -1
    outer loop
      vertex 0.0818329 5.01243 0
      vertex 1.93631 1.58566 0
      vertex 0.723158 3.14432 0
    endloop
  endfacet
  facet normal 0 0 -1
    outer loop
      vertex 5.50452 53.9795 0
      vertex 0.0818329 48.9876 0
      vertex 3.58983 53.4946 0
    endloop
  endfacet
  facet normal 0 0 -1
    outer loop
      vertex 3.58983 53.4946 0
      vertex 0.0818329 48.9876 0
      vertex 1.93631 52.4143 0
    endloop
  endfacet
  facet normal 0 0 -1
    outer loop
      vertex 1.93631 52.4143 0
      vertex 0.0818329 48.9876 0
      vertex 0.723158 50.8557 0
    endloop
  endfacet
  facet normal 0.401695 -0.915773 0
    outer loop
      vertex 55.4729 0.183599 0
      vertex 57.2817 0.977001 17
      vertex 55.4729 0.183599 17
    endloop
  endfacet
  facet normal 0.401695 -0.915773 0
    outer loop
      vertex 57.2817 0.977001 17
      vertex 55.4729 0.183599 0
      vertex 57.2817 0.977001 0
    endloop
  endfacet
  facet normal 0.677282 0.735723 -0
    outer loop
      vertex 58.7348 51.6853 0
      vertex 57.2817 53.023 17
      vertex 58.7348 51.6853 17
    endloop
  endfacet
  facet normal 0.677282 0.735723 0
    outer loop
      vertex 57.2817 53.023 17
      vertex 58.7348 51.6853 0
      vertex 57.2817 53.023 0
    endloop
  endfacet
  facet normal 0.986361 0.164594 0
    outer loop
      vertex 60 48 17
      vertex 59.6749 49.9482 0
      vertex 59.6749 49.9482 17
    endloop
  endfacet
  facet normal 0.986361 0.164594 0
    outer loop
      vertex 59.6749 49.9482 0
      vertex 60 48 17
      vertex 60 48 0
    endloop
  endfacet
  facet normal 0.401696 0.915773 -0
    outer loop
      vertex 57.2817 53.023 0
      vertex 55.4729 53.8164 17
      vertex 57.2817 53.023 17
    endloop
  endfacet
  facet normal 0.401696 0.915773 0
    outer loop
      vertex 55.4729 53.8164 17
      vertex 57.2817 53.023 0
      vertex 55.4729 53.8164 0
    endloop
  endfacet
  facet normal -0.78914 -0.614213 0
    outer loop
      vertex 1.93631 1.58566 0
      vertex 0.723158 3.14432 17
      vertex 0.723158 3.14432 0
    endloop
  endfacet
  facet normal -0.78914 -0.614213 0
    outer loop
      vertex 0.723158 3.14432 17
      vertex 1.93631 1.58566 0
      vertex 1.93631 1.58566 17
    endloop
  endfacet
  facet normal -0.945817 -0.324699 0
    outer loop
      vertex 0.723158 3.14432 0
      vertex 0.0818329 5.01243 17
      vertex 0.0818329 5.01243 0
    endloop
  endfacet
  facet normal -0.945817 -0.324699 0
    outer loop
      vertex 0.0818329 5.01243 17
      vertex 0.723158 3.14432 0
      vertex 0.723158 3.14432 17
    endloop
  endfacet
  facet normal 0.879473 -0.475949 0
    outer loop
      vertex 58.7348 2.31472 17
      vertex 59.6749 4.0518 0
      vertex 59.6749 4.0518 17
    endloop
  endfacet
  facet normal 0.879473 -0.475949 0
    outer loop
      vertex 59.6749 4.0518 0
      vertex 58.7348 2.31472 17
      vertex 58.7348 2.31472 0
    endloop
  endfacet
  facet normal 0.677282 -0.735723 0
    outer loop
      vertex 57.2817 0.977001 0
      vertex 58.7348 2.31472 17
      vertex 57.2817 0.977001 17
    endloop
  endfacet
  facet normal 0.677282 -0.735723 0
    outer loop
      vertex 58.7348 2.31472 17
      vertex 57.2817 0.977001 0
      vertex 58.7348 2.31472 0
    endloop
  endfacet
  facet normal 0.879473 0.475949 0
    outer loop
      vertex 59.6749 49.9482 17
      vertex 58.7348 51.6853 0
      vertex 58.7348 51.6853 17
    endloop
  endfacet
  facet normal 0.879473 0.475949 0
    outer loop
      vertex 58.7348 51.6853 0
      vertex 59.6749 49.9482 17
      vertex 59.6749 49.9482 0
    endloop
  endfacet
  facet normal 1 -0 0
    outer loop
      vertex 2.08183 7.01243 17
      vertex 2.08183 9 1
      vertex 2.08183 9 17
    endloop
  endfacet
  facet normal 1 0 0
    outer loop
      vertex 2.08183 9 1
      vertex 2.08183 7.01243 17
      vertex 2.08183 7.01243 1
    endloop
  endfacet
  facet normal 1 -0 0
    outer loop
      vertex 2.08183 45 17
      vertex 2.08183 46.9876 1
      vertex 2.08183 46.9876 17
    endloop
  endfacet
  facet normal 1 0 0
    outer loop
      vertex 2.08183 46.9876 1
      vertex 2.08183 45 17
      vertex 2.08183 45 1
    endloop
  endfacet
  facet normal 0 -1 0
    outer loop
      vertex 7.50452 51.9795 1
      vertex 51.5045 51.9795 17
      vertex 7.50452 51.9795 17
    endloop
  endfacet
  facet normal 0 -1 -0
    outer loop
      vertex 51.5045 51.9795 17
      vertex 7.50452 51.9795 1
      vertex 51.5045 51.9795 1
    endloop
  endfacet
  facet normal -1 0 0
    outer loop
      vertex 58 8 1
      vertex 58 9 17
      vertex 58 9 1
    endloop
  endfacet
  facet normal -1 -0 0
    outer loop
      vertex 58 9 17
      vertex 58 8 1
      vertex 58 8 17
    endloop
  endfacet
  facet normal -1 0 0
    outer loop
      vertex 58 45 1
      vertex 58 46 17
      vertex 58 46 1
    endloop
  endfacet
  facet normal -1 -0 0
    outer loop
      vertex 58 46 17
      vertex 58 45 1
      vertex 58 45 17
    endloop
  endfacet
  facet normal 0.245486 0.9694 -0
    outer loop
      vertex 7.50452 2.02049 1
      vertex 5.58983 2.50536 17
      vertex 7.50452 2.02049 17
    endloop
  endfacet
  facet normal 0.245486 0.9694 0
    outer loop
      vertex 5.58983 2.50536 17
      vertex 7.50452 2.02049 1
      vertex 5.58983 2.50536 1
    endloop
  endfacet
  facet normal 0.546948 0.837166 -0
    outer loop
      vertex 5.58983 2.50536 1
      vertex 3.93631 3.58566 17
      vertex 5.58983 2.50536 17
    endloop
  endfacet
  facet normal 0.546948 0.837166 0
    outer loop
      vertex 3.93631 3.58566 17
      vertex 5.58983 2.50536 1
      vertex 3.93631 3.58566 1
    endloop
  endfacet
  facet normal -0.986361 0.164594 0
    outer loop
      vertex 57.6749 6.0518 1
      vertex 58 8 17
      vertex 58 8 1
    endloop
  endfacet
  facet normal -0.986361 0.164594 0
    outer loop
      vertex 58 8 17
      vertex 57.6749 6.0518 1
      vertex 57.6749 6.0518 17
    endloop
  endfacet
  facet normal -0.677282 0.735723 0
    outer loop
      vertex 56.7348 4.31472 1
      vertex 55.2817 2.977 17
      vertex 56.7348 4.31472 17
    endloop
  endfacet
  facet normal -0.677282 0.735723 0
    outer loop
      vertex 55.2817 2.977 17
      vertex 56.7348 4.31472 1
      vertex 55.2817 2.977 1
    endloop
  endfacet
  facet normal -0.0825792 0.996585 0
    outer loop
      vertex 53.4729 2.1836 1
      vertex 51.5045 2.02049 17
      vertex 53.4729 2.1836 17
    endloop
  endfacet
  facet normal -0.0825792 0.996585 0
    outer loop
      vertex 51.5045 2.02049 17
      vertex 53.4729 2.1836 1
      vertex 51.5045 2.02049 1
    endloop
  endfacet
  facet normal 0.245486 -0.9694 0
    outer loop
      vertex 5.58983 51.4946 1
      vertex 7.50452 51.9795 17
      vertex 5.58983 51.4946 17
    endloop
  endfacet
  facet normal 0.245486 -0.9694 0
    outer loop
      vertex 7.50452 51.9795 17
      vertex 5.58983 51.4946 1
      vertex 7.50452 51.9795 1
    endloop
  endfacet
  facet normal 0.546948 -0.837167 0
    outer loop
      vertex 3.93631 50.4143 1
      vertex 5.58983 51.4946 17
      vertex 3.93631 50.4143 17
    endloop
  endfacet
  facet normal 0.546948 -0.837167 0
    outer loop
      vertex 5.58983 51.4946 17
      vertex 3.93631 50.4143 1
      vertex 5.58983 51.4946 1
    endloop
  endfacet
  facet normal 0.945817 -0.3247 0
    outer loop
      vertex 2.08183 46.9876 17
      vertex 2.72316 48.8557 1
      vertex 2.72316 48.8557 17
    endloop
  endfacet
  facet normal 0.945817 -0.3247 0
    outer loop
      vertex 2.72316 48.8557 1
      vertex 2.08183 46.9876 17
      vertex 2.08183 46.9876 1
    endloop
  endfacet
  facet normal 0.789141 -0.614212 0
    outer loop
      vertex 2.72316 48.8557 17
      vertex 3.93631 50.4143 1
      vertex 3.93631 50.4143 17
    endloop
  endfacet
  facet normal 0.789141 -0.614212 0
    outer loop
      vertex 3.93631 50.4143 1
      vertex 2.72316 48.8557 17
      vertex 2.72316 48.8557 1
    endloop
  endfacet
  facet normal -0.0825792 -0.996585 0
    outer loop
      vertex 51.5045 51.9795 1
      vertex 53.4729 51.8164 17
      vertex 51.5045 51.9795 17
    endloop
  endfacet
  facet normal -0.0825792 -0.996585 -0
    outer loop
      vertex 53.4729 51.8164 17
      vertex 51.5045 51.9795 1
      vertex 53.4729 51.8164 1
    endloop
  endfacet
  facet normal 0 1 -0
    outer loop
      vertex 51.5045 2.02049 1
      vertex 7.50452 2.02049 17
      vertex 51.5045 2.02049 17
    endloop
  endfacet
  facet normal 0 1 0
    outer loop
      vertex 7.50452 2.02049 17
      vertex 51.5045 2.02049 1
      vertex 7.50452 2.02049 1
    endloop
  endfacet
  facet normal 0 0 1
    outer loop
      vertex 1 9 1
      vertex 2.78647 12.8817 1
      vertex 1 45 1
    endloop
  endfacet
  facet normal 0 0 1
    outer loop
      vertex 2.78647 12.8817 1
      vertex 1 9 1
      vertex 2.08183 9 1
    endloop
  endfacet
  facet normal -0 0 1
    outer loop
      vertex 4.46352 13.4266 1
      vertex 12 12 1
      vertex 4.46352 40.5734 1
    endloop
  endfacet
  facet normal 0 0 1
    outer loop
      vertex 12 12 1
      vertex 4.46352 13.4266 1
      vertex 5.5 12 1
    endloop
  endfacet
  facet normal 0 0 1
    outer loop
      vertex 2.78647 41.1183 1
      vertex 4.46352 13.4266 1
      vertex 4.46352 40.5734 1
    endloop
  endfacet
  facet normal 0 0 1
    outer loop
      vertex 4.46352 13.4266 1
      vertex 2.78647 41.1183 1
      vertex 2.78647 12.8817 1
    endloop
  endfacet
  facet normal 0 0 1
    outer loop
      vertex 12 12 1
      vertex 4.46352 10.5734 1
      vertex 7.50452 2.02049 1
    endloop
  endfacet
  facet normal 0 0 1
    outer loop
      vertex 7.50452 2.02049 1
      vertex 4.46352 10.5734 1
      vertex 5.58983 2.50536 1
    endloop
  endfacet
  facet normal 0 0 1
    outer loop
      vertex 4.46352 10.5734 1
      vertex 3.93631 3.58566 1
      vertex 5.58983 2.50536 1
    endloop
  endfacet
  facet normal 0 0 1
    outer loop
      vertex 2.08183 9 1
      vertex 4.46352 10.5734 1
      vertex 2.78647 11.1183 1
    endloop
  endfacet
  facet normal 0 0 1
    outer loop
      vertex 2.08183 7.01243 1
      vertex 4.46352 10.5734 1
      vertex 2.08183 9 1
    endloop
  endfacet
  facet normal 0 0 1
    outer loop
      vertex 2.78647 41.1183 1
      vertex 1 45 1
      vertex 2.78647 12.8817 1
    endloop
  endfacet
  facet normal 0 0 1
    outer loop
      vertex 2.08183 45 1
      vertex 2.72316 48.8557 1
      vertex 2.08183 46.9876 1
    endloop
  endfacet
  facet normal 0 0 1
    outer loop
      vertex 2.78647 12.8817 1
      vertex 2.08183 9 1
      vertex 2.78647 11.1183 1
    endloop
  endfacet
  facet normal 0 0 1
    outer loop
      vertex 4.46352 10.5734 1
      vertex 2.72316 5.14432 1
      vertex 3.93631 3.58566 1
    endloop
  endfacet
  facet normal 0 0 1
    outer loop
      vertex 4.46352 10.5734 1
      vertex 2.08183 7.01243 1
      vertex 2.72316 5.14432 1
    endloop
  endfacet
  facet normal 0 0 1
    outer loop
      vertex 54.7865 11.1183 1
      vertex 50 12 1
      vertex 51.5045 2.02049 1
    endloop
  endfacet
  facet normal -0 0 1
    outer loop
      vertex 12 12 1
      vertex 51.5045 2.02049 1
      vertex 50 12 1
    endloop
  endfacet
  facet normal 0 0 1
    outer loop
      vertex 12 12 1
      vertex 7.50452 2.02049 1
      vertex 51.5045 2.02049 1
    endloop
  endfacet
  facet normal 0 0 1
    outer loop
      vertex 4.46352 40.5734 1
      vertex 12 42 1
      vertex 5.5 42 1
    endloop
  endfacet
  facet normal 0 0 1
    outer loop
      vertex 4.46352 43.4266 1
      vertex 7.50452 51.9795 1
      vertex 5.58983 51.4946 1
    endloop
  endfacet
  facet normal 0 0 1
    outer loop
      vertex 12 42 1
      vertex 4.46352 40.5734 1
      vertex 12 12 1
    endloop
  endfacet
  facet normal 0 0 1
    outer loop
      vertex 4.46352 10.5734 1
      vertex 12 12 1
      vertex 5.5 12 1
    endloop
  endfacet
  facet normal 0 0 1
    outer loop
      vertex 7.50452 51.9795 1
      vertex 4.46352 43.4266 1
      vertex 5.5 42 1
    endloop
  endfacet
  facet normal -0 0 1
    outer loop
      vertex 3.93631 50.4143 1
      vertex 4.46352 43.4266 1
      vertex 5.58983 51.4946 1
    endloop
  endfacet
  facet normal -0 0 1
    outer loop
      vertex 2.72316 48.8557 1
      vertex 4.46352 43.4266 1
      vertex 3.93631 50.4143 1
    endloop
  endfacet
  facet normal -0 0 1
    outer loop
      vertex 1 45 1
      vertex 2.78647 42.8817 1
      vertex 2.08183 45 1
    endloop
  endfacet
  facet normal 0 0 1
    outer loop
      vertex 2.78647 42.8817 1
      vertex 1 45 1
      vertex 2.78647 41.1183 1
    endloop
  endfacet
  facet normal 0 0 1
    outer loop
      vertex 4.46352 43.4266 1
      vertex 2.08183 45 1
      vertex 2.78647 42.8817 1
    endloop
  endfacet
  facet normal -0 0 1
    outer loop
      vertex 2.08183 45 1
      vertex 4.46352 43.4266 1
      vertex 2.72316 48.8557 1
    endloop
  endfacet
  facet normal -0 0 1
    outer loop
      vertex 56.4635 40.5734 1
      vertex 57.5 12 1
      vertex 57.5 42 1
    endloop
  endfacet
  facet normal 0 0 1
    outer loop
      vertex 56.4635 40.5734 1
      vertex 56.4635 13.4266 1
      vertex 57.5 12 1
    endloop
  endfacet
  facet normal 0 0 1
    outer loop
      vertex 54.7865 41.1183 1
      vertex 56.4635 13.4266 1
      vertex 56.4635 40.5734 1
    endloop
  endfacet
  facet normal 0 0 1
    outer loop
      vertex 56.4635 13.4266 1
      vertex 54.7865 41.1183 1
      vertex 54.7865 12.8817 1
    endloop
  endfacet
  facet normal 0 0 1
    outer loop
      vertex 56.4635 43.4266 1
      vertex 58 45 1
      vertex 58 46 1
    endloop
  endfacet
  facet normal 0 0 1
    outer loop
      vertex 58 45 1
      vertex 57.5 42 1
      vertex 58 9 1
    endloop
  endfacet
  facet normal 0 0 1
    outer loop
      vertex 54.7865 42.8817 1
      vertex 58 46 1
      vertex 57.6749 47.9482 1
    endloop
  endfacet
  facet normal -0 0 1
    outer loop
      vertex 57.5 12 1
      vertex 58 9 1
      vertex 57.5 42 1
    endloop
  endfacet
  facet normal -0 0 1
    outer loop
      vertex 56.4635 10.5734 1
      vertex 58 9 1
      vertex 57.5 12 1
    endloop
  endfacet
  facet normal 0 0 1
    outer loop
      vertex 54.7865 42.8817 1
      vertex 57.6749 47.9482 1
      vertex 56.7348 49.6853 1
    endloop
  endfacet
  facet normal 0 0 1
    outer loop
      vertex 58 45 1
      vertex 56.4635 43.4266 1
      vertex 57.5 42 1
    endloop
  endfacet
  facet normal 0 0 1
    outer loop
      vertex 54.7865 42.8817 1
      vertex 56.7348 49.6853 1
      vertex 55.2817 51.023 1
    endloop
  endfacet
  facet normal 0 0 1
    outer loop
      vertex 58 46 1
      vertex 54.7865 42.8817 1
      vertex 56.4635 43.4266 1
    endloop
  endfacet
  facet normal -0 0 1
    outer loop
      vertex 50 42 1
      vertex 54.7865 41.1183 1
      vertex 54.7865 42.8817 1
    endloop
  endfacet
  facet normal 0 0 1
    outer loop
      vertex 54.7865 41.1183 1
      vertex 50 42 1
      vertex 54.7865 12.8817 1
    endloop
  endfacet
  facet normal 0 0 1
    outer loop
      vertex 51.5045 51.9795 1
      vertex 54.7865 42.8817 1
      vertex 53.4729 51.8164 1
    endloop
  endfacet
  facet normal 0 0 1
    outer loop
      vertex 53.4729 51.8164 1
      vertex 54.7865 42.8817 1
      vertex 55.2817 51.023 1
    endloop
  endfacet
  facet normal -0 0 1
    outer loop
      vertex 58 45 1
      vertex 59 9 1
      vertex 59 45 1
    endloop
  endfacet
  facet normal 0 0 1
    outer loop
      vertex 59 9 1
      vertex 58 45 1
      vertex 58 9 1
    endloop
  endfacet
  facet normal 0 0 1
    outer loop
      vertex 58 9 1
      vertex 56.4635 10.5734 1
      vertex 58 8 1
    endloop
  endfacet
  facet normal 0 0 1
    outer loop
      vertex 54.7865 11.1183 1
      vertex 58 8 1
      vertex 56.4635 10.5734 1
    endloop
  endfacet
  facet normal 0 0 1
    outer loop
      vertex 58 8 1
      vertex 54.7865 11.1183 1
      vertex 57.6749 6.0518 1
    endloop
  endfacet
  facet normal 0 0 1
    outer loop
      vertex 57.6749 6.0518 1
      vertex 54.7865 11.1183 1
      vertex 56.7348 4.31472 1
    endloop
  endfacet
  facet normal 0 0 1
    outer loop
      vertex 56.7348 4.31472 1
      vertex 54.7865 11.1183 1
      vertex 55.2817 2.977 1
    endloop
  endfacet
  facet normal 0 0 1
    outer loop
      vertex 54.7865 11.1183 1
      vertex 53.4729 2.1836 1
      vertex 55.2817 2.977 1
    endloop
  endfacet
  facet normal 0 0 1
    outer loop
      vertex 50 12 1
      vertex 54.7865 12.8817 1
      vertex 50 42 1
    endloop
  endfacet
  facet normal 0 0 1
    outer loop
      vertex 54.7865 42.8817 1
      vertex 51.5045 51.9795 1
      vertex 50 42 1
    endloop
  endfacet
  facet normal -0 0 1
    outer loop
      vertex 50 12 1
      vertex 54.7865 11.1183 1
      vertex 54.7865 12.8817 1
    endloop
  endfacet
  facet normal 0 0 1
    outer loop
      vertex 54.7865 11.1183 1
      vertex 51.5045 2.02049 1
      vertex 53.4729 2.1836 1
    endloop
  endfacet
  facet normal 0 0 1
    outer loop
      vertex 51.5045 51.9795 1
      vertex 12 42 1
      vertex 50 42 1
    endloop
  endfacet
  facet normal 0 0 1
    outer loop
      vertex 5.5 42 1
      vertex 12 42 1
      vertex 7.50452 51.9795 1
    endloop
  endfacet
  facet normal -0 0 1
    outer loop
      vertex 7.50452 51.9795 1
      vertex 12 42 1
      vertex 51.5045 51.9795 1
    endloop
  endfacet
  facet normal -0.401695 0.915773 0
    outer loop
      vertex 55.2817 2.977 1
      vertex 53.4729 2.1836 17
      vertex 55.2817 2.977 17
    endloop
  endfacet
  facet normal -0.401695 0.915773 0
    outer loop
      vertex 53.4729 2.1836 17
      vertex 55.2817 2.977 1
      vertex 53.4729 2.1836 1
    endloop
  endfacet
  facet normal -0.677282 -0.735723 0
    outer loop
      vertex 55.2817 51.023 1
      vertex 56.7348 49.6853 17
      vertex 55.2817 51.023 17
    endloop
  endfacet
  facet normal -0.677282 -0.735723 -0
    outer loop
      vertex 56.7348 49.6853 17
      vertex 55.2817 51.023 1
      vertex 56.7348 49.6853 1
    endloop
  endfacet
  facet normal -0.986361 -0.164594 0
    outer loop
      vertex 58 46 1
      vertex 57.6749 47.9482 17
      vertex 57.6749 47.9482 1
    endloop
  endfacet
  facet normal -0.986361 -0.164594 0
    outer loop
      vertex 57.6749 47.9482 17
      vertex 58 46 1
      vertex 58 46 17
    endloop
  endfacet
  facet normal -0.401696 -0.915773 0
    outer loop
      vertex 53.4729 51.8164 1
      vertex 55.2817 51.023 17
      vertex 53.4729 51.8164 17
    endloop
  endfacet
  facet normal -0.401696 -0.915773 -0
    outer loop
      vertex 55.2817 51.023 17
      vertex 53.4729 51.8164 1
      vertex 55.2817 51.023 1
    endloop
  endfacet
  facet normal 0.78914 0.614213 0
    outer loop
      vertex 3.93631 3.58566 17
      vertex 2.72316 5.14432 1
      vertex 2.72316 5.14432 17
    endloop
  endfacet
  facet normal 0.78914 0.614213 0
    outer loop
      vertex 2.72316 5.14432 1
      vertex 3.93631 3.58566 17
      vertex 3.93631 3.58566 1
    endloop
  endfacet
  facet normal 0.945817 0.324699 0
    outer loop
      vertex 2.72316 5.14432 17
      vertex 2.08183 7.01243 1
      vertex 2.08183 7.01243 17
    endloop
  endfacet
  facet normal 0.945817 0.324699 0
    outer loop
      vertex 2.08183 7.01243 1
      vertex 2.72316 5.14432 17
      vertex 2.72316 5.14432 1
    endloop
  endfacet
  facet normal -0.879473 0.475949 0
    outer loop
      vertex 56.7348 4.31472 1
      vertex 57.6749 6.0518 17
      vertex 57.6749 6.0518 1
    endloop
  endfacet
  facet normal -0.879473 0.475949 0
    outer loop
      vertex 57.6749 6.0518 17
      vertex 56.7348 4.31472 1
      vertex 56.7348 4.31472 17
    endloop
  endfacet
  facet normal -0.879473 -0.475949 0
    outer loop
      vertex 57.6749 47.9482 1
      vertex 56.7348 49.6853 17
      vertex 56.7348 49.6853 1
    endloop
  endfacet
  facet normal -0.879473 -0.475949 0
    outer loop
      vertex 56.7348 49.6853 17
      vertex 57.6749 47.9482 1
      vertex 57.6749 47.9482 17
    endloop
  endfacet
  facet normal 1 -0 0
    outer loop
      vertex 12 12 1
      vertex 12 42 0
      vertex 12 42 1
    endloop
  endfacet
  facet normal 1 0 0
    outer loop
      vertex 12 42 0
      vertex 12 12 1
      vertex 12 12 0
    endloop
  endfacet
  facet normal -1 0 0
    outer loop
      vertex 50 12 0
      vertex 50 42 1
      vertex 50 42 0
    endloop
  endfacet
  facet normal -1 -0 0
    outer loop
      vertex 50 42 1
      vertex 50 12 0
      vertex 50 12 1
    endloop
  endfacet
  facet normal 0 -1 0
    outer loop
      vertex 12 42 0
      vertex 50 42 1
      vertex 12 42 1
    endloop
  endfacet
  facet normal 0 -1 -0
    outer loop
      vertex 50 42 1
      vertex 12 42 0
      vertex 50 42 0
    endloop
  endfacet
  facet normal 0 1 -0
    outer loop
      vertex 50 12 0
      vertex 12 12 1
      vertex 50 12 1
    endloop
  endfacet
  facet normal 0 1 0
    outer loop
      vertex 12 12 1
      vertex 50 12 0
      vertex 12 12 0
    endloop
  endfacet
  facet normal 1 -0 0
    outer loop
      vertex 1 9 17
      vertex 1 45 1
      vertex 1 45 17
    endloop
  endfacet
  facet normal 1 0 0
    outer loop
      vertex 1 45 1
      vertex 1 9 17
      vertex 1 9 1
    endloop
  endfacet
  facet normal -1 0 0
    outer loop
      vertex 59 9 1
      vertex 59 45 17
      vertex 59 45 1
    endloop
  endfacet
  facet normal -1 -0 0
    outer loop
      vertex 59 45 17
      vertex 59 9 1
      vertex 59 9 17
    endloop
  endfacet
  facet normal 0 1 -0
    outer loop
      vertex 2.08183 9 1
      vertex 1 9 17
      vertex 2.08183 9 17
    endloop
  endfacet
  facet normal 0 1 0
    outer loop
      vertex 1 9 17
      vertex 2.08183 9 1
      vertex 1 9 1
    endloop
  endfacet
  facet normal 0 1 -0
    outer loop
      vertex 59 9 1
      vertex 58 9 17
      vertex 59 9 17
    endloop
  endfacet
  facet normal 0 1 0
    outer loop
      vertex 58 9 17
      vertex 59 9 1
      vertex 58 9 1
    endloop
  endfacet
  facet normal 0 -1 0
    outer loop
      vertex 58 45 1
      vertex 59 45 17
      vertex 58 45 17
    endloop
  endfacet
  facet normal 0 -1 -0
    outer loop
      vertex 59 45 17
      vertex 58 45 1
      vertex 59 45 1
    endloop
  endfacet
  facet normal 0 -1 0
    outer loop
      vertex 1 45 1
      vertex 2.08183 45 17
      vertex 1 45 17
    endloop
  endfacet
  facet normal 0 -1 -0
    outer loop
      vertex 2.08183 45 17
      vertex 1 45 1
      vertex 2.08183 45 1
    endloop
  endfacet
  facet normal 0.809017 0.587786 0
    outer loop
      vertex 5.5 12 6
      vertex 4.46352 13.4266 1
      vertex 4.46352 13.4266 6
    endloop
  endfacet
  facet normal 0.809017 0.587786 0
    outer loop
      vertex 4.46352 13.4266 1
      vertex 5.5 12 6
      vertex 5.5 12 1
    endloop
  endfacet
  facet normal -1 0 0
    outer loop
      vertex 2.78647 11.1183 1
      vertex 2.78647 12.8817 6
      vertex 2.78647 12.8817 1
    endloop
  endfacet
  facet normal -1 -0 0
    outer loop
      vertex 2.78647 12.8817 6
      vertex 2.78647 11.1183 1
      vertex 2.78647 11.1183 6
    endloop
  endfacet
  facet normal -0.309017 0.951057 0
    outer loop
      vertex 4.46352 13.4266 1
      vertex 2.78647 12.8817 6
      vertex 4.46352 13.4266 6
    endloop
  endfacet
  facet normal -0.309017 0.951057 0
    outer loop
      vertex 2.78647 12.8817 6
      vertex 4.46352 13.4266 1
      vertex 2.78647 12.8817 1
    endloop
  endfacet
  facet normal 0 0 1
    outer loop
      vertex 4.46352 13.4266 6
      vertex 4.46352 10.5734 6
      vertex 5.5 12 6
    endloop
  endfacet
  facet normal -0 0 1
    outer loop
      vertex 2.78647 12.8817 6
      vertex 4.46352 10.5734 6
      vertex 4.46352 13.4266 6
    endloop
  endfacet
  facet normal 0 0 1
    outer loop
      vertex 4.46352 10.5734 6
      vertex 2.78647 12.8817 6
      vertex 2.78647 11.1183 6
    endloop
  endfacet
  facet normal 0.809017 -0.587785 0
    outer loop
      vertex 4.46352 10.5734 6
      vertex 5.5 12 1
      vertex 5.5 12 6
    endloop
  endfacet
  facet normal 0.809017 -0.587785 0
    outer loop
      vertex 5.5 12 1
      vertex 4.46352 10.5734 6
      vertex 4.46352 10.5734 1
    endloop
  endfacet
  facet normal -0.309017 -0.951057 0
    outer loop
      vertex 2.78647 11.1183 1
      vertex 4.46352 10.5734 6
      vertex 2.78647 11.1183 6
    endloop
  endfacet
  facet normal -0.309017 -0.951057 -0
    outer loop
      vertex 4.46352 10.5734 6
      vertex 2.78647 11.1183 1
      vertex 4.46352 10.5734 1
    endloop
  endfacet
  facet normal 0.809016 0.587786 0
    outer loop
      vertex 5.5 42 6
      vertex 4.46352 43.4266 1
      vertex 4.46352 43.4266 6
    endloop
  endfacet
  facet normal 0.809016 0.587786 0
    outer loop
      vertex 4.46352 43.4266 1
      vertex 5.5 42 6
      vertex 5.5 42 1
    endloop
  endfacet
  facet normal -1 0 0
    outer loop
      vertex 2.78647 41.1183 1
      vertex 2.78647 42.8817 6
      vertex 2.78647 42.8817 1
    endloop
  endfacet
  facet normal -1 -0 0
    outer loop
      vertex 2.78647 42.8817 6
      vertex 2.78647 41.1183 1
      vertex 2.78647 41.1183 6
    endloop
  endfacet
  facet normal -0.309017 0.951057 0
    outer loop
      vertex 4.46352 43.4266 1
      vertex 2.78647 42.8817 6
      vertex 4.46352 43.4266 6
    endloop
  endfacet
  facet normal -0.309017 0.951057 0
    outer loop
      vertex 2.78647 42.8817 6
      vertex 4.46352 43.4266 1
      vertex 2.78647 42.8817 1
    endloop
  endfacet
  facet normal -0.309017 -0.951057 0
    outer loop
      vertex 2.78647 41.1183 1
      vertex 4.46352 40.5734 6
      vertex 2.78647 41.1183 6
    endloop
  endfacet
  facet normal -0.309017 -0.951057 -0
    outer loop
      vertex 4.46352 40.5734 6
      vertex 2.78647 41.1183 1
      vertex 4.46352 40.5734 1
    endloop
  endfacet
  facet normal 0 0 1
    outer loop
      vertex 4.46352 43.4266 6
      vertex 4.46352 40.5734 6
      vertex 5.5 42 6
    endloop
  endfacet
  facet normal -0 0 1
    outer loop
      vertex 2.78647 42.8817 6
      vertex 4.46352 40.5734 6
      vertex 4.46352 43.4266 6
    endloop
  endfacet
  facet normal 0 0 1
    outer loop
      vertex 4.46352 40.5734 6
      vertex 2.78647 42.8817 6
      vertex 2.78647 41.1183 6
    endloop
  endfacet
  facet normal 0.809017 -0.587785 0
    outer loop
      vertex 4.46352 40.5734 6
      vertex 5.5 42 1
      vertex 5.5 42 6
    endloop
  endfacet
  facet normal 0.809017 -0.587785 0
    outer loop
      vertex 5.5 42 1
      vertex 4.46352 40.5734 6
      vertex 4.46352 40.5734 1
    endloop
  endfacet
  facet normal 0.809016 0.587786 0
    outer loop
      vertex 57.5 12 6
      vertex 56.4635 13.4266 1
      vertex 56.4635 13.4266 6
    endloop
  endfacet
  facet normal 0.809016 0.587786 0
    outer loop
      vertex 56.4635 13.4266 1
      vertex 57.5 12 6
      vertex 57.5 12 1
    endloop
  endfacet
  facet normal -1 0 0
    outer loop
      vertex 54.7865 11.1183 1
      vertex 54.7865 12.8817 6
      vertex 54.7865 12.8817 1
    endloop
  endfacet
  facet normal -1 -0 0
    outer loop
      vertex 54.7865 12.8817 6
      vertex 54.7865 11.1183 1
      vertex 54.7865 11.1183 6
    endloop
  endfacet
  facet normal -0.309017 0.951056 0
    outer loop
      vertex 56.4635 13.4266 1
      vertex 54.7865 12.8817 6
      vertex 56.4635 13.4266 6
    endloop
  endfacet
  facet normal -0.309017 0.951056 0
    outer loop
      vertex 54.7865 12.8817 6
      vertex 56.4635 13.4266 1
      vertex 54.7865 12.8817 1
    endloop
  endfacet
  facet normal -0.309017 -0.951056 0
    outer loop
      vertex 54.7865 11.1183 1
      vertex 56.4635 10.5734 6
      vertex 54.7865 11.1183 6
    endloop
  endfacet
  facet normal -0.309017 -0.951056 -0
    outer loop
      vertex 56.4635 10.5734 6
      vertex 54.7865 11.1183 1
      vertex 56.4635 10.5734 1
    endloop
  endfacet
  facet normal 0 0 1
    outer loop
      vertex 56.4635 13.4266 6
      vertex 56.4635 10.5734 6
      vertex 57.5 12 6
    endloop
  endfacet
  facet normal -0 0 1
    outer loop
      vertex 54.7865 12.8817 6
      vertex 56.4635 10.5734 6
      vertex 56.4635 13.4266 6
    endloop
  endfacet
  facet normal 0 0 1
    outer loop
      vertex 56.4635 10.5734 6
      vertex 54.7865 12.8817 6
      vertex 54.7865 11.1183 6
    endloop
  endfacet
  facet normal 0.809017 -0.587786 0
    outer loop
      vertex 56.4635 10.5734 6
      vertex 57.5 12 1
      vertex 57.5 12 6
    endloop
  endfacet
  facet normal 0.809017 -0.587786 0
    outer loop
      vertex 57.5 12 1
      vertex 56.4635 10.5734 6
      vertex 56.4635 10.5734 1
    endloop
  endfacet
  facet normal 0.809016 0.587787 0
    outer loop
      vertex 57.5 42 6
      vertex 56.4635 43.4266 1
      vertex 56.4635 43.4266 6
    endloop
  endfacet
  facet normal 0.809016 0.587787 0
    outer loop
      vertex 56.4635 43.4266 1
      vertex 57.5 42 6
      vertex 57.5 42 1
    endloop
  endfacet
  facet normal -1 0 0
    outer loop
      vertex 54.7865 41.1183 1
      vertex 54.7865 42.8817 6
      vertex 54.7865 42.8817 1
    endloop
  endfacet
  facet normal -1 -0 0
    outer loop
      vertex 54.7865 42.8817 6
      vertex 54.7865 41.1183 1
      vertex 54.7865 41.1183 6
    endloop
  endfacet
  facet normal -0.309017 0.951056 0
    outer loop
      vertex 56.4635 43.4266 1
      vertex 54.7865 42.8817 6
      vertex 56.4635 43.4266 6
    endloop
  endfacet
  facet normal -0.309017 0.951056 0
    outer loop
      vertex 54.7865 42.8817 6
      vertex 56.4635 43.4266 1
      vertex 54.7865 42.8817 1
    endloop
  endfacet
  facet normal 0 0 1
    outer loop
      vertex 56.4635 43.4266 6
      vertex 56.4635 40.5734 6
      vertex 57.5 42 6
    endloop
  endfacet
  facet normal -0 0 1
    outer loop
      vertex 54.7865 42.8817 6
      vertex 56.4635 40.5734 6
      vertex 56.4635 43.4266 6
    endloop
  endfacet
  facet normal 0 0 1
    outer loop
      vertex 56.4635 40.5734 6
      vertex 54.7865 42.8817 6
      vertex 54.7865 41.1183 6
    endloop
  endfacet
  facet normal 0.809017 -0.587785 0
    outer loop
      vertex 56.4635 40.5734 6
      vertex 57.5 42 1
      vertex 57.5 42 6
    endloop
  endfacet
  facet normal 0.809017 -0.587785 0
    outer loop
      vertex 57.5 42 1
      vertex 56.4635 40.5734 6
      vertex 56.4635 40.5734 1
    endloop
  endfacet
  facet normal -0.309017 -0.951056 0
    outer loop
      vertex 54.7865 41.1183 1
      vertex 56.4635 40.5734 6
      vertex 54.7865 41.1183 6
    endloop
  endfacet
  facet normal -0.309017 -0.951056 -0
    outer loop
      vertex 56.4635 40.5734 6
      vertex 54.7865 41.1183 1
      vertex 56.4635 40.5734 1
    endloop
  endfacet
endsolid OpenSCAD_Model
