solid OpenSCAD_Model
  facet normal 1 0 0
    outer loop
      vertex 58 9 6
      vertex 58 8.5 6
      vertex 58 9 1
    endloop
  endfacet
  facet normal 1 0 0
    outer loop
      vertex 58 44.5 6
      vertex 58 44 6
      vertex 58 44.5 1
    endloop
  endfacet
  facet normal 1 -0 0
    outer loop
      vertex 58 44.5 1
      vertex 58 46 0
      vertex 58 46 1
    endloop
  endfacet
  facet normal 1 0 0
    outer loop
      vertex 58 44 1
      vertex 58 44.5 1
      vertex 58 44 6
    endloop
  endfacet
  facet normal 1 -0 0
    outer loop
      vertex 58 44 1
      vertex 58 46 0
      vertex 58 44.5 1
    endloop
  endfacet
  facet normal 1 -0 0
    outer loop
      vertex 58 9 1
      vertex 58 46 0
      vertex 58 44 1
    endloop
  endfacet
  facet normal 1 0 0
    outer loop
      vertex 58 8.5 1
      vertex 58 9 1
      vertex 58 8.5 6
    endloop
  endfacet
  facet normal 1 0 0
    outer loop
      vertex 58 6 0
      vertex 58 9 1
      vertex 58 8.5 1
    endloop
  endfacet
  facet normal 1 0 0
    outer loop
      vertex 58 6 0
      vertex 58 8.5 1
      vertex 58 6 1
    endloop
  endfacet
  facet normal 1 0 0
    outer loop
      vertex 58 9 1
      vertex 58 6 0
      vertex 58 46 0
    endloop
  endfacet
  facet normal 0.986361 -0.164594 0
    outer loop
      vertex 57.6749 4.0518 1
      vertex 58 6 0
      vertex 58 6 1
    endloop
  endfacet
  facet normal 0.986361 -0.164594 0
    outer loop
      vertex 58 6 0
      vertex 57.6749 4.0518 1
      vertex 57.6749 4.0518 0
    endloop
  endfacet
  facet normal -0.546948 0.837167 0
    outer loop
      vertex 3.58983 51.4946 0
      vertex 1.93631 50.4143 1
      vertex 3.58983 51.4946 1
    endloop
  endfacet
  facet normal -0.546948 0.837167 0
    outer loop
      vertex 1.93631 50.4143 1
      vertex 3.58983 51.4946 0
      vertex 1.93631 50.4143 0
    endloop
  endfacet
  facet normal -1 0 0
    outer loop
      vertex 0.0818329 46.9876 0
      vertex 0.0818329 44.5 1
      vertex 0.0818329 46.9876 1
    endloop
  endfacet
  facet normal -1 0 0
    outer loop
      vertex 0.0818329 46.9876 0
      vertex 0.0818329 44 1
      vertex 0.0818329 44.5 1
    endloop
  endfacet
  facet normal -1 0 0
    outer loop
      vertex 0.0818329 46.9876 0
      vertex 0.0818329 9 1
      vertex 0.0818329 44 1
    endloop
  endfacet
  facet normal -1 0 0
    outer loop
      vertex 0.0818329 5.01243 0
      vertex 0.0818329 9 1
      vertex 0.0818329 46.9876 0
    endloop
  endfacet
  facet normal -1 -0 0
    outer loop
      vertex 0.0818329 9 1
      vertex 0.0818329 5.01243 0
      vertex 0.0818329 8.5 1
    endloop
  endfacet
  facet normal -1 -0 0
    outer loop
      vertex 0.0818329 8.5 1
      vertex 0.0818329 5.01243 0
      vertex 0.0818329 5.01243 1
    endloop
  endfacet
  facet normal 0 0 -1
    outer loop
      vertex 0 44 1
      vertex 0.0818329 44.5 1
      vertex 0.0818329 44 1
    endloop
  endfacet
  facet normal -0 0 -1
    outer loop
      vertex 0.0818329 44.5 1
      vertex 0 44 1
      vertex 0 44.5 1
    endloop
  endfacet
  facet normal -0 0 1
    outer loop
      vertex 3.96352 12.9266 1
      vertex 11.5 11.5 1
      vertex 3.96352 40.0734 1
    endloop
  endfacet
  facet normal 0 0 1
    outer loop
      vertex 11.5 11.5 1
      vertex 3.96352 12.9266 1
      vertex 5 11.5 1
    endloop
  endfacet
  facet normal 0 0 1
    outer loop
      vertex 2.28647 40.6183 1
      vertex 3.96352 12.9266 1
      vertex 3.96352 40.0734 1
    endloop
  endfacet
  facet normal 0 0 1
    outer loop
      vertex 3.96352 12.9266 1
      vertex 2.28647 40.6183 1
      vertex 2.28647 12.3817 1
    endloop
  endfacet
  facet normal -0 0 1
    outer loop
      vertex 55.9635 40.0734 1
      vertex 57 11.5 1
      vertex 57 41.5 1
    endloop
  endfacet
  facet normal 0 0 1
    outer loop
      vertex 55.9635 40.0734 1
      vertex 55.9635 12.9266 1
      vertex 57 11.5 1
    endloop
  endfacet
  facet normal 0 0 1
    outer loop
      vertex 54.2865 40.6183 1
      vertex 55.9635 12.9266 1
      vertex 55.9635 40.0734 1
    endloop
  endfacet
  facet normal 0 0 1
    outer loop
      vertex 55.9635 12.9266 1
      vertex 54.2865 40.6183 1
      vertex 54.2865 12.3817 1
    endloop
  endfacet
  facet normal 0 0 1
    outer loop
      vertex 58 44 1
      vertex 57 41.5 1
      vertex 58 9 1
    endloop
  endfacet
  facet normal 0 0 1
    outer loop
      vertex 58 44 1
      vertex 55.9635 42.9266 1
      vertex 57 41.5 1
    endloop
  endfacet
  facet normal 0 0 1
    outer loop
      vertex 58 44 1
      vertex 54.2865 42.3817 1
      vertex 55.9635 42.9266 1
    endloop
  endfacet
  facet normal -0 0 1
    outer loop
      vertex 49.5 41.5 1
      vertex 54.2865 40.6183 1
      vertex 54.2865 42.3817 1
    endloop
  endfacet
  facet normal 0 0 1
    outer loop
      vertex 54.2865 40.6183 1
      vertex 49.5 41.5 1
      vertex 54.2865 12.3817 1
    endloop
  endfacet
  facet normal 0 0 1
    outer loop
      vertex 49.5 11.5 1
      vertex 54.2865 12.3817 1
      vertex 49.5 41.5 1
    endloop
  endfacet
  facet normal 0 0 1
    outer loop
      vertex 58 44 1
      vertex 49.5 41.5 1
      vertex 54.2865 42.3817 1
    endloop
  endfacet
  facet normal 0 0 1
    outer loop
      vertex 58 44 1
      vertex 11.5 41.5 1
      vertex 49.5 41.5 1
    endloop
  endfacet
  facet normal 0 0 1
    outer loop
      vertex 3.96352 40.0734 1
      vertex 11.5 41.5 1
      vertex 5 41.5 1
    endloop
  endfacet
  facet normal -0 0 1
    outer loop
      vertex 0.0818329 44 1
      vertex 11.5 41.5 1
      vertex 58 44 1
    endloop
  endfacet
  facet normal 0 0 1
    outer loop
      vertex 11.5 41.5 1
      vertex 3.96352 42.9266 1
      vertex 5 41.5 1
    endloop
  endfacet
  facet normal 0 0 1
    outer loop
      vertex 0.0818329 44 1
      vertex 2.28647 40.6183 1
      vertex 2.28647 42.3817 1
    endloop
  endfacet
  facet normal 0 0 1
    outer loop
      vertex 2.28647 40.6183 1
      vertex 0.0818329 44 1
      vertex 2.28647 12.3817 1
    endloop
  endfacet
  facet normal 0 0 1
    outer loop
      vertex 0.0818329 9 1
      vertex 2.28647 12.3817 1
      vertex 0.0818329 44 1
    endloop
  endfacet
  facet normal 0 0 1
    outer loop
      vertex 3.96352 42.9266 1
      vertex 0.0818329 44 1
      vertex 2.28647 42.3817 1
    endloop
  endfacet
  facet normal 0 0 1
    outer loop
      vertex 11.5 41.5 1
      vertex 0.0818329 44 1
      vertex 3.96352 42.9266 1
    endloop
  endfacet
  facet normal -0 0 1
    outer loop
      vertex 57 11.5 1
      vertex 58 9 1
      vertex 57 41.5 1
    endloop
  endfacet
  facet normal -0 0 1
    outer loop
      vertex 55.9635 10.0734 1
      vertex 58 9 1
      vertex 57 11.5 1
    endloop
  endfacet
  facet normal 0 0 1
    outer loop
      vertex 54.2865 10.6183 1
      vertex 58 9 1
      vertex 55.9635 10.0734 1
    endloop
  endfacet
  facet normal 0 0 1
    outer loop
      vertex 54.2865 12.3817 1
      vertex 49.5 11.5 1
      vertex 54.2865 10.6183 1
    endloop
  endfacet
  facet normal 0 0 1
    outer loop
      vertex 49.5 11.5 1
      vertex 58 9 1
      vertex 54.2865 10.6183 1
    endloop
  endfacet
  facet normal -0 0 1
    outer loop
      vertex 11.5 11.5 1
      vertex 58 9 1
      vertex 49.5 11.5 1
    endloop
  endfacet
  facet normal 0 0 1
    outer loop
      vertex 11.5 41.5 1
      vertex 3.96352 40.0734 1
      vertex 11.5 11.5 1
    endloop
  endfacet
  facet normal 0 0 1
    outer loop
      vertex 3.96352 10.0734 1
      vertex 11.5 11.5 1
      vertex 5 11.5 1
    endloop
  endfacet
  facet normal 0 0 1
    outer loop
      vertex 0.0818329 9 1
      vertex 11.5 11.5 1
      vertex 3.96352 10.0734 1
    endloop
  endfacet
  facet normal 0 0 1
    outer loop
      vertex 11.5 11.5 1
      vertex 0.0818329 9 1
      vertex 58 9 1
    endloop
  endfacet
  facet normal 0 0 1
    outer loop
      vertex 2.28647 10.6183 1
      vertex 0.0818329 9 1
      vertex 3.96352 10.0734 1
    endloop
  endfacet
  facet normal 0 0 1
    outer loop
      vertex 2.28647 12.3817 1
      vertex 0.0818329 9 1
      vertex 2.28647 10.6183 1
    endloop
  endfacet
  facet normal 0 0 1
    outer loop
      vertex 51.5045 51.9795 1
      vertex 58 46 1
      vertex 57.6749 47.9482 1
    endloop
  endfacet
  facet normal 0 0 1
    outer loop
      vertex 51.5045 51.9795 1
      vertex 57.6749 47.9482 1
      vertex 56.7348 49.6853 1
    endloop
  endfacet
  facet normal 0 0 1
    outer loop
      vertex 51.5045 51.9795 1
      vertex 56.7348 49.6853 1
      vertex 55.2817 51.023 1
    endloop
  endfacet
  facet normal 0 0 1
    outer loop
      vertex 51.5045 51.9795 1
      vertex 55.2817 51.023 1
      vertex 53.4729 51.8164 1
    endloop
  endfacet
  facet normal 0 0 1
    outer loop
      vertex 58 46 1
      vertex 51.5045 51.9795 1
      vertex 58 44.5 1
    endloop
  endfacet
  facet normal 0 0 1
    outer loop
      vertex 0.0818329 44.5 1
      vertex 51.5045 51.9795 1
      vertex 5.50452 51.9795 1
    endloop
  endfacet
  facet normal 0 0 1
    outer loop
      vertex 0.0818329 46.9876 1
      vertex 5.50452 51.9795 1
      vertex 3.58983 51.4946 1
    endloop
  endfacet
  facet normal 0 0 1
    outer loop
      vertex 0.0818329 46.9876 1
      vertex 3.58983 51.4946 1
      vertex 1.93631 50.4143 1
    endloop
  endfacet
  facet normal 0 0 1
    outer loop
      vertex 0.0818329 46.9876 1
      vertex 1.93631 50.4143 1
      vertex 0.723158 48.8557 1
    endloop
  endfacet
  facet normal 0 0 1
    outer loop
      vertex 5.50452 51.9795 1
      vertex 0.0818329 46.9876 1
      vertex 0.0818329 44.5 1
    endloop
  endfacet
  facet normal 0 0 1
    outer loop
      vertex 51.5045 51.9795 1
      vertex 0.0818329 44.5 1
      vertex 58 44.5 1
    endloop
  endfacet
  facet normal 0 0 -1
    outer loop
      vertex 0 8.5 1
      vertex 0.0818329 9 1
      vertex 0.0818329 8.5 1
    endloop
  endfacet
  facet normal -0 0 -1
    outer loop
      vertex 0.0818329 9 1
      vertex 0 8.5 1
      vertex 0 9 1
    endloop
  endfacet
  facet normal 0 0 1
    outer loop
      vertex 51.5045 0.0204935 1
      vertex 58 6 1
      vertex 58 8.5 1
    endloop
  endfacet
  facet normal 0 0 1
    outer loop
      vertex 58 6 1
      vertex 51.5045 0.0204935 1
      vertex 57.6749 4.0518 1
    endloop
  endfacet
  facet normal 0 0 1
    outer loop
      vertex 57.6749 4.0518 1
      vertex 51.5045 0.0204935 1
      vertex 56.7348 2.31472 1
    endloop
  endfacet
  facet normal 0 0 1
    outer loop
      vertex 56.7348 2.31472 1
      vertex 51.5045 0.0204935 1
      vertex 55.2817 0.977001 1
    endloop
  endfacet
  facet normal 0 0 1
    outer loop
      vertex 55.2817 0.977001 1
      vertex 51.5045 0.0204935 1
      vertex 53.4729 0.183599 1
    endloop
  endfacet
  facet normal -0 0 1
    outer loop
      vertex 0.0818329 8.5 1
      vertex 51.5045 0.0204935 1
      vertex 58 8.5 1
    endloop
  endfacet
  facet normal 0 0 1
    outer loop
      vertex 51.5045 0.0204935 1
      vertex 0.0818329 8.5 1
      vertex 5.50452 0.0204935 1
    endloop
  endfacet
  facet normal -0 0 1
    outer loop
      vertex 0.0818329 5.01243 1
      vertex 5.50452 0.0204935 1
      vertex 0.0818329 8.5 1
    endloop
  endfacet
  facet normal 0 0 1
    outer loop
      vertex 5.50452 0.0204935 1
      vertex 0.0818329 5.01243 1
      vertex 3.58983 0.505361 1
    endloop
  endfacet
  facet normal 0 0 1
    outer loop
      vertex 3.58983 0.505361 1
      vertex 0.0818329 5.01243 1
      vertex 1.93631 1.58566 1
    endloop
  endfacet
  facet normal 0 0 1
    outer loop
      vertex 1.93631 1.58566 1
      vertex 0.0818329 5.01243 1
      vertex 0.723158 3.14432 1
    endloop
  endfacet
  facet normal 0 -1 0
    outer loop
      vertex 5.50452 0.0204935 0
      vertex 51.5045 0.0204935 1
      vertex 5.50452 0.0204935 1
    endloop
  endfacet
  facet normal 0 -1 -0
    outer loop
      vertex 51.5045 0.0204935 1
      vertex 5.50452 0.0204935 0
      vertex 51.5045 0.0204935 0
    endloop
  endfacet
  facet normal 0.401695 -0.915773 0
    outer loop
      vertex 53.4729 0.183599 0
      vertex 55.2817 0.977001 1
      vertex 53.4729 0.183599 1
    endloop
  endfacet
  facet normal 0.401695 -0.915773 0
    outer loop
      vertex 55.2817 0.977001 1
      vertex 53.4729 0.183599 0
      vertex 55.2817 0.977001 0
    endloop
  endfacet
  facet normal 0.0825792 -0.996585 0
    outer loop
      vertex 51.5045 0.0204935 0
      vertex 53.4729 0.183599 1
      vertex 51.5045 0.0204935 1
    endloop
  endfacet
  facet normal 0.0825792 -0.996585 0
    outer loop
      vertex 53.4729 0.183599 1
      vertex 51.5045 0.0204935 0
      vertex 53.4729 0.183599 0
    endloop
  endfacet
  facet normal 0 1 -0
    outer loop
      vertex 51.5045 51.9795 0
      vertex 5.50452 51.9795 1
      vertex 51.5045 51.9795 1
    endloop
  endfacet
  facet normal 0 1 0
    outer loop
      vertex 5.50452 51.9795 1
      vertex 51.5045 51.9795 0
      vertex 5.50452 51.9795 0
    endloop
  endfacet
  facet normal -0.245486 0.9694 0
    outer loop
      vertex 5.50452 51.9795 0
      vertex 3.58983 51.4946 1
      vertex 5.50452 51.9795 1
    endloop
  endfacet
  facet normal -0.245486 0.9694 0
    outer loop
      vertex 3.58983 51.4946 1
      vertex 5.50452 51.9795 0
      vertex 3.58983 51.4946 0
    endloop
  endfacet
  facet normal 0.879473 -0.475949 0
    outer loop
      vertex 56.7348 2.31472 1
      vertex 57.6749 4.0518 0
      vertex 57.6749 4.0518 1
    endloop
  endfacet
  facet normal 0.879473 -0.475949 0
    outer loop
      vertex 57.6749 4.0518 0
      vertex 56.7348 2.31472 1
      vertex 56.7348 2.31472 0
    endloop
  endfacet
  facet normal 0.677282 -0.735723 0
    outer loop
      vertex 55.2817 0.977001 0
      vertex 56.7348 2.31472 1
      vertex 55.2817 0.977001 1
    endloop
  endfacet
  facet normal 0.677282 -0.735723 0
    outer loop
      vertex 56.7348 2.31472 1
      vertex 55.2817 0.977001 0
      vertex 56.7348 2.31472 0
    endloop
  endfacet
  facet normal 0 0 -1
    outer loop
      vertex 49.5 11.5 0
      vertex 58 6 0
      vertex 57.6749 4.0518 0
    endloop
  endfacet
  facet normal 0 0 -1
    outer loop
      vertex 58 6 0
      vertex 49.5 11.5 0
      vertex 58 46 0
    endloop
  endfacet
  facet normal 0 0 -1
    outer loop
      vertex 49.5 11.5 0
      vertex 57.6749 4.0518 0
      vertex 56.7348 2.31472 0
    endloop
  endfacet
  facet normal 0 0 -1
    outer loop
      vertex 49.5 41.5 0
      vertex 58 46 0
      vertex 49.5 11.5 0
    endloop
  endfacet
  facet normal 0 0 -1
    outer loop
      vertex 49.5 11.5 0
      vertex 56.7348 2.31472 0
      vertex 55.2817 0.977001 0
    endloop
  endfacet
  facet normal -0 0 -1
    outer loop
      vertex 58 46 0
      vertex 49.5 41.5 0
      vertex 57.6749 47.9482 0
    endloop
  endfacet
  facet normal 0 0 -1
    outer loop
      vertex 49.5 11.5 0
      vertex 55.2817 0.977001 0
      vertex 53.4729 0.183599 0
    endloop
  endfacet
  facet normal -0 0 -1
    outer loop
      vertex 57.6749 47.9482 0
      vertex 49.5 41.5 0
      vertex 56.7348 49.6853 0
    endloop
  endfacet
  facet normal 0 0 -1
    outer loop
      vertex 49.5 11.5 0
      vertex 53.4729 0.183599 0
      vertex 51.5045 0.0204935 0
    endloop
  endfacet
  facet normal -0 0 -1
    outer loop
      vertex 56.7348 49.6853 0
      vertex 49.5 41.5 0
      vertex 55.2817 51.023 0
    endloop
  endfacet
  facet normal -0 0 -1
    outer loop
      vertex 55.2817 51.023 0
      vertex 49.5 41.5 0
      vertex 53.4729 51.8164 0
    endloop
  endfacet
  facet normal 0 0 -1
    outer loop
      vertex 51.5045 0.0204935 0
      vertex 11.5 11.5 0
      vertex 49.5 11.5 0
    endloop
  endfacet
  facet normal 0 0 -1
    outer loop
      vertex 0.0818329 5.01243 0
      vertex 11.5 11.5 0
      vertex 5.50452 0.0204935 0
    endloop
  endfacet
  facet normal 0 0 -1
    outer loop
      vertex 5.50452 0.0204935 0
      vertex 11.5 11.5 0
      vertex 51.5045 0.0204935 0
    endloop
  endfacet
  facet normal -0 0 -1
    outer loop
      vertex 53.4729 51.8164 0
      vertex 49.5 41.5 0
      vertex 51.5045 51.9795 0
    endloop
  endfacet
  facet normal 0 0 -1
    outer loop
      vertex 11.5 41.5 0
      vertex 51.5045 51.9795 0
      vertex 49.5 41.5 0
    endloop
  endfacet
  facet normal 0 0 -1
    outer loop
      vertex 11.5 41.5 0
      vertex 5.50452 51.9795 0
      vertex 51.5045 51.9795 0
    endloop
  endfacet
  facet normal 0 0 -1
    outer loop
      vertex 0.0818329 46.9876 0
      vertex 11.5 11.5 0
      vertex 0.0818329 5.01243 0
    endloop
  endfacet
  facet normal 0 0 -1
    outer loop
      vertex 0.0818329 5.01243 0
      vertex 5.50452 0.0204935 0
      vertex 3.58983 0.505361 0
    endloop
  endfacet
  facet normal 0 0 -1
    outer loop
      vertex 11.5 11.5 0
      vertex 0.0818329 46.9876 0
      vertex 11.5 41.5 0
    endloop
  endfacet
  facet normal 0 0 -1
    outer loop
      vertex 0.0818329 5.01243 0
      vertex 3.58983 0.505361 0
      vertex 1.93631 1.58566 0
    endloop
  endfacet
  facet normal 0 0 -1
    outer loop
      vertex 11.5 41.5 0
      vertex 0.0818329 46.9876 0
      vertex 5.50452 51.9795 0
    endloop
  endfacet
  facet normal 0 0 -1
    outer loop
      vertex 0.0818329 5.01243 0
      vertex 1.93631 1.58566 0
      vertex 0.723158 3.14432 0
    endloop
  endfacet
  facet normal 0 0 -1
    outer loop
      vertex 5.50452 51.9795 0
      vertex 0.0818329 46.9876 0
      vertex 3.58983 51.4946 0
    endloop
  endfacet
  facet normal 0 0 -1
    outer loop
      vertex 3.58983 51.4946 0
      vertex 0.0818329 46.9876 0
      vertex 1.93631 50.4143 0
    endloop
  endfacet
  facet normal 0 0 -1
    outer loop
      vertex 1.93631 50.4143 0
      vertex 0.0818329 46.9876 0
      vertex 0.723158 48.8557 0
    endloop
  endfacet
  facet normal -0.546948 -0.837166 0
    outer loop
      vertex 1.93631 1.58566 0
      vertex 3.58983 0.505361 1
      vertex 1.93631 1.58566 1
    endloop
  endfacet
  facet normal -0.546948 -0.837166 -0
    outer loop
      vertex 3.58983 0.505361 1
      vertex 1.93631 1.58566 0
      vertex 3.58983 0.505361 0
    endloop
  endfacet
  facet normal -0.245486 -0.9694 0
    outer loop
      vertex 3.58983 0.505361 0
      vertex 5.50452 0.0204935 1
      vertex 3.58983 0.505361 1
    endloop
  endfacet
  facet normal -0.245486 -0.9694 -0
    outer loop
      vertex 5.50452 0.0204935 1
      vertex 3.58983 0.505361 0
      vertex 5.50452 0.0204935 0
    endloop
  endfacet
  facet normal -0.945817 0.3247 0
    outer loop
      vertex 0.0818329 46.9876 0
      vertex 0.723158 48.8557 1
      vertex 0.723158 48.8557 0
    endloop
  endfacet
  facet normal -0.945817 0.3247 0
    outer loop
      vertex 0.723158 48.8557 1
      vertex 0.0818329 46.9876 0
      vertex 0.0818329 46.9876 1
    endloop
  endfacet
  facet normal -0.789141 0.614212 0
    outer loop
      vertex 0.723158 48.8557 0
      vertex 1.93631 50.4143 1
      vertex 1.93631 50.4143 0
    endloop
  endfacet
  facet normal -0.789141 0.614212 0
    outer loop
      vertex 1.93631 50.4143 1
      vertex 0.723158 48.8557 0
      vertex 0.723158 48.8557 1
    endloop
  endfacet
  facet normal 0.986361 0.164594 0
    outer loop
      vertex 58 46 1
      vertex 57.6749 47.9482 0
      vertex 57.6749 47.9482 1
    endloop
  endfacet
  facet normal 0.986361 0.164594 0
    outer loop
      vertex 57.6749 47.9482 0
      vertex 58 46 1
      vertex 58 46 0
    endloop
  endfacet
  facet normal 0.677282 0.735723 -0
    outer loop
      vertex 56.7348 49.6853 0
      vertex 55.2817 51.023 1
      vertex 56.7348 49.6853 1
    endloop
  endfacet
  facet normal 0.677282 0.735723 0
    outer loop
      vertex 55.2817 51.023 1
      vertex 56.7348 49.6853 0
      vertex 55.2817 51.023 0
    endloop
  endfacet
  facet normal 0.0825792 0.996585 -0
    outer loop
      vertex 53.4729 51.8164 0
      vertex 51.5045 51.9795 1
      vertex 53.4729 51.8164 1
    endloop
  endfacet
  facet normal 0.0825792 0.996585 0
    outer loop
      vertex 51.5045 51.9795 1
      vertex 53.4729 51.8164 0
      vertex 51.5045 51.9795 0
    endloop
  endfacet
  facet normal 0.401696 0.915773 -0
    outer loop
      vertex 55.2817 51.023 0
      vertex 53.4729 51.8164 1
      vertex 55.2817 51.023 1
    endloop
  endfacet
  facet normal 0.401696 0.915773 0
    outer loop
      vertex 53.4729 51.8164 1
      vertex 55.2817 51.023 0
      vertex 53.4729 51.8164 0
    endloop
  endfacet
  facet normal -0.78914 -0.614213 0
    outer loop
      vertex 1.93631 1.58566 0
      vertex 0.723158 3.14432 1
      vertex 0.723158 3.14432 0
    endloop
  endfacet
  facet normal -0.78914 -0.614213 0
    outer loop
      vertex 0.723158 3.14432 1
      vertex 1.93631 1.58566 0
      vertex 1.93631 1.58566 1
    endloop
  endfacet
  facet normal -0.945817 -0.324699 0
    outer loop
      vertex 0.723158 3.14432 0
      vertex 0.0818329 5.01243 1
      vertex 0.0818329 5.01243 0
    endloop
  endfacet
  facet normal -0.945817 -0.324699 0
    outer loop
      vertex 0.0818329 5.01243 1
      vertex 0.723158 3.14432 0
      vertex 0.723158 3.14432 1
    endloop
  endfacet
  facet normal 0.879473 0.475949 0
    outer loop
      vertex 57.6749 47.9482 1
      vertex 56.7348 49.6853 0
      vertex 56.7348 49.6853 1
    endloop
  endfacet
  facet normal 0.879473 0.475949 0
    outer loop
      vertex 56.7348 49.6853 0
      vertex 57.6749 47.9482 1
      vertex 57.6749 47.9482 0
    endloop
  endfacet
  facet normal 1 -0 0
    outer loop
      vertex 11.5 11.5 1
      vertex 11.5 41.5 0
      vertex 11.5 41.5 1
    endloop
  endfacet
  facet normal 1 0 0
    outer loop
      vertex 11.5 41.5 0
      vertex 11.5 11.5 1
      vertex 11.5 11.5 0
    endloop
  endfacet
  facet normal -1 0 0
    outer loop
      vertex 49.5 11.5 0
      vertex 49.5 41.5 1
      vertex 49.5 41.5 0
    endloop
  endfacet
  facet normal -1 -0 0
    outer loop
      vertex 49.5 41.5 1
      vertex 49.5 11.5 0
      vertex 49.5 11.5 1
    endloop
  endfacet
  facet normal 0 -1 0
    outer loop
      vertex 11.5 41.5 0
      vertex 49.5 41.5 1
      vertex 11.5 41.5 1
    endloop
  endfacet
  facet normal 0 -1 -0
    outer loop
      vertex 49.5 41.5 1
      vertex 11.5 41.5 0
      vertex 49.5 41.5 0
    endloop
  endfacet
  facet normal 0 1 -0
    outer loop
      vertex 49.5 11.5 0
      vertex 11.5 11.5 1
      vertex 49.5 11.5 1
    endloop
  endfacet
  facet normal 0 1 0
    outer loop
      vertex 11.5 11.5 1
      vertex 49.5 11.5 0
      vertex 11.5 11.5 0
    endloop
  endfacet
  facet normal 0.809017 0.587786 0
    outer loop
      vertex 5 11.5 6
      vertex 3.96352 12.9266 1
      vertex 3.96352 12.9266 6
    endloop
  endfacet
  facet normal 0.809017 0.587786 0
    outer loop
      vertex 3.96352 12.9266 1
      vertex 5 11.5 6
      vertex 5 11.5 1
    endloop
  endfacet
  facet normal -1 0 0
    outer loop
      vertex 2.28647 10.6183 1
      vertex 2.28647 12.3817 6
      vertex 2.28647 12.3817 1
    endloop
  endfacet
  facet normal -1 -0 0
    outer loop
      vertex 2.28647 12.3817 6
      vertex 2.28647 10.6183 1
      vertex 2.28647 10.6183 6
    endloop
  endfacet
  facet normal -0.309017 0.951057 0
    outer loop
      vertex 3.96352 12.9266 1
      vertex 2.28647 12.3817 6
      vertex 3.96352 12.9266 6
    endloop
  endfacet
  facet normal -0.309017 0.951057 0
    outer loop
      vertex 2.28647 12.3817 6
      vertex 3.96352 12.9266 1
      vertex 2.28647 12.3817 1
    endloop
  endfacet
  facet normal -0.309017 -0.951057 0
    outer loop
      vertex 2.28647 10.6183 1
      vertex 3.96352 10.0734 6
      vertex 2.28647 10.6183 6
    endloop
  endfacet
  facet normal -0.309017 -0.951057 -0
    outer loop
      vertex 3.96352 10.0734 6
      vertex 2.28647 10.6183 1
      vertex 3.96352 10.0734 1
    endloop
  endfacet
  facet normal 0 0 1
    outer loop
      vertex 3.96352 12.9266 6
      vertex 3.96352 10.0734 6
      vertex 5 11.5 6
    endloop
  endfacet
  facet normal -0 0 1
    outer loop
      vertex 2.28647 12.3817 6
      vertex 3.96352 10.0734 6
      vertex 3.96352 12.9266 6
    endloop
  endfacet
  facet normal 0 0 1
    outer loop
      vertex 3.96352 10.0734 6
      vertex 2.28647 12.3817 6
      vertex 2.28647 10.6183 6
    endloop
  endfacet
  facet normal 0.809017 -0.587785 0
    outer loop
      vertex 3.96352 10.0734 6
      vertex 5 11.5 1
      vertex 5 11.5 6
    endloop
  endfacet
  facet normal 0.809017 -0.587785 0
    outer loop
      vertex 5 11.5 1
      vertex 3.96352 10.0734 6
      vertex 3.96352 10.0734 1
    endloop
  endfacet
  facet normal 0.809016 0.587786 0
    outer loop
      vertex 5 41.5 6
      vertex 3.96352 42.9266 1
      vertex 3.96352 42.9266 6
    endloop
  endfacet
  facet normal 0.809016 0.587786 0
    outer loop
      vertex 3.96352 42.9266 1
      vertex 5 41.5 6
      vertex 5 41.5 1
    endloop
  endfacet
  facet normal -1 0 0
    outer loop
      vertex 2.28647 40.6183 1
      vertex 2.28647 42.3817 6
      vertex 2.28647 42.3817 1
    endloop
  endfacet
  facet normal -1 -0 0
    outer loop
      vertex 2.28647 42.3817 6
      vertex 2.28647 40.6183 1
      vertex 2.28647 40.6183 6
    endloop
  endfacet
  facet normal -0.309017 0.951057 0
    outer loop
      vertex 3.96352 42.9266 1
      vertex 2.28647 42.3817 6
      vertex 3.96352 42.9266 6
    endloop
  endfacet
  facet normal -0.309017 0.951057 0
    outer loop
      vertex 2.28647 42.3817 6
      vertex 3.96352 42.9266 1
      vertex 2.28647 42.3817 1
    endloop
  endfacet
  facet normal 0 0 1
    outer loop
      vertex 3.96352 42.9266 6
      vertex 3.96352 40.0734 6
      vertex 5 41.5 6
    endloop
  endfacet
  facet normal -0 0 1
    outer loop
      vertex 2.28647 42.3817 6
      vertex 3.96352 40.0734 6
      vertex 3.96352 42.9266 6
    endloop
  endfacet
  facet normal 0 0 1
    outer loop
      vertex 3.96352 40.0734 6
      vertex 2.28647 42.3817 6
      vertex 2.28647 40.6183 6
    endloop
  endfacet
  facet normal 0.809017 -0.587785 0
    outer loop
      vertex 3.96352 40.0734 6
      vertex 5 41.5 1
      vertex 5 41.5 6
    endloop
  endfacet
  facet normal 0.809017 -0.587785 0
    outer loop
      vertex 5 41.5 1
      vertex 3.96352 40.0734 6
      vertex 3.96352 40.0734 1
    endloop
  endfacet
  facet normal -0.309017 -0.951057 0
    outer loop
      vertex 2.28647 40.6183 1
      vertex 3.96352 40.0734 6
      vertex 2.28647 40.6183 6
    endloop
  endfacet
  facet normal -0.309017 -0.951057 -0
    outer loop
      vertex 3.96352 40.0734 6
      vertex 2.28647 40.6183 1
      vertex 3.96352 40.0734 1
    endloop
  endfacet
  facet normal 0.809016 0.587786 0
    outer loop
      vertex 57 11.5 6
      vertex 55.9635 12.9266 1
      vertex 55.9635 12.9266 6
    endloop
  endfacet
  facet normal 0.809016 0.587786 0
    outer loop
      vertex 55.9635 12.9266 1
      vertex 57 11.5 6
      vertex 57 11.5 1
    endloop
  endfacet
  facet normal -1 0 0
    outer loop
      vertex 54.2865 10.6183 1
      vertex 54.2865 12.3817 6
      vertex 54.2865 12.3817 1
    endloop
  endfacet
  facet normal -1 -0 0
    outer loop
      vertex 54.2865 12.3817 6
      vertex 54.2865 10.6183 1
      vertex 54.2865 10.6183 6
    endloop
  endfacet
  facet normal -0.309017 0.951056 0
    outer loop
      vertex 55.9635 12.9266 1
      vertex 54.2865 12.3817 6
      vertex 55.9635 12.9266 6
    endloop
  endfacet
  facet normal -0.309017 0.951056 0
    outer loop
      vertex 54.2865 12.3817 6
      vertex 55.9635 12.9266 1
      vertex 54.2865 12.3817 1
    endloop
  endfacet
  facet normal 0 0 1
    outer loop
      vertex 55.9635 12.9266 6
      vertex 55.9635 10.0734 6
      vertex 57 11.5 6
    endloop
  endfacet
  facet normal -0 0 1
    outer loop
      vertex 54.2865 12.3817 6
      vertex 55.9635 10.0734 6
      vertex 55.9635 12.9266 6
    endloop
  endfacet
  facet normal 0 0 1
    outer loop
      vertex 55.9635 10.0734 6
      vertex 54.2865 12.3817 6
      vertex 54.2865 10.6183 6
    endloop
  endfacet
  facet normal 0.809017 -0.587786 0
    outer loop
      vertex 55.9635 10.0734 6
      vertex 57 11.5 1
      vertex 57 11.5 6
    endloop
  endfacet
  facet normal 0.809017 -0.587786 0
    outer loop
      vertex 57 11.5 1
      vertex 55.9635 10.0734 6
      vertex 55.9635 10.0734 1
    endloop
  endfacet
  facet normal -0.309017 -0.951056 0
    outer loop
      vertex 54.2865 10.6183 1
      vertex 55.9635 10.0734 6
      vertex 54.2865 10.6183 6
    endloop
  endfacet
  facet normal -0.309017 -0.951056 -0
    outer loop
      vertex 55.9635 10.0734 6
      vertex 54.2865 10.6183 1
      vertex 55.9635 10.0734 1
    endloop
  endfacet
  facet normal 0.809016 0.587787 0
    outer loop
      vertex 57 41.5 6
      vertex 55.9635 42.9266 1
      vertex 55.9635 42.9266 6
    endloop
  endfacet
  facet normal 0.809016 0.587787 0
    outer loop
      vertex 55.9635 42.9266 1
      vertex 57 41.5 6
      vertex 57 41.5 1
    endloop
  endfacet
  facet normal -1 0 0
    outer loop
      vertex 54.2865 40.6183 1
      vertex 54.2865 42.3817 6
      vertex 54.2865 42.3817 1
    endloop
  endfacet
  facet normal -1 -0 0
    outer loop
      vertex 54.2865 42.3817 6
      vertex 54.2865 40.6183 1
      vertex 54.2865 40.6183 6
    endloop
  endfacet
  facet normal -0.309017 0.951056 0
    outer loop
      vertex 55.9635 42.9266 1
      vertex 54.2865 42.3817 6
      vertex 55.9635 42.9266 6
    endloop
  endfacet
  facet normal -0.309017 0.951056 0
    outer loop
      vertex 54.2865 42.3817 6
      vertex 55.9635 42.9266 1
      vertex 54.2865 42.3817 1
    endloop
  endfacet
  facet normal 0 0 1
    outer loop
      vertex 55.9635 42.9266 6
      vertex 55.9635 40.0734 6
      vertex 57 41.5 6
    endloop
  endfacet
  facet normal -0 0 1
    outer loop
      vertex 54.2865 42.3817 6
      vertex 55.9635 40.0734 6
      vertex 55.9635 42.9266 6
    endloop
  endfacet
  facet normal 0 0 1
    outer loop
      vertex 55.9635 40.0734 6
      vertex 54.2865 42.3817 6
      vertex 54.2865 40.6183 6
    endloop
  endfacet
  facet normal 0.809017 -0.587785 0
    outer loop
      vertex 55.9635 40.0734 6
      vertex 57 41.5 1
      vertex 57 41.5 6
    endloop
  endfacet
  facet normal 0.809017 -0.587785 0
    outer loop
      vertex 57 41.5 1
      vertex 55.9635 40.0734 6
      vertex 55.9635 40.0734 1
    endloop
  endfacet
  facet normal -0.309017 -0.951056 0
    outer loop
      vertex 54.2865 40.6183 1
      vertex 55.9635 40.0734 6
      vertex 54.2865 40.6183 6
    endloop
  endfacet
  facet normal -0.309017 -0.951056 -0
    outer loop
      vertex 55.9635 40.0734 6
      vertex 54.2865 40.6183 1
      vertex 55.9635 40.0734 1
    endloop
  endfacet
  facet normal -1 0 0
    outer loop
      vertex 0 8.5 1
      vertex 0 9 6
      vertex 0 9 1
    endloop
  endfacet
  facet normal -1 -0 0
    outer loop
      vertex 0 9 6
      vertex 0 8.5 1
      vertex 0 8.5 6
    endloop
  endfacet
  facet normal -0 0 1
    outer loop
      vertex 0 9 6
      vertex 58 8.5 6
      vertex 58 9 6
    endloop
  endfacet
  facet normal 0 0 1
    outer loop
      vertex 58 8.5 6
      vertex 0 9 6
      vertex 0 8.5 6
    endloop
  endfacet
  facet normal 0 -1 0
    outer loop
      vertex 0.0818329 8.5 1
      vertex 0 8.5 6
      vertex 0 8.5 1
    endloop
  endfacet
  facet normal 0 -1 0
    outer loop
      vertex 0 8.5 6
      vertex 0.0818329 8.5 1
      vertex 58 8.5 6
    endloop
  endfacet
  facet normal 0 -1 -0
    outer loop
      vertex 58 8.5 6
      vertex 0.0818329 8.5 1
      vertex 58 8.5 1
    endloop
  endfacet
  facet normal 0 1 0
    outer loop
      vertex 0.0818329 9 1
      vertex 58 9 6
      vertex 58 9 1
    endloop
  endfacet
  facet normal 0 1 0
    outer loop
      vertex 58 9 6
      vertex 0.0818329 9 1
      vertex 0 9 6
    endloop
  endfacet
  facet normal 0 1 0
    outer loop
      vertex 0 9 6
      vertex 0.0818329 9 1
      vertex 0 9 1
    endloop
  endfacet
  facet normal -1 0 0
    outer loop
      vertex 0 44 1
      vertex 0 44.5 6
      vertex 0 44.5 1
    endloop
  endfacet
  facet normal -1 -0 0
    outer loop
      vertex 0 44.5 6
      vertex 0 44 1
      vertex 0 44 6
    endloop
  endfacet
  facet normal -0 0 1
    outer loop
      vertex 0 44.5 6
      vertex 58 44 6
      vertex 58 44.5 6
    endloop
  endfacet
  facet normal 0 0 1
    outer loop
      vertex 58 44 6
      vertex 0 44.5 6
      vertex 0 44 6
    endloop
  endfacet
  facet normal 0 1 0
    outer loop
      vertex 0.0818329 44.5 1
      vertex 58 44.5 6
      vertex 58 44.5 1
    endloop
  endfacet
  facet normal 0 1 0
    outer loop
      vertex 58 44.5 6
      vertex 0.0818329 44.5 1
      vertex 0 44.5 6
    endloop
  endfacet
  facet normal 0 1 0
    outer loop
      vertex 0 44.5 6
      vertex 0.0818329 44.5 1
      vertex 0 44.5 1
    endloop
  endfacet
  facet normal 0 -1 0
    outer loop
      vertex 0.0818329 44 1
      vertex 0 44 6
      vertex 0 44 1
    endloop
  endfacet
  facet normal 0 -1 0
    outer loop
      vertex 0 44 6
      vertex 0.0818329 44 1
      vertex 58 44 6
    endloop
  endfacet
  facet normal 0 -1 -0
    outer loop
      vertex 58 44 6
      vertex 0.0818329 44 1
      vertex 58 44 1
    endloop
  endfacet
endsolid OpenSCAD_Model
