solid OpenSCAD_Model
  facet normal -0.78914 -0.614213 0
    outer loop
      vertex 1.93631 1.58566 0
      vertex 0.723158 3.14432 41
      vertex 0.723158 3.14432 0
    endloop
  endfacet
  facet normal -0.78914 -0.614213 0
    outer loop
      vertex 0.723158 3.14432 41
      vertex 1.93631 1.58566 0
      vertex 1.93631 1.58566 41
    endloop
  endfacet
  facet normal -0 0 1
    outer loop
      vertex 1 9 41
      vertex 2.08183 7.01243 41
      vertex 2.08183 9 41
    endloop
  endfacet
  facet normal 0 0 1
    outer loop
      vertex 2.08183 7.01243 41
      vertex 1 9 41
      vertex 0.0818329 5.01243 41
    endloop
  endfacet
  facet normal 0 0 1
    outer loop
      vertex 2.08183 7.01243 41
      vertex 0.723158 3.14432 41
      vertex 1.93631 1.58566 41
    endloop
  endfacet
  facet normal 0 0 1
    outer loop
      vertex 0.0818329 5.01243 41
      vertex 1 44 41
      vertex 0.0818329 48.9876 41
    endloop
  endfacet
  facet normal 0 0 1
    outer loop
      vertex 1 44 41
      vertex 0.0818329 5.01243 41
      vertex 1 9 41
    endloop
  endfacet
  facet normal 0 0 1
    outer loop
      vertex 2.08183 7.01243 41
      vertex 0.0818329 5.01243 41
      vertex 0.723158 3.14432 41
    endloop
  endfacet
  facet normal 0 0 1
    outer loop
      vertex 60 48 41
      vertex 57.6749 47.9482 41
      vertex 58 46 41
    endloop
  endfacet
  facet normal 0 0 1
    outer loop
      vertex 56.7348 49.6853 41
      vertex 58.7348 51.6853 41
      vertex 57.2817 53.023 41
    endloop
  endfacet
  facet normal 0 0 1
    outer loop
      vertex 59.6749 49.9482 41
      vertex 56.7348 49.6853 41
      vertex 57.6749 47.9482 41
    endloop
  endfacet
  facet normal 0 0 1
    outer loop
      vertex 55.2817 51.023 41
      vertex 57.2817 53.023 41
      vertex 55.4729 53.8164 41
    endloop
  endfacet
  facet normal 0 0 1
    outer loop
      vertex 57.2817 53.023 41
      vertex 55.2817 51.023 41
      vertex 56.7348 49.6853 41
    endloop
  endfacet
  facet normal 0 0 1
    outer loop
      vertex 53.4729 51.8164 41
      vertex 55.4729 53.8164 41
      vertex 53.5045 53.9795 41
    endloop
  endfacet
  facet normal 0 0 1
    outer loop
      vertex 55.4729 53.8164 41
      vertex 53.4729 51.8164 41
      vertex 55.2817 51.023 41
    endloop
  endfacet
  facet normal 0 0 1
    outer loop
      vertex 53.5045 53.9795 41
      vertex 51.5045 51.9795 41
      vertex 53.4729 51.8164 41
    endloop
  endfacet
  facet normal 0 0 1
    outer loop
      vertex 53.5045 53.9795 41
      vertex 7.50452 51.9795 41
      vertex 51.5045 51.9795 41
    endloop
  endfacet
  facet normal -0 0 1
    outer loop
      vertex 5.50452 53.9795 41
      vertex 7.50452 51.9795 41
      vertex 53.5045 53.9795 41
    endloop
  endfacet
  facet normal 0 0 1
    outer loop
      vertex 5.50452 53.9795 41
      vertex 5.58983 51.4946 41
      vertex 7.50452 51.9795 41
    endloop
  endfacet
  facet normal -0 0 1
    outer loop
      vertex 3.58983 53.4946 41
      vertex 5.58983 51.4946 41
      vertex 5.50452 53.9795 41
    endloop
  endfacet
  facet normal 0 0 1
    outer loop
      vertex 5.58983 51.4946 41
      vertex 3.58983 53.4946 41
      vertex 3.93631 50.4143 41
    endloop
  endfacet
  facet normal -0 0 1
    outer loop
      vertex 1.93631 52.4143 41
      vertex 3.93631 50.4143 41
      vertex 3.58983 53.4946 41
    endloop
  endfacet
  facet normal -0 0 1
    outer loop
      vertex 0.723158 50.8557 41
      vertex 3.93631 50.4143 41
      vertex 1.93631 52.4143 41
    endloop
  endfacet
  facet normal 0 0 1
    outer loop
      vertex 3.93631 50.4143 41
      vertex 0.723158 50.8557 41
      vertex 2.72316 48.8557 41
    endloop
  endfacet
  facet normal -0 0 1
    outer loop
      vertex 0.0818329 48.9876 41
      vertex 2.72316 48.8557 41
      vertex 0.723158 50.8557 41
    endloop
  endfacet
  facet normal 0 0 1
    outer loop
      vertex 2.72316 48.8557 41
      vertex 0.0818329 48.9876 41
      vertex 2.08183 46.9876 41
    endloop
  endfacet
  facet normal 0 0 1
    outer loop
      vertex 2.08183 46.9876 41
      vertex 0.0818329 48.9876 41
      vertex 1 44 41
    endloop
  endfacet
  facet normal 0 0 1
    outer loop
      vertex 2.08183 46.9876 41
      vertex 1 44 41
      vertex 2.08183 44 41
    endloop
  endfacet
  facet normal 0 0 1
    outer loop
      vertex 57.6749 47.9482 41
      vertex 60 48 41
      vertex 59.6749 49.9482 41
    endloop
  endfacet
  facet normal 0 0 1
    outer loop
      vertex 60 48 41
      vertex 59 44 41
      vertex 60 6 41
    endloop
  endfacet
  facet normal -0 0 1
    outer loop
      vertex 59 9 41
      vertex 60 6 41
      vertex 59 44 41
    endloop
  endfacet
  facet normal 0 0 1
    outer loop
      vertex 56.7348 49.6853 41
      vertex 59.6749 49.9482 41
      vertex 58.7348 51.6853 41
    endloop
  endfacet
  facet normal 0 0 1
    outer loop
      vertex 60 48 41
      vertex 58 46 41
      vertex 59 44 41
    endloop
  endfacet
  facet normal 0 0 1
    outer loop
      vertex 59 44 41
      vertex 58 46 41
      vertex 58 44 41
    endloop
  endfacet
  facet normal -0 0 1
    outer loop
      vertex 58 8 41
      vertex 60 6 41
      vertex 59 9 41
    endloop
  endfacet
  facet normal -0 0 1
    outer loop
      vertex 57.6749 6.0518 41
      vertex 60 6 41
      vertex 58 8 41
    endloop
  endfacet
  facet normal 0 0 1
    outer loop
      vertex 58 8 41
      vertex 59 9 41
      vertex 58 9 41
    endloop
  endfacet
  facet normal 0 0 1
    outer loop
      vertex 60 6 41
      vertex 57.6749 6.0518 41
      vertex 59.6749 4.0518 41
    endloop
  endfacet
  facet normal -0 0 1
    outer loop
      vertex 56.7348 4.31472 41
      vertex 59.6749 4.0518 41
      vertex 57.6749 6.0518 41
    endloop
  endfacet
  facet normal 0 0 1
    outer loop
      vertex 59.6749 4.0518 41
      vertex 56.7348 4.31472 41
      vertex 58.7348 2.31472 41
    endloop
  endfacet
  facet normal 0 0 1
    outer loop
      vertex 58.7348 2.31472 41
      vertex 56.7348 4.31472 41
      vertex 57.2817 0.977001 41
    endloop
  endfacet
  facet normal -0 0 1
    outer loop
      vertex 55.2817 2.977 41
      vertex 57.2817 0.977001 41
      vertex 56.7348 4.31472 41
    endloop
  endfacet
  facet normal 0 0 1
    outer loop
      vertex 57.2817 0.977001 41
      vertex 55.2817 2.977 41
      vertex 55.4729 0.183599 41
    endloop
  endfacet
  facet normal -0 0 1
    outer loop
      vertex 53.4729 2.1836 41
      vertex 55.4729 0.183599 41
      vertex 55.2817 2.977 41
    endloop
  endfacet
  facet normal 0 0 1
    outer loop
      vertex 55.4729 0.183599 41
      vertex 53.4729 2.1836 41
      vertex 53.5045 0.0204935 41
    endloop
  endfacet
  facet normal -0 0 1
    outer loop
      vertex 51.5045 2.02049 41
      vertex 53.5045 0.0204935 41
      vertex 53.4729 2.1836 41
    endloop
  endfacet
  facet normal -0 0 1
    outer loop
      vertex 7.50452 2.02049 41
      vertex 53.5045 0.0204935 41
      vertex 51.5045 2.02049 41
    endloop
  endfacet
  facet normal 0 0 1
    outer loop
      vertex 7.50452 2.02049 41
      vertex 5.50452 0.0204935 41
      vertex 53.5045 0.0204935 41
    endloop
  endfacet
  facet normal 0 0 1
    outer loop
      vertex 5.58983 2.50536 41
      vertex 5.50452 0.0204935 41
      vertex 7.50452 2.02049 41
    endloop
  endfacet
  facet normal 0 0 1
    outer loop
      vertex 3.58983 0.505361 41
      vertex 5.58983 2.50536 41
      vertex 3.93631 3.58566 41
    endloop
  endfacet
  facet normal 0 0 1
    outer loop
      vertex 5.58983 2.50536 41
      vertex 3.58983 0.505361 41
      vertex 5.50452 0.0204935 41
    endloop
  endfacet
  facet normal 0 0 1
    outer loop
      vertex 1.93631 1.58566 41
      vertex 3.93631 3.58566 41
      vertex 2.72316 5.14432 41
    endloop
  endfacet
  facet normal 0 0 1
    outer loop
      vertex 1.93631 1.58566 41
      vertex 2.72316 5.14432 41
      vertex 2.08183 7.01243 41
    endloop
  endfacet
  facet normal 0 0 1
    outer loop
      vertex 3.93631 3.58566 41
      vertex 1.93631 1.58566 41
      vertex 3.58983 0.505361 41
    endloop
  endfacet
  facet normal 0.879473 -0.475949 0
    outer loop
      vertex 58.7348 2.31472 41
      vertex 59.6749 4.0518 0
      vertex 59.6749 4.0518 41
    endloop
  endfacet
  facet normal 0.879473 -0.475949 0
    outer loop
      vertex 59.6749 4.0518 0
      vertex 58.7348 2.31472 41
      vertex 58.7348 2.31472 0
    endloop
  endfacet
  facet normal 0 0 -1
    outer loop
      vertex 53.5045 0.0204935 0
      vertex 60 6 0
      vertex 59.6749 4.0518 0
    endloop
  endfacet
  facet normal 0 0 -1
    outer loop
      vertex 50.5 41.5 0
      vertex 60 6 0
      vertex 50.5 11.5 0
    endloop
  endfacet
  facet normal 0 0 -1
    outer loop
      vertex 53.5045 0.0204935 0
      vertex 59.6749 4.0518 0
      vertex 58.7348 2.31472 0
    endloop
  endfacet
  facet normal 0 0 -1
    outer loop
      vertex 60 6 0
      vertex 50.5 41.5 0
      vertex 60 48 0
    endloop
  endfacet
  facet normal 0 0 -1
    outer loop
      vertex 53.5045 0.0204935 0
      vertex 58.7348 2.31472 0
      vertex 57.2817 0.977001 0
    endloop
  endfacet
  facet normal 0 -0 -1
    outer loop
      vertex 53.5045 53.9795 0
      vertex 60 48 0
      vertex 50.5 41.5 0
    endloop
  endfacet
  facet normal 0 0 -1
    outer loop
      vertex 53.5045 0.0204935 0
      vertex 57.2817 0.977001 0
      vertex 55.4729 0.183599 0
    endloop
  endfacet
  facet normal 0 0 -1
    outer loop
      vertex 60 48 0
      vertex 53.5045 53.9795 0
      vertex 59.6749 49.9482 0
    endloop
  endfacet
  facet normal -0 0 -1
    outer loop
      vertex 60 6 0
      vertex 53.5045 0.0204935 0
      vertex 50.5 11.5 0
    endloop
  endfacet
  facet normal 0 0 -1
    outer loop
      vertex 59.6749 49.9482 0
      vertex 53.5045 53.9795 0
      vertex 58.7348 51.6853 0
    endloop
  endfacet
  facet normal 0 0 -1
    outer loop
      vertex 58.7348 51.6853 0
      vertex 53.5045 53.9795 0
      vertex 57.2817 53.023 0
    endloop
  endfacet
  facet normal 0 0 -1
    outer loop
      vertex 12.5 5 0
      vertex 50.5 11.5 0
      vertex 53.5045 0.0204935 0
    endloop
  endfacet
  facet normal 0 0 -1
    outer loop
      vertex 11.7678 6.76777 0
      vertex 13.5 11.5 0
      vertex 12.5 5 0
    endloop
  endfacet
  facet normal -0 0 -1
    outer loop
      vertex 50.5 11.5 0
      vertex 12.5 5 0
      vertex 13.5 11.5 0
    endloop
  endfacet
  facet normal 0 0 -1
    outer loop
      vertex 53.5045 0.0204935 0
      vertex 11.7678 3.23223 0
      vertex 12.5 5 0
    endloop
  endfacet
  facet normal 0 0 -1
    outer loop
      vertex 5.50452 0.0204935 0
      vertex 11.7678 3.23223 0
      vertex 53.5045 0.0204935 0
    endloop
  endfacet
  facet normal -0 0 -1
    outer loop
      vertex 8.23223 3.23223 0
      vertex 5.50452 0.0204935 0
      vertex 7.5 5 0
    endloop
  endfacet
  facet normal -0 0 -1
    outer loop
      vertex 10 2.5 0
      vertex 5.50452 0.0204935 0
      vertex 8.23223 3.23223 0
    endloop
  endfacet
  facet normal 0 0 -1
    outer loop
      vertex 11.7678 3.23223 0
      vertex 5.50452 0.0204935 0
      vertex 10 2.5 0
    endloop
  endfacet
  facet normal 0 0 -1
    outer loop
      vertex 57.2817 53.023 0
      vertex 53.5045 53.9795 0
      vertex 55.4729 53.8164 0
    endloop
  endfacet
  facet normal 0 0 -1
    outer loop
      vertex 13.5 41.5 0
      vertex 53.5045 53.9795 0
      vertex 50.5 41.5 0
    endloop
  endfacet
  facet normal 0 0 -1
    outer loop
      vertex 10 7.5 0
      vertex 13.5 11.5 0
      vertex 11.7678 6.76777 0
    endloop
  endfacet
  facet normal 0 0 -1
    outer loop
      vertex 8.23223 6.76777 0
      vertex 13.5 11.5 0
      vertex 10 7.5 0
    endloop
  endfacet
  facet normal 0 0 -1
    outer loop
      vertex 0.0818329 5.01243 0
      vertex 13.5 11.5 0
      vertex 8.23223 6.76777 0
    endloop
  endfacet
  facet normal 0 0 -1
    outer loop
      vertex 0.0818329 5.01243 0
      vertex 8.23223 6.76777 0
      vertex 7.5 5 0
    endloop
  endfacet
  facet normal 0 0 -1
    outer loop
      vertex 3.58983 0.505361 0
      vertex 7.5 5 0
      vertex 5.50452 0.0204935 0
    endloop
  endfacet
  facet normal 0 0 -1
    outer loop
      vertex 13.5 41.5 0
      vertex 5.50452 53.9795 0
      vertex 53.5045 53.9795 0
    endloop
  endfacet
  facet normal -0 0 -1
    outer loop
      vertex 13.5 11.5 0
      vertex 0.0818329 5.01243 0
      vertex 13.5 41.5 0
    endloop
  endfacet
  facet normal 0 0 -1
    outer loop
      vertex 1.93631 1.58566 0
      vertex 7.5 5 0
      vertex 3.58983 0.505361 0
    endloop
  endfacet
  facet normal 0 0 -1
    outer loop
      vertex 0.0818329 48.9876 0
      vertex 13.5 41.5 0
      vertex 0.0818329 5.01243 0
    endloop
  endfacet
  facet normal 0 0 -1
    outer loop
      vertex 0.723158 3.14432 0
      vertex 7.5 5 0
      vertex 1.93631 1.58566 0
    endloop
  endfacet
  facet normal 0 0 -1
    outer loop
      vertex 13.5 41.5 0
      vertex 0.0818329 48.9876 0
      vertex 5.50452 53.9795 0
    endloop
  endfacet
  facet normal -0 0 -1
    outer loop
      vertex 7.5 5 0
      vertex 0.723158 3.14432 0
      vertex 0.0818329 5.01243 0
    endloop
  endfacet
  facet normal 0 0 -1
    outer loop
      vertex 5.50452 53.9795 0
      vertex 0.0818329 48.9876 0
      vertex 3.58983 53.4946 0
    endloop
  endfacet
  facet normal 0 0 -1
    outer loop
      vertex 3.58983 53.4946 0
      vertex 0.0818329 48.9876 0
      vertex 1.93631 52.4143 0
    endloop
  endfacet
  facet normal 0 0 -1
    outer loop
      vertex 1.93631 52.4143 0
      vertex 0.0818329 48.9876 0
      vertex 0.723158 50.8557 0
    endloop
  endfacet
  facet normal -0.945817 0.3247 0
    outer loop
      vertex 0.0818329 48.9876 0
      vertex 0.723158 50.8557 41
      vertex 0.723158 50.8557 0
    endloop
  endfacet
  facet normal -0.945817 0.3247 0
    outer loop
      vertex 0.723158 50.8557 41
      vertex 0.0818329 48.9876 0
      vertex 0.0818329 48.9876 41
    endloop
  endfacet
  facet normal -0.945817 -0.324699 0
    outer loop
      vertex 0.723158 3.14432 0
      vertex 0.0818329 5.01243 41
      vertex 0.0818329 5.01243 0
    endloop
  endfacet
  facet normal -0.945817 -0.324699 0
    outer loop
      vertex 0.0818329 5.01243 41
      vertex 0.723158 3.14432 0
      vertex 0.723158 3.14432 41
    endloop
  endfacet
  facet normal -1 0 0
    outer loop
      vertex 0.0818329 5.01243 0
      vertex 0.0818329 48.9876 41
      vertex 0.0818329 48.9876 0
    endloop
  endfacet
  facet normal -1 -0 0
    outer loop
      vertex 0.0818329 48.9876 41
      vertex 0.0818329 5.01243 0
      vertex 0.0818329 5.01243 41
    endloop
  endfacet
  facet normal 0 1 0
    outer loop
      vertex 53.5045 53.9795 41
      vertex 53 53.9795 19
      vertex 5.50452 53.9795 41
    endloop
  endfacet
  facet normal 0 1 0
    outer loop
      vertex 53.5045 53.9795 41
      vertex 53 53.9795 17
      vertex 53 53.9795 19
    endloop
  endfacet
  facet normal 0 1 0
    outer loop
      vertex 53 53.9795 17
      vertex 53.5045 53.9795 0
      vertex 6 53.9795 17
    endloop
  endfacet
  facet normal 0 1 -0
    outer loop
      vertex 53.5045 53.9795 0
      vertex 53 53.9795 17
      vertex 53.5045 53.9795 41
    endloop
  endfacet
  facet normal 0 1 -0
    outer loop
      vertex 6 53.9795 19
      vertex 5.50452 53.9795 41
      vertex 53 53.9795 19
    endloop
  endfacet
  facet normal 0 1 -0
    outer loop
      vertex 6 53.9795 17
      vertex 5.50452 53.9795 41
      vertex 6 53.9795 19
    endloop
  endfacet
  facet normal 0 1 0
    outer loop
      vertex 6 53.9795 17
      vertex 5.50452 53.9795 0
      vertex 5.50452 53.9795 41
    endloop
  endfacet
  facet normal 0 1 0
    outer loop
      vertex 5.50452 53.9795 0
      vertex 6 53.9795 17
      vertex 53.5045 53.9795 0
    endloop
  endfacet
  facet normal 0.677282 0.735723 -0
    outer loop
      vertex 58.7348 51.6853 0
      vertex 57.2817 53.023 41
      vertex 58.7348 51.6853 41
    endloop
  endfacet
  facet normal 0.677282 0.735723 0
    outer loop
      vertex 57.2817 53.023 41
      vertex 58.7348 51.6853 0
      vertex 57.2817 53.023 0
    endloop
  endfacet
  facet normal -0.245486 -0.9694 0
    outer loop
      vertex 3.58983 0.505361 0
      vertex 5.50452 0.0204935 41
      vertex 3.58983 0.505361 41
    endloop
  endfacet
  facet normal -0.245486 -0.9694 -0
    outer loop
      vertex 5.50452 0.0204935 41
      vertex 3.58983 0.505361 0
      vertex 5.50452 0.0204935 0
    endloop
  endfacet
  facet normal -0.789141 0.614212 0
    outer loop
      vertex 0.723158 50.8557 0
      vertex 1.93631 52.4143 41
      vertex 1.93631 52.4143 0
    endloop
  endfacet
  facet normal -0.789141 0.614212 0
    outer loop
      vertex 1.93631 52.4143 41
      vertex 0.723158 50.8557 0
      vertex 0.723158 50.8557 41
    endloop
  endfacet
  facet normal -0.546948 0.837167 0
    outer loop
      vertex 3.58983 53.4946 0
      vertex 1.93631 52.4143 41
      vertex 3.58983 53.4946 41
    endloop
  endfacet
  facet normal -0.546948 0.837167 0
    outer loop
      vertex 1.93631 52.4143 41
      vertex 3.58983 53.4946 0
      vertex 1.93631 52.4143 0
    endloop
  endfacet
  facet normal -0.245486 0.9694 0
    outer loop
      vertex 5.50452 53.9795 0
      vertex 3.58983 53.4946 41
      vertex 5.50452 53.9795 41
    endloop
  endfacet
  facet normal -0.245486 0.9694 0
    outer loop
      vertex 3.58983 53.4946 41
      vertex 5.50452 53.9795 0
      vertex 3.58983 53.4946 0
    endloop
  endfacet
  facet normal 0.986361 0.164594 0
    outer loop
      vertex 60 48 41
      vertex 59.6749 49.9482 0
      vertex 59.6749 49.9482 41
    endloop
  endfacet
  facet normal 0.986361 0.164594 0
    outer loop
      vertex 59.6749 49.9482 0
      vertex 60 48 41
      vertex 60 48 0
    endloop
  endfacet
  facet normal 0.677282 -0.735723 0
    outer loop
      vertex 57.2817 0.977001 0
      vertex 58.7348 2.31472 41
      vertex 57.2817 0.977001 41
    endloop
  endfacet
  facet normal 0.677282 -0.735723 0
    outer loop
      vertex 58.7348 2.31472 41
      vertex 57.2817 0.977001 0
      vertex 58.7348 2.31472 0
    endloop
  endfacet
  facet normal 0.0825792 0.996585 -0
    outer loop
      vertex 55.4729 53.8164 0
      vertex 53.5045 53.9795 41
      vertex 55.4729 53.8164 41
    endloop
  endfacet
  facet normal 0.0825792 0.996585 0
    outer loop
      vertex 53.5045 53.9795 41
      vertex 55.4729 53.8164 0
      vertex 53.5045 53.9795 0
    endloop
  endfacet
  facet normal 0.401696 0.915773 -0
    outer loop
      vertex 57.2817 53.023 0
      vertex 55.4729 53.8164 41
      vertex 57.2817 53.023 41
    endloop
  endfacet
  facet normal 0.401696 0.915773 0
    outer loop
      vertex 55.4729 53.8164 41
      vertex 57.2817 53.023 0
      vertex 55.4729 53.8164 0
    endloop
  endfacet
  facet normal 0.986361 -0.164594 0
    outer loop
      vertex 59.6749 4.0518 41
      vertex 60 6 0
      vertex 60 6 41
    endloop
  endfacet
  facet normal 0.986361 -0.164594 0
    outer loop
      vertex 60 6 0
      vertex 59.6749 4.0518 41
      vertex 59.6749 4.0518 0
    endloop
  endfacet
  facet normal 1 -0 0
    outer loop
      vertex 60 6 41
      vertex 60 48 0
      vertex 60 48 41
    endloop
  endfacet
  facet normal 1 0 0
    outer loop
      vertex 60 48 0
      vertex 60 6 41
      vertex 60 6 0
    endloop
  endfacet
  facet normal 0.879473 0.475949 0
    outer loop
      vertex 59.6749 49.9482 41
      vertex 58.7348 51.6853 0
      vertex 58.7348 51.6853 41
    endloop
  endfacet
  facet normal 0.879473 0.475949 0
    outer loop
      vertex 58.7348 51.6853 0
      vertex 59.6749 49.9482 41
      vertex 59.6749 49.9482 0
    endloop
  endfacet
  facet normal 0 -1 0
    outer loop
      vertex 5.50452 0.0204935 41
      vertex 6 0.0204935 19
      vertex 53.5045 0.0204935 41
    endloop
  endfacet
  facet normal 0 -1 0
    outer loop
      vertex 5.50452 0.0204935 41
      vertex 6 0.0204935 17
      vertex 6 0.0204935 19
    endloop
  endfacet
  facet normal 0 -1 -0
    outer loop
      vertex 6 0.0204935 17
      vertex 5.50452 0.0204935 0
      vertex 53 0.0204935 17
    endloop
  endfacet
  facet normal 0 -1 0
    outer loop
      vertex 5.50452 0.0204935 0
      vertex 6 0.0204935 17
      vertex 5.50452 0.0204935 41
    endloop
  endfacet
  facet normal 0 -1 0
    outer loop
      vertex 53 0.0204935 19
      vertex 53.5045 0.0204935 41
      vertex 6 0.0204935 19
    endloop
  endfacet
  facet normal 0 -1 0
    outer loop
      vertex 53 0.0204935 17
      vertex 53.5045 0.0204935 41
      vertex 53 0.0204935 19
    endloop
  endfacet
  facet normal 0 -1 0
    outer loop
      vertex 53 0.0204935 17
      vertex 53.5045 0.0204935 0
      vertex 53.5045 0.0204935 41
    endloop
  endfacet
  facet normal 0 -1 0
    outer loop
      vertex 53.5045 0.0204935 0
      vertex 53 0.0204935 17
      vertex 5.50452 0.0204935 0
    endloop
  endfacet
  facet normal -0.546948 -0.837166 0
    outer loop
      vertex 1.93631 1.58566 0
      vertex 3.58983 0.505361 41
      vertex 1.93631 1.58566 41
    endloop
  endfacet
  facet normal -0.546948 -0.837166 -0
    outer loop
      vertex 3.58983 0.505361 41
      vertex 1.93631 1.58566 0
      vertex 3.58983 0.505361 0
    endloop
  endfacet
  facet normal 0.401695 -0.915773 0
    outer loop
      vertex 55.4729 0.183599 0
      vertex 57.2817 0.977001 41
      vertex 55.4729 0.183599 41
    endloop
  endfacet
  facet normal 0.401695 -0.915773 0
    outer loop
      vertex 57.2817 0.977001 41
      vertex 55.4729 0.183599 0
      vertex 57.2817 0.977001 0
    endloop
  endfacet
  facet normal 0.0825792 -0.996585 0
    outer loop
      vertex 53.5045 0.0204935 0
      vertex 55.4729 0.183599 41
      vertex 53.5045 0.0204935 41
    endloop
  endfacet
  facet normal 0.0825792 -0.996585 0
    outer loop
      vertex 55.4729 0.183599 41
      vertex 53.5045 0.0204935 0
      vertex 55.4729 0.183599 0
    endloop
  endfacet
  facet normal 0.78914 0.614213 0
    outer loop
      vertex 3.93631 3.58566 41
      vertex 2.72316 5.14432 0.5
      vertex 2.72316 5.14432 41
    endloop
  endfacet
  facet normal 0.78914 0.614213 0
    outer loop
      vertex 2.72316 5.14432 0.5
      vertex 3.93631 3.58566 41
      vertex 3.93631 3.58566 0.5
    endloop
  endfacet
  facet normal -0.879473 0.475949 0
    outer loop
      vertex 56.7348 4.31472 0.5
      vertex 57.6749 6.0518 41
      vertex 57.6749 6.0518 0.5
    endloop
  endfacet
  facet normal -0.879473 0.475949 0
    outer loop
      vertex 57.6749 6.0518 41
      vertex 56.7348 4.31472 0.5
      vertex 56.7348 4.31472 41
    endloop
  endfacet
  facet normal 0 0 1
    outer loop
      vertex 50.5 41.5 0.5
      vertex 58 44 0.5
      vertex 58 46 0.5
    endloop
  endfacet
  facet normal 0 0 1
    outer loop
      vertex 58 44 0.5
      vertex 50.5 41.5 0.5
      vertex 58 9 0.5
    endloop
  endfacet
  facet normal 0 0 1
    outer loop
      vertex 50.5 41.5 0.5
      vertex 58 46 0.5
      vertex 57.6749 47.9482 0.5
    endloop
  endfacet
  facet normal -0 0 1
    outer loop
      vertex 50.5 11.5 0.5
      vertex 58 9 0.5
      vertex 50.5 41.5 0.5
    endloop
  endfacet
  facet normal 0 0 1
    outer loop
      vertex 50.5 41.5 0.5
      vertex 57.6749 47.9482 0.5
      vertex 56.7348 49.6853 0.5
    endloop
  endfacet
  facet normal 0 0 1
    outer loop
      vertex 58 9 0.5
      vertex 50.5 11.5 0.5
      vertex 58 8 0.5
    endloop
  endfacet
  facet normal 0 0 1
    outer loop
      vertex 50.5 41.5 0.5
      vertex 56.7348 49.6853 0.5
      vertex 55.2817 51.023 0.5
    endloop
  endfacet
  facet normal 0 0 1
    outer loop
      vertex 58 8 0.5
      vertex 50.5 11.5 0.5
      vertex 57.6749 6.0518 0.5
    endloop
  endfacet
  facet normal 0 0 1
    outer loop
      vertex 50.5 41.5 0.5
      vertex 55.2817 51.023 0.5
      vertex 53.4729 51.8164 0.5
    endloop
  endfacet
  facet normal 0 0 1
    outer loop
      vertex 57.6749 6.0518 0.5
      vertex 50.5 11.5 0.5
      vertex 56.7348 4.31472 0.5
    endloop
  endfacet
  facet normal 0 0 1
    outer loop
      vertex 50.5 41.5 0.5
      vertex 53.4729 51.8164 0.5
      vertex 51.5045 51.9795 0.5
    endloop
  endfacet
  facet normal 0 0 1
    outer loop
      vertex 56.7348 4.31472 0.5
      vertex 50.5 11.5 0.5
      vertex 55.2817 2.977 0.5
    endloop
  endfacet
  facet normal 0 0 1
    outer loop
      vertex 55.2817 2.977 0.5
      vertex 50.5 11.5 0.5
      vertex 53.4729 2.1836 0.5
    endloop
  endfacet
  facet normal 0 0 1
    outer loop
      vertex 51.5045 51.9795 0.5
      vertex 13.5 41.5 0.5
      vertex 50.5 41.5 0.5
    endloop
  endfacet
  facet normal 0 0 1
    outer loop
      vertex 2.08183 9 0.5
      vertex 13.5 11.5 0.5
      vertex 13.5 41.5 0.5
    endloop
  endfacet
  facet normal 0 0 1
    outer loop
      vertex 13.5 11.5 0.5
      vertex 12 8 0.5
      vertex 12.5 5 0.5
    endloop
  endfacet
  facet normal 0 0 1
    outer loop
      vertex 13.5 11.5 0.5
      vertex 8 8 0.5
      vertex 12 8 0.5
    endloop
  endfacet
  facet normal -0 0 1
    outer loop
      vertex 7.50452 51.9795 0.5
      vertex 13.5 41.5 0.5
      vertex 51.5045 51.9795 0.5
    endloop
  endfacet
  facet normal -0 0 1
    outer loop
      vertex 2.08183 44 0.5
      vertex 13.5 41.5 0.5
      vertex 7.50452 51.9795 0.5
    endloop
  endfacet
  facet normal 0 0 1
    outer loop
      vertex 2.08183 9 0.5
      vertex 13.5 41.5 0.5
      vertex 2.08183 44 0.5
    endloop
  endfacet
  facet normal 0 0 1
    outer loop
      vertex 13.5 11.5 0.5
      vertex 2.08183 9 0.5
      vertex 8 8 0.5
    endloop
  endfacet
  facet normal 0 0 1
    outer loop
      vertex 2.08183 46.9876 0.5
      vertex 7.50452 51.9795 0.5
      vertex 5.58983 51.4946 0.5
    endloop
  endfacet
  facet normal -0 0 1
    outer loop
      vertex 58 44 0.5
      vertex 59 9 0.5
      vertex 59 44 0.5
    endloop
  endfacet
  facet normal 0 0 1
    outer loop
      vertex 59 9 0.5
      vertex 58 44 0.5
      vertex 58 9 0.5
    endloop
  endfacet
  facet normal 0 0 1
    outer loop
      vertex 53.4729 2.1836 0.5
      vertex 50.5 11.5 0.5
      vertex 51.5045 2.02049 0.5
    endloop
  endfacet
  facet normal 0 0 1
    outer loop
      vertex 12.5 5 0.5
      vertex 50.5 11.5 0.5
      vertex 13.5 11.5 0.5
    endloop
  endfacet
  facet normal 0 0 1
    outer loop
      vertex 50.5 11.5 0.5
      vertex 12.5 5 0.5
      vertex 51.5045 2.02049 0.5
    endloop
  endfacet
  facet normal 0 0 1
    outer loop
      vertex 12 2.02049 0.5
      vertex 12.5 5 0.5
      vertex 12 3.79289 0.5
    endloop
  endfacet
  facet normal 0 0 1
    outer loop
      vertex 12.5 5 0.5
      vertex 12 2.02049 0.5
      vertex 51.5045 2.02049 0.5
    endloop
  endfacet
  facet normal 0 0 1
    outer loop
      vertex 12.5 5 0.5
      vertex 12 8 0.5
      vertex 12 6.20711 0.5
    endloop
  endfacet
  facet normal 0 0 1
    outer loop
      vertex 8 3.79289 0.5
      vertex 7.50452 2.02049 0.5
      vertex 8 2.02049 0.5
    endloop
  endfacet
  facet normal 0 0 1
    outer loop
      vertex 5.58983 2.50536 0.5
      vertex 8 3.79289 0.5
      vertex 7.5 5 0.5
    endloop
  endfacet
  facet normal 0 0 1
    outer loop
      vertex 2.08183 7.01243 0.5
      vertex 8 8 0.5
      vertex 2.08183 9 0.5
    endloop
  endfacet
  facet normal 0 0 1
    outer loop
      vertex 8 8 0.5
      vertex 2.08183 7.01243 0.5
      vertex 8 6.20711 0.5
    endloop
  endfacet
  facet normal 0 0 1
    outer loop
      vertex 2.08183 46.9876 0.5
      vertex 5.58983 51.4946 0.5
      vertex 3.93631 50.4143 0.5
    endloop
  endfacet
  facet normal 0 -0 1
    outer loop
      vertex 2.72316 5.14432 0.5
      vertex 8 6.20711 0.5
      vertex 2.08183 7.01243 0.5
    endloop
  endfacet
  facet normal 0 0 1
    outer loop
      vertex 2.08183 46.9876 0.5
      vertex 3.93631 50.4143 0.5
      vertex 2.72316 48.8557 0.5
    endloop
  endfacet
  facet normal 0 0 1
    outer loop
      vertex 8 3.79289 0.5
      vertex 5.58983 2.50536 0.5
      vertex 7.50452 2.02049 0.5
    endloop
  endfacet
  facet normal 0 0 1
    outer loop
      vertex 7.50452 51.9795 0.5
      vertex 2.08183 46.9876 0.5
      vertex 2.08183 44 0.5
    endloop
  endfacet
  facet normal 0 0 1
    outer loop
      vertex 7.5 5 0.5
      vertex 3.93631 3.58566 0.5
      vertex 5.58983 2.50536 0.5
    endloop
  endfacet
  facet normal 0 0 1
    outer loop
      vertex 7.5 5 0.5
      vertex 2.72316 5.14432 0.5
      vertex 3.93631 3.58566 0.5
    endloop
  endfacet
  facet normal 0 0 1
    outer loop
      vertex 8 6.20711 0.5
      vertex 2.72316 5.14432 0.5
      vertex 7.5 5 0.5
    endloop
  endfacet
  facet normal -0 0 1
    outer loop
      vertex 1 44 0.5
      vertex 2.08183 9 0.5
      vertex 2.08183 44 0.5
    endloop
  endfacet
  facet normal 0 0 1
    outer loop
      vertex 2.08183 9 0.5
      vertex 1 44 0.5
      vertex 1 9 0.5
    endloop
  endfacet
  facet normal 0 0 -1
    outer loop
      vertex 10 2.5 0.5
      vertex 12 3.79289 0.5
      vertex 11.7678 3.23223 0.5
    endloop
  endfacet
  facet normal -0 0 -1
    outer loop
      vertex 12 3.79289 0.5
      vertex 8 3.79289 0.5
      vertex 12 6.20711 0.5
    endloop
  endfacet
  facet normal 0 0 -1
    outer loop
      vertex 12 3.79289 0.5
      vertex 10 2.5 0.5
      vertex 8 3.79289 0.5
    endloop
  endfacet
  facet normal 0 0 -1
    outer loop
      vertex 8 6.20711 0.5
      vertex 12 6.20711 0.5
      vertex 8 3.79289 0.5
    endloop
  endfacet
  facet normal 0 0 -1
    outer loop
      vertex 8 3.79289 0.5
      vertex 10 2.5 0.5
      vertex 8.23223 3.23223 0.5
    endloop
  endfacet
  facet normal 0 -0 -1
    outer loop
      vertex 10 7.5 0.5
      vertex 12 6.20711 0.5
      vertex 8 6.20711 0.5
    endloop
  endfacet
  facet normal 0 0 -1
    outer loop
      vertex 12 6.20711 0.5
      vertex 10 7.5 0.5
      vertex 11.7678 6.76777 0.5
    endloop
  endfacet
  facet normal 0 0 -1
    outer loop
      vertex 10 7.5 0.5
      vertex 8 6.20711 0.5
      vertex 8.23223 6.76777 0.5
    endloop
  endfacet
  facet normal 0.945817 -0.3247 0
    outer loop
      vertex 2.08183 46.9876 41
      vertex 2.72316 48.8557 0.5
      vertex 2.72316 48.8557 41
    endloop
  endfacet
  facet normal 0.945817 -0.3247 0
    outer loop
      vertex 2.72316 48.8557 0.5
      vertex 2.08183 46.9876 41
      vertex 2.08183 46.9876 0.5
    endloop
  endfacet
  facet normal 0.945817 0.324699 0
    outer loop
      vertex 2.72316 5.14432 41
      vertex 2.08183 7.01243 0.5
      vertex 2.08183 7.01243 41
    endloop
  endfacet
  facet normal 0.945817 0.324699 0
    outer loop
      vertex 2.08183 7.01243 0.5
      vertex 2.72316 5.14432 41
      vertex 2.72316 5.14432 0.5
    endloop
  endfacet
  facet normal 1 0 0
    outer loop
      vertex 2.08183 9 41
      vertex 2.08183 8 5
      vertex 2.08183 9 5
    endloop
  endfacet
  facet normal 1 0 0
    outer loop
      vertex 2.08183 7.01243 0.5
      vertex 2.08183 8 5
      vertex 2.08183 7.01243 41
    endloop
  endfacet
  facet normal 1 -0 0
    outer loop
      vertex 2.08183 7.01243 41
      vertex 2.08183 8 5
      vertex 2.08183 9 41
    endloop
  endfacet
  facet normal 1 -0 0
    outer loop
      vertex 2.08183 8 1
      vertex 2.08183 9 0.5
      vertex 2.08183 9 1
    endloop
  endfacet
  facet normal 1 0 0
    outer loop
      vertex 2.08183 8 1
      vertex 2.08183 7.01243 0.5
      vertex 2.08183 9 0.5
    endloop
  endfacet
  facet normal 1 0 0
    outer loop
      vertex 2.08183 8 5
      vertex 2.08183 7.01243 0.5
      vertex 2.08183 8 1
    endloop
  endfacet
  facet normal 1 0 0
    outer loop
      vertex 2.08183 46.9876 41
      vertex 2.08183 45 5
      vertex 2.08183 46.9876 0.5
    endloop
  endfacet
  facet normal 1 -0 0
    outer loop
      vertex 2.08183 44 41
      vertex 2.08183 45 5
      vertex 2.08183 46.9876 41
    endloop
  endfacet
  facet normal 1 0 0
    outer loop
      vertex 2.08183 45 5
      vertex 2.08183 44 41
      vertex 2.08183 44 5
    endloop
  endfacet
  facet normal 1 -0 0
    outer loop
      vertex 2.08183 45 1
      vertex 2.08183 46.9876 0.5
      vertex 2.08183 45 5
    endloop
  endfacet
  facet normal 1 0 0
    outer loop
      vertex 2.08183 44 0.5
      vertex 2.08183 45 1
      vertex 2.08183 44 1
    endloop
  endfacet
  facet normal 1 0 0
    outer loop
      vertex 2.08183 45 1
      vertex 2.08183 44 0.5
      vertex 2.08183 46.9876 0.5
    endloop
  endfacet
  facet normal 0 -1 0
    outer loop
      vertex 7.50452 51.9795 0.5
      vertex 51.5045 51.9795 41
      vertex 7.50452 51.9795 41
    endloop
  endfacet
  facet normal 0 -1 -0
    outer loop
      vertex 51.5045 51.9795 41
      vertex 7.50452 51.9795 0.5
      vertex 51.5045 51.9795 0.5
    endloop
  endfacet
  facet normal -0.677282 -0.735723 0
    outer loop
      vertex 55.2817 51.023 0.5
      vertex 56.7348 49.6853 41
      vertex 55.2817 51.023 41
    endloop
  endfacet
  facet normal -0.677282 -0.735723 -0
    outer loop
      vertex 56.7348 49.6853 41
      vertex 55.2817 51.023 0.5
      vertex 56.7348 49.6853 0.5
    endloop
  endfacet
  facet normal 0.245486 0.9694 -0
    outer loop
      vertex 7.50452 2.02049 0.5
      vertex 5.58983 2.50536 41
      vertex 7.50452 2.02049 41
    endloop
  endfacet
  facet normal 0.245486 0.9694 0
    outer loop
      vertex 5.58983 2.50536 41
      vertex 7.50452 2.02049 0.5
      vertex 5.58983 2.50536 0.5
    endloop
  endfacet
  facet normal 0.789141 -0.614212 0
    outer loop
      vertex 2.72316 48.8557 41
      vertex 3.93631 50.4143 0.5
      vertex 3.93631 50.4143 41
    endloop
  endfacet
  facet normal 0.789141 -0.614212 0
    outer loop
      vertex 3.93631 50.4143 0.5
      vertex 2.72316 48.8557 41
      vertex 2.72316 48.8557 0.5
    endloop
  endfacet
  facet normal 0.546948 -0.837167 0
    outer loop
      vertex 3.93631 50.4143 0.5
      vertex 5.58983 51.4946 41
      vertex 3.93631 50.4143 41
    endloop
  endfacet
  facet normal 0.546948 -0.837167 0
    outer loop
      vertex 5.58983 51.4946 41
      vertex 3.93631 50.4143 0.5
      vertex 5.58983 51.4946 0.5
    endloop
  endfacet
  facet normal 0.245486 -0.9694 0
    outer loop
      vertex 5.58983 51.4946 0.5
      vertex 7.50452 51.9795 41
      vertex 5.58983 51.4946 41
    endloop
  endfacet
  facet normal 0.245486 -0.9694 0
    outer loop
      vertex 7.50452 51.9795 41
      vertex 5.58983 51.4946 0.5
      vertex 7.50452 51.9795 0.5
    endloop
  endfacet
  facet normal -0.986361 -0.164594 0
    outer loop
      vertex 58 46 0.5
      vertex 57.6749 47.9482 41
      vertex 57.6749 47.9482 0.5
    endloop
  endfacet
  facet normal -0.986361 -0.164594 0
    outer loop
      vertex 57.6749 47.9482 41
      vertex 58 46 0.5
      vertex 58 46 41
    endloop
  endfacet
  facet normal -0.677282 0.735723 0
    outer loop
      vertex 56.7348 4.31472 0.5
      vertex 55.2817 2.977 41
      vertex 56.7348 4.31472 41
    endloop
  endfacet
  facet normal -0.677282 0.735723 0
    outer loop
      vertex 55.2817 2.977 41
      vertex 56.7348 4.31472 0.5
      vertex 55.2817 2.977 0.5
    endloop
  endfacet
  facet normal -0.0825792 -0.996585 0
    outer loop
      vertex 51.5045 51.9795 0.5
      vertex 53.4729 51.8164 41
      vertex 51.5045 51.9795 41
    endloop
  endfacet
  facet normal -0.0825792 -0.996585 -0
    outer loop
      vertex 53.4729 51.8164 41
      vertex 51.5045 51.9795 0.5
      vertex 53.4729 51.8164 0.5
    endloop
  endfacet
  facet normal -0.401696 -0.915773 0
    outer loop
      vertex 53.4729 51.8164 0.5
      vertex 55.2817 51.023 41
      vertex 53.4729 51.8164 41
    endloop
  endfacet
  facet normal -0.401696 -0.915773 -0
    outer loop
      vertex 55.2817 51.023 41
      vertex 53.4729 51.8164 0.5
      vertex 55.2817 51.023 0.5
    endloop
  endfacet
  facet normal -0.986361 0.164594 0
    outer loop
      vertex 57.6749 6.0518 0.5
      vertex 58 8 1
      vertex 58 8 0.5
    endloop
  endfacet
  facet normal -0.986361 0.164594 0
    outer loop
      vertex 58 8 1
      vertex 57.6749 6.0518 0.5
      vertex 58 8 5
    endloop
  endfacet
  facet normal -0.986361 0.164594 0
    outer loop
      vertex 57.6749 6.0518 41
      vertex 58 8 5
      vertex 57.6749 6.0518 0.5
    endloop
  endfacet
  facet normal -0.986361 0.164594 0
    outer loop
      vertex 58 8 5
      vertex 57.6749 6.0518 41
      vertex 58 8 41
    endloop
  endfacet
  facet normal -1 0 0
    outer loop
      vertex 58 45 5
      vertex 58 46 0.5
      vertex 58 45 1
    endloop
  endfacet
  facet normal -1 0 0
    outer loop
      vertex 58 44 0.5
      vertex 58 45 1
      vertex 58 46 0.5
    endloop
  endfacet
  facet normal -1 -0 0
    outer loop
      vertex 58 45 1
      vertex 58 44 0.5
      vertex 58 44 1
    endloop
  endfacet
  facet normal -1 0 0
    outer loop
      vertex 58 46 0.5
      vertex 58 45 5
      vertex 58 46 41
    endloop
  endfacet
  facet normal -1 0 0
    outer loop
      vertex 58 44 41
      vertex 58 45 5
      vertex 58 44 5
    endloop
  endfacet
  facet normal -1 0 0
    outer loop
      vertex 58 45 5
      vertex 58 44 41
      vertex 58 46 41
    endloop
  endfacet
  facet normal -1 0 0
    outer loop
      vertex 58 8 5
      vertex 58 9 41
      vertex 58 9 5
    endloop
  endfacet
  facet normal -1 -0 0
    outer loop
      vertex 58 9 41
      vertex 58 8 5
      vertex 58 8 41
    endloop
  endfacet
  facet normal -1 0 0
    outer loop
      vertex 58 8 0.5
      vertex 58 9 1
      vertex 58 9 0.5
    endloop
  endfacet
  facet normal -1 -0 0
    outer loop
      vertex 58 9 1
      vertex 58 8 0.5
      vertex 58 8 1
    endloop
  endfacet
  facet normal -0.879473 -0.475949 0
    outer loop
      vertex 57.6749 47.9482 0.5
      vertex 56.7348 49.6853 41
      vertex 56.7348 49.6853 0.5
    endloop
  endfacet
  facet normal -0.879473 -0.475949 0
    outer loop
      vertex 56.7348 49.6853 41
      vertex 57.6749 47.9482 0.5
      vertex 57.6749 47.9482 41
    endloop
  endfacet
  facet normal 0 1 0
    outer loop
      vertex 51.5045 2.02049 41
      vertex 12 2.02049 1.5
      vertex 7.50452 2.02049 41
    endloop
  endfacet
  facet normal 0 1 -0
    outer loop
      vertex 51.5045 2.02049 0.5
      vertex 12 2.02049 1.5
      vertex 51.5045 2.02049 41
    endloop
  endfacet
  facet normal 0 1 0
    outer loop
      vertex 12 2.02049 1.5
      vertex 51.5045 2.02049 0.5
      vertex 12 2.02049 0.5
    endloop
  endfacet
  facet normal 0 1 -0
    outer loop
      vertex 8 2.02049 1.5
      vertex 7.50452 2.02049 41
      vertex 12 2.02049 1.5
    endloop
  endfacet
  facet normal 0 1 0
    outer loop
      vertex 7.50452 2.02049 0.5
      vertex 8 2.02049 1.5
      vertex 8 2.02049 0.5
    endloop
  endfacet
  facet normal 0 1 0
    outer loop
      vertex 8 2.02049 1.5
      vertex 7.50452 2.02049 0.5
      vertex 7.50452 2.02049 41
    endloop
  endfacet
  facet normal 0.546948 0.837166 -0
    outer loop
      vertex 5.58983 2.50536 0.5
      vertex 3.93631 3.58566 41
      vertex 5.58983 2.50536 41
    endloop
  endfacet
  facet normal 0.546948 0.837166 0
    outer loop
      vertex 3.93631 3.58566 41
      vertex 5.58983 2.50536 0.5
      vertex 3.93631 3.58566 0.5
    endloop
  endfacet
  facet normal -0.401695 0.915773 0
    outer loop
      vertex 55.2817 2.977 0.5
      vertex 53.4729 2.1836 41
      vertex 55.2817 2.977 41
    endloop
  endfacet
  facet normal -0.401695 0.915773 0
    outer loop
      vertex 53.4729 2.1836 41
      vertex 55.2817 2.977 0.5
      vertex 53.4729 2.1836 0.5
    endloop
  endfacet
  facet normal -0.0825792 0.996585 0
    outer loop
      vertex 53.4729 2.1836 0.5
      vertex 51.5045 2.02049 41
      vertex 53.4729 2.1836 41
    endloop
  endfacet
  facet normal -0.0825792 0.996585 0
    outer loop
      vertex 51.5045 2.02049 41
      vertex 53.4729 2.1836 0.5
      vertex 51.5045 2.02049 0.5
    endloop
  endfacet
  facet normal 1 0 0
    outer loop
      vertex 1 9 5
      vertex 1 44 5
      vertex 1 44 41
    endloop
  endfacet
  facet normal 1 0 0
    outer loop
      vertex 1 9 5
      vertex 1 44 41
      vertex 1 9 41
    endloop
  endfacet
  facet normal 1 0 0
    outer loop
      vertex 1 44 5
      vertex 1 9 5
      vertex 1 44 3
    endloop
  endfacet
  facet normal 1 0 0
    outer loop
      vertex 1 44 3
      vertex 1 9 5
      vertex 1 9 3
    endloop
  endfacet
  facet normal 1 -0 0
    outer loop
      vertex 1 9 1
      vertex 1 44 0.5
      vertex 1 44 1
    endloop
  endfacet
  facet normal 1 0 0
    outer loop
      vertex 1 44 0.5
      vertex 1 9 1
      vertex 1 9 0.5
    endloop
  endfacet
  facet normal -1 0 0
    outer loop
      vertex 59 9 3
      vertex 59 44 41
      vertex 59 44 3
    endloop
  endfacet
  facet normal -1 -0 0
    outer loop
      vertex 59 44 41
      vertex 59 9 3
      vertex 59 9 41
    endloop
  endfacet
  facet normal -1 0 0
    outer loop
      vertex 59 9 0.5
      vertex 59 44 1
      vertex 59 44 0.5
    endloop
  endfacet
  facet normal -1 -0 0
    outer loop
      vertex 59 44 1
      vertex 59 9 0.5
      vertex 59 9 1
    endloop
  endfacet
  facet normal 0 1 0
    outer loop
      vertex 59 9 41
      vertex 58 9 5
      vertex 58 9 41
    endloop
  endfacet
  facet normal 0 1 -0
    outer loop
      vertex 59 9 3
      vertex 58 9 5
      vertex 59 9 41
    endloop
  endfacet
  facet normal 0 1 0
    outer loop
      vertex 58 9 5
      vertex 59 9 3
      vertex 58 9 3
    endloop
  endfacet
  facet normal 0 1 -0
    outer loop
      vertex 54 9 1
      vertex 6 9 3
      vertex 54 9 3
    endloop
  endfacet
  facet normal 0 1 0
    outer loop
      vertex 6 9 3
      vertex 54 9 1
      vertex 6 9 1
    endloop
  endfacet
  facet normal 0 1 -0
    outer loop
      vertex 6 9 3
      vertex 2.08183 9 5
      vertex 58 9 5
    endloop
  endfacet
  facet normal 0 1 0
    outer loop
      vertex 54 9 3
      vertex 58 9 5
      vertex 58 9 3
    endloop
  endfacet
  facet normal 0 1 0
    outer loop
      vertex 6 9 3
      vertex 58 9 5
      vertex 54 9 3
    endloop
  endfacet
  facet normal 0 1 0
    outer loop
      vertex 1 9 3
      vertex 2.08183 9 5
      vertex 6 9 3
    endloop
  endfacet
  facet normal 0 1 0
    outer loop
      vertex 2.08183 9 5
      vertex 1 9 3
      vertex 1 9 5
    endloop
  endfacet
  facet normal 0 1 -0
    outer loop
      vertex 2.08183 9 0.5
      vertex 1 9 1
      vertex 2.08183 9 1
    endloop
  endfacet
  facet normal 0 1 0
    outer loop
      vertex 1 9 1
      vertex 2.08183 9 0.5
      vertex 1 9 0.5
    endloop
  endfacet
  facet normal 0 1 -0
    outer loop
      vertex 59 9 0.5
      vertex 58 9 1
      vertex 59 9 1
    endloop
  endfacet
  facet normal 0 1 0
    outer loop
      vertex 58 9 1
      vertex 59 9 0.5
      vertex 58 9 0.5
    endloop
  endfacet
  facet normal 0 1 -0
    outer loop
      vertex 2.08183 9 5
      vertex 1 9 41
      vertex 2.08183 9 41
    endloop
  endfacet
  facet normal 0 1 0
    outer loop
      vertex 1 9 41
      vertex 2.08183 9 5
      vertex 1 9 5
    endloop
  endfacet
  facet normal 0 -1 0
    outer loop
      vertex 1 44 5
      vertex 2.08183 44 41
      vertex 1 44 41
    endloop
  endfacet
  facet normal 0 -1 -0
    outer loop
      vertex 2.08183 44 41
      vertex 1 44 5
      vertex 2.08183 44 5
    endloop
  endfacet
  facet normal 0 -1 0
    outer loop
      vertex 6 44 1
      vertex 54 44 3
      vertex 6 44 3
    endloop
  endfacet
  facet normal 0 -1 -0
    outer loop
      vertex 54 44 3
      vertex 6 44 1
      vertex 54 44 1
    endloop
  endfacet
  facet normal 0 -1 0
    outer loop
      vertex 1 44 3
      vertex 2.08183 44 5
      vertex 1 44 5
    endloop
  endfacet
  facet normal 0 -1 -0
    outer loop
      vertex 2.08183 44 5
      vertex 1 44 3
      vertex 6 44 3
    endloop
  endfacet
  facet normal 0 -1 0
    outer loop
      vertex 2.08183 44 5
      vertex 6 44 3
      vertex 58 44 5
    endloop
  endfacet
  facet normal 0 -1 0
    outer loop
      vertex 54 44 3
      vertex 58 44 5
      vertex 6 44 3
    endloop
  endfacet
  facet normal 0 -1 -0
    outer loop
      vertex 58 44 5
      vertex 54 44 3
      vertex 58 44 3
    endloop
  endfacet
  facet normal 0 -1 0
    outer loop
      vertex 58 44 5
      vertex 59 44 41
      vertex 58 44 41
    endloop
  endfacet
  facet normal 0 -1 0
    outer loop
      vertex 59 44 3
      vertex 58 44 5
      vertex 58 44 3
    endloop
  endfacet
  facet normal 0 -1 0
    outer loop
      vertex 58 44 5
      vertex 59 44 3
      vertex 59 44 41
    endloop
  endfacet
  facet normal 0 -1 0
    outer loop
      vertex 1 44 0.5
      vertex 2.08183 44 1
      vertex 1 44 1
    endloop
  endfacet
  facet normal 0 -1 -0
    outer loop
      vertex 2.08183 44 1
      vertex 1 44 0.5
      vertex 2.08183 44 0.5
    endloop
  endfacet
  facet normal 0 -1 0
    outer loop
      vertex 58 44 0.5
      vertex 59 44 1
      vertex 58 44 1
    endloop
  endfacet
  facet normal 0 -1 -0
    outer loop
      vertex 59 44 1
      vertex 58 44 0.5
      vertex 59 44 0.5
    endloop
  endfacet
  facet normal 1 -0 0
    outer loop
      vertex 13.5 11.5 0.5
      vertex 13.5 41.5 0
      vertex 13.5 41.5 0.5
    endloop
  endfacet
  facet normal 1 0 0
    outer loop
      vertex 13.5 41.5 0
      vertex 13.5 11.5 0.5
      vertex 13.5 11.5 0
    endloop
  endfacet
  facet normal -1 0 0
    outer loop
      vertex 50.5 11.5 0
      vertex 50.5 41.5 0.5
      vertex 50.5 41.5 0
    endloop
  endfacet
  facet normal -1 -0 0
    outer loop
      vertex 50.5 41.5 0.5
      vertex 50.5 11.5 0
      vertex 50.5 11.5 0.5
    endloop
  endfacet
  facet normal 0 1 -0
    outer loop
      vertex 50.5 11.5 0
      vertex 13.5 11.5 0.5
      vertex 50.5 11.5 0.5
    endloop
  endfacet
  facet normal 0 1 0
    outer loop
      vertex 13.5 11.5 0.5
      vertex 50.5 11.5 0
      vertex 13.5 11.5 0
    endloop
  endfacet
  facet normal 0 -1 0
    outer loop
      vertex 13.5 41.5 0
      vertex 50.5 41.5 0.5
      vertex 13.5 41.5 0.5
    endloop
  endfacet
  facet normal 0 -1 -0
    outer loop
      vertex 50.5 41.5 0.5
      vertex 13.5 41.5 0
      vertex 50.5 41.5 0
    endloop
  endfacet
  facet normal 1 -0 0
    outer loop
      vertex 6 0.0204935 19
      vertex 6 2 17
      vertex 6 2 19
    endloop
  endfacet
  facet normal 1 0 0
    outer loop
      vertex 6 2 17
      vertex 6 0.0204935 19
      vertex 6 0.0204935 17
    endloop
  endfacet
  facet normal 0 0 -1
    outer loop
      vertex 6 0.0204935 19
      vertex 53 2 19
      vertex 53 0.0204935 19
    endloop
  endfacet
  facet normal -0 0 -1
    outer loop
      vertex 53 2 19
      vertex 6 0.0204935 19
      vertex 6 2 19
    endloop
  endfacet
  facet normal -1 0 0
    outer loop
      vertex 53 0.0204935 17
      vertex 53 2 19
      vertex 53 2 17
    endloop
  endfacet
  facet normal -1 -0 0
    outer loop
      vertex 53 2 19
      vertex 53 0.0204935 17
      vertex 53 0.0204935 19
    endloop
  endfacet
  facet normal 0 -1 0
    outer loop
      vertex 6 2 17
      vertex 53 2 19
      vertex 6 2 19
    endloop
  endfacet
  facet normal 0 -1 -0
    outer loop
      vertex 53 2 19
      vertex 6 2 17
      vertex 53 2 17
    endloop
  endfacet
  facet normal -0 0 1
    outer loop
      vertex 6 2 17
      vertex 53 0.0204935 17
      vertex 53 2 17
    endloop
  endfacet
  facet normal 0 0 1
    outer loop
      vertex 53 0.0204935 17
      vertex 6 2 17
      vertex 6 0.0204935 17
    endloop
  endfacet
  facet normal 1 -0 0
    outer loop
      vertex 6 52 19
      vertex 6 53.9795 17
      vertex 6 53.9795 19
    endloop
  endfacet
  facet normal 1 0 0
    outer loop
      vertex 6 53.9795 17
      vertex 6 52 19
      vertex 6 52 17
    endloop
  endfacet
  facet normal 0 0 -1
    outer loop
      vertex 6 52 19
      vertex 53 53.9795 19
      vertex 53 52 19
    endloop
  endfacet
  facet normal -0 0 -1
    outer loop
      vertex 53 53.9795 19
      vertex 6 52 19
      vertex 6 53.9795 19
    endloop
  endfacet
  facet normal -1 0 0
    outer loop
      vertex 53 52 17
      vertex 53 53.9795 19
      vertex 53 53.9795 17
    endloop
  endfacet
  facet normal -1 -0 0
    outer loop
      vertex 53 53.9795 19
      vertex 53 52 17
      vertex 53 52 19
    endloop
  endfacet
  facet normal -0 0 1
    outer loop
      vertex 6 53.9795 17
      vertex 53 52 17
      vertex 53 53.9795 17
    endloop
  endfacet
  facet normal 0 0 1
    outer loop
      vertex 53 52 17
      vertex 6 53.9795 17
      vertex 6 52 17
    endloop
  endfacet
  facet normal 0 1 -0
    outer loop
      vertex 53 52 17
      vertex 6 52 19
      vertex 53 52 19
    endloop
  endfacet
  facet normal 0 1 0
    outer loop
      vertex 6 52 19
      vertex 53 52 17
      vertex 6 52 17
    endloop
  endfacet
  facet normal -0.92388 -0.382683 0
    outer loop
      vertex 11.7678 6.76777 0
      vertex 12 6.20711 0.5
      vertex 11.7678 6.76777 0.5
    endloop
  endfacet
  facet normal -0.92388 -0.382683 -1.45314e-007
    outer loop
      vertex 12.5 5 0
      vertex 12 6.20711 0.5
      vertex 11.7678 6.76777 0
    endloop
  endfacet
  facet normal -0.92388 -0.382683 0
    outer loop
      vertex 12 6.20711 0.5
      vertex 12.5 5 0
      vertex 12.5 5 0.5
    endloop
  endfacet
  facet normal 0.382683 -0.92388 0
    outer loop
      vertex 8.23223 6.76777 0
      vertex 10 7.5 0.5
      vertex 8.23223 6.76777 0.5
    endloop
  endfacet
  facet normal 0.382683 -0.92388 0
    outer loop
      vertex 10 7.5 0.5
      vertex 8.23223 6.76777 0
      vertex 10 7.5 0
    endloop
  endfacet
  facet normal -0.382683 -0.92388 0
    outer loop
      vertex 10 7.5 0
      vertex 11.7678 6.76777 0.5
      vertex 10 7.5 0.5
    endloop
  endfacet
  facet normal -0.382683 -0.92388 -0
    outer loop
      vertex 11.7678 6.76777 0.5
      vertex 10 7.5 0
      vertex 11.7678 6.76777 0
    endloop
  endfacet
  facet normal 0.92388 -0.382683 0
    outer loop
      vertex 8 6.20711 0.5
      vertex 8.23223 6.76777 0
      vertex 8.23223 6.76777 0.5
    endloop
  endfacet
  facet normal 0.92388 -0.382683 0
    outer loop
      vertex 7.5 5 0
      vertex 8 6.20711 0.5
      vertex 7.5 5 0.5
    endloop
  endfacet
  facet normal 0.92388 -0.382683 1.11227e-007
    outer loop
      vertex 8 6.20711 0.5
      vertex 7.5 5 0
      vertex 8.23223 6.76777 0
    endloop
  endfacet
  facet normal -0.92388 0.382683 0
    outer loop
      vertex 12.5 5 0
      vertex 12 3.79289 0.5
      vertex 12.5 5 0.5
    endloop
  endfacet
  facet normal -0.92388 0.382683 8.61821e-008
    outer loop
      vertex 11.7678 3.23223 0
      vertex 12 3.79289 0.5
      vertex 12.5 5 0
    endloop
  endfacet
  facet normal -0.92388 0.382683 0
    outer loop
      vertex 12 3.79289 0.5
      vertex 11.7678 3.23223 0
      vertex 11.7678 3.23223 0.5
    endloop
  endfacet
  facet normal 0.382683 0.92388 -0
    outer loop
      vertex 10 2.5 0
      vertex 8.23223 3.23223 0.5
      vertex 10 2.5 0.5
    endloop
  endfacet
  facet normal 0.382683 0.92388 0
    outer loop
      vertex 8.23223 3.23223 0.5
      vertex 10 2.5 0
      vertex 8.23223 3.23223 0
    endloop
  endfacet
  facet normal 0.92388 0.382683 0
    outer loop
      vertex 8 3.79289 0.5
      vertex 7.5 5 0
      vertex 7.5 5 0.5
    endloop
  endfacet
  facet normal 0.92388 0.382683 -0
    outer loop
      vertex 8.23223 3.23223 0
      vertex 8 3.79289 0.5
      vertex 8.23223 3.23223 0.5
    endloop
  endfacet
  facet normal 0.92388 0.382683 -2.22324e-008
    outer loop
      vertex 8 3.79289 0.5
      vertex 8.23223 3.23223 0
      vertex 7.5 5 0
    endloop
  endfacet
  facet normal -0.382683 0.92388 0
    outer loop
      vertex 11.7678 3.23223 0
      vertex 10 2.5 0.5
      vertex 11.7678 3.23223 0.5
    endloop
  endfacet
  facet normal -0.382683 0.92388 0
    outer loop
      vertex 10 2.5 0.5
      vertex 11.7678 3.23223 0
      vertex 10 2.5 0
    endloop
  endfacet
  facet normal -1 0 0
    outer loop
      vertex 8 6.20711 0.5
      vertex 8 8 1
      vertex 8 8 0.5
    endloop
  endfacet
  facet normal -1 -0 0
    outer loop
      vertex 8 8 1
      vertex 8 6.20711 0.5
      vertex 8 8 1.5
    endloop
  endfacet
  facet normal -1 0 0
    outer loop
      vertex 8 3.79289 0.5
      vertex 8 8 1.5
      vertex 8 6.20711 0.5
    endloop
  endfacet
  facet normal -1 0 0
    outer loop
      vertex 8 2.02049 1.5
      vertex 8 3.79289 0.5
      vertex 8 2.02049 0.5
    endloop
  endfacet
  facet normal -1 0 0
    outer loop
      vertex 8 3.79289 0.5
      vertex 8 2.02049 1.5
      vertex 8 8 1.5
    endloop
  endfacet
  facet normal -0 0 1
    outer loop
      vertex 8 8 1.5
      vertex 12 2.02049 1.5
      vertex 12 8 1.5
    endloop
  endfacet
  facet normal 0 0 1
    outer loop
      vertex 12 2.02049 1.5
      vertex 8 8 1.5
      vertex 8 2.02049 1.5
    endloop
  endfacet
  facet normal 1 0 0
    outer loop
      vertex 12 6.20711 0.5
      vertex 12 8 1
      vertex 12 8 1.5
    endloop
  endfacet
  facet normal 1 0 0
    outer loop
      vertex 12 8 1
      vertex 12 6.20711 0.5
      vertex 12 8 0.5
    endloop
  endfacet
  facet normal 1 0 0
    outer loop
      vertex 12 8 1.5
      vertex 12 3.79289 0.5
      vertex 12 6.20711 0.5
    endloop
  endfacet
  facet normal 1 -0 0
    outer loop
      vertex 12 2.02049 1.5
      vertex 12 3.79289 0.5
      vertex 12 8 1.5
    endloop
  endfacet
  facet normal 1 0 0
    outer loop
      vertex 12 3.79289 0.5
      vertex 12 2.02049 1.5
      vertex 12 2.02049 0.5
    endloop
  endfacet
  facet normal 0 -1 0
    outer loop
      vertex 12 8 1.5
      vertex 2.08183 8 5
      vertex 8 8 1.5
    endloop
  endfacet
  facet normal 0 -1 0
    outer loop
      vertex 2.08183 8 1
      vertex 8 8 1.5
      vertex 2.08183 8 5
    endloop
  endfacet
  facet normal 0 -1 -0
    outer loop
      vertex 8 8 1.5
      vertex 2.08183 8 1
      vertex 8 8 1
    endloop
  endfacet
  facet normal 0 -1 0
    outer loop
      vertex 2.08183 8 5
      vertex 12 8 1.5
      vertex 58 8 5
    endloop
  endfacet
  facet normal 0 -1 0
    outer loop
      vertex 58 8 1
      vertex 12 8 1.5
      vertex 12 8 1
    endloop
  endfacet
  facet normal 0 -1 0
    outer loop
      vertex 12 8 1.5
      vertex 58 8 1
      vertex 58 8 5
    endloop
  endfacet
  facet normal 0 1 -0
    outer loop
      vertex 12 8 0.5
      vertex 8 8 1
      vertex 12 8 1
    endloop
  endfacet
  facet normal 0 1 0
    outer loop
      vertex 8 8 1
      vertex 12 8 0.5
      vertex 8 8 0.5
    endloop
  endfacet
  facet normal 0.809017 0.587786 0
    outer loop
      vertex 5.5 11.5 5
      vertex 4.46352 12.9266 3
      vertex 4.46352 12.9266 5
    endloop
  endfacet
  facet normal 0.809017 0.587786 0
    outer loop
      vertex 4.46352 12.9266 3
      vertex 5.5 11.5 5
      vertex 5.5 11.5 3
    endloop
  endfacet
  facet normal -1 0 0
    outer loop
      vertex 2.78647 10.6183 3
      vertex 2.78647 12.3817 5
      vertex 2.78647 12.3817 3
    endloop
  endfacet
  facet normal -1 -0 0
    outer loop
      vertex 2.78647 12.3817 5
      vertex 2.78647 10.6183 3
      vertex 2.78647 10.6183 5
    endloop
  endfacet
  facet normal -0.309017 0.951057 0
    outer loop
      vertex 4.46352 12.9266 3
      vertex 2.78647 12.3817 5
      vertex 4.46352 12.9266 5
    endloop
  endfacet
  facet normal -0.309017 0.951057 0
    outer loop
      vertex 2.78647 12.3817 5
      vertex 4.46352 12.9266 3
      vertex 2.78647 12.3817 3
    endloop
  endfacet
  facet normal -0.309017 -0.951057 0
    outer loop
      vertex 2.78647 10.6183 3
      vertex 4.46352 10.0734 5
      vertex 2.78647 10.6183 5
    endloop
  endfacet
  facet normal -0.309017 -0.951057 -0
    outer loop
      vertex 4.46352 10.0734 5
      vertex 2.78647 10.6183 3
      vertex 4.46352 10.0734 3
    endloop
  endfacet
  facet normal 0 0 1
    outer loop
      vertex 4.46352 12.9266 5
      vertex 4.46352 10.0734 5
      vertex 5.5 11.5 5
    endloop
  endfacet
  facet normal -0 0 1
    outer loop
      vertex 2.78647 12.3817 5
      vertex 4.46352 10.0734 5
      vertex 4.46352 12.9266 5
    endloop
  endfacet
  facet normal 0 0 1
    outer loop
      vertex 4.46352 10.0734 5
      vertex 2.78647 12.3817 5
      vertex 2.78647 10.6183 5
    endloop
  endfacet
  facet normal 0 0 -1
    outer loop
      vertex 1 9 1
      vertex 2.08183 44 1
      vertex 2.08183 9 1
    endloop
  endfacet
  facet normal -0 0 -1
    outer loop
      vertex 2.08183 44 1
      vertex 1 9 1
      vertex 1 44 1
    endloop
  endfacet
  facet normal 0 0 -1
    outer loop
      vertex 54 9 1
      vertex 58 9 1
      vertex 58 8 1
    endloop
  endfacet
  facet normal 0 0 -1
    outer loop
      vertex 58 9 1
      vertex 54 9 1
      vertex 58 44 1
    endloop
  endfacet
  facet normal 0 0 -1
    outer loop
      vertex 54 44 1
      vertex 58 44 1
      vertex 54 9 1
    endloop
  endfacet
  facet normal 0 0 -1
    outer loop
      vertex 12 8 1
      vertex 54 9 1
      vertex 58 8 1
    endloop
  endfacet
  facet normal 0 0 -1
    outer loop
      vertex 6 9 1
      vertex 12 8 1
      vertex 8 8 1
    endloop
  endfacet
  facet normal 0 0 -1
    outer loop
      vertex 12 8 1
      vertex 6 9 1
      vertex 54 9 1
    endloop
  endfacet
  facet normal 0 0 -1
    outer loop
      vertex 2.08183 9 1
      vertex 6 9 1
      vertex 2.08183 8 1
    endloop
  endfacet
  facet normal 0 0 -1
    outer loop
      vertex 2.08183 8 1
      vertex 6 9 1
      vertex 8 8 1
    endloop
  endfacet
  facet normal 0 0 -1
    outer loop
      vertex 58 9 1
      vertex 59 44 1
      vertex 59 9 1
    endloop
  endfacet
  facet normal -0 0 -1
    outer loop
      vertex 59 44 1
      vertex 58 9 1
      vertex 58 44 1
    endloop
  endfacet
  facet normal 0 0 -1
    outer loop
      vertex 58 44 1
      vertex 54 44 1
      vertex 58 45 1
    endloop
  endfacet
  facet normal 0 0 -1
    outer loop
      vertex 6 44 1
      vertex 58 45 1
      vertex 54 44 1
    endloop
  endfacet
  facet normal 0 0 -1
    outer loop
      vertex 6 9 1
      vertex 2.08183 9 1
      vertex 6 44 1
    endloop
  endfacet
  facet normal 0 0 -1
    outer loop
      vertex 2.08183 44 1
      vertex 6 44 1
      vertex 2.08183 9 1
    endloop
  endfacet
  facet normal 0 0 -1
    outer loop
      vertex 2.08183 45 1
      vertex 6 44 1
      vertex 2.08183 44 1
    endloop
  endfacet
  facet normal 0 0 -1
    outer loop
      vertex 6 44 1
      vertex 2.08183 45 1
      vertex 58 45 1
    endloop
  endfacet
  facet normal 0.809017 -0.587785 0
    outer loop
      vertex 4.46352 10.0734 5
      vertex 5.5 11.5 3
      vertex 5.5 11.5 5
    endloop
  endfacet
  facet normal 0.809017 -0.587785 0
    outer loop
      vertex 5.5 11.5 3
      vertex 4.46352 10.0734 5
      vertex 4.46352 10.0734 3
    endloop
  endfacet
  facet normal 0.809016 0.587786 0
    outer loop
      vertex 5.5 41.5 5
      vertex 4.46352 42.9266 3
      vertex 4.46352 42.9266 5
    endloop
  endfacet
  facet normal 0.809016 0.587786 0
    outer loop
      vertex 4.46352 42.9266 3
      vertex 5.5 41.5 5
      vertex 5.5 41.5 3
    endloop
  endfacet
  facet normal -1 0 0
    outer loop
      vertex 2.78647 40.6183 3
      vertex 2.78647 42.3817 5
      vertex 2.78647 42.3817 3
    endloop
  endfacet
  facet normal -1 -0 0
    outer loop
      vertex 2.78647 42.3817 5
      vertex 2.78647 40.6183 3
      vertex 2.78647 40.6183 5
    endloop
  endfacet
  facet normal -0.309017 0.951057 0
    outer loop
      vertex 4.46352 42.9266 3
      vertex 2.78647 42.3817 5
      vertex 4.46352 42.9266 5
    endloop
  endfacet
  facet normal -0.309017 0.951057 0
    outer loop
      vertex 2.78647 42.3817 5
      vertex 4.46352 42.9266 3
      vertex 2.78647 42.3817 3
    endloop
  endfacet
  facet normal 0 0 1
    outer loop
      vertex 4.46352 42.9266 5
      vertex 4.46352 40.0734 5
      vertex 5.5 41.5 5
    endloop
  endfacet
  facet normal -0 0 1
    outer loop
      vertex 2.78647 42.3817 5
      vertex 4.46352 40.0734 5
      vertex 4.46352 42.9266 5
    endloop
  endfacet
  facet normal 0 0 1
    outer loop
      vertex 4.46352 40.0734 5
      vertex 2.78647 42.3817 5
      vertex 2.78647 40.6183 5
    endloop
  endfacet
  facet normal 0.809017 -0.587785 0
    outer loop
      vertex 4.46352 40.0734 5
      vertex 5.5 41.5 3
      vertex 5.5 41.5 5
    endloop
  endfacet
  facet normal 0.809017 -0.587785 0
    outer loop
      vertex 5.5 41.5 3
      vertex 4.46352 40.0734 5
      vertex 4.46352 40.0734 3
    endloop
  endfacet
  facet normal -0.309017 -0.951057 0
    outer loop
      vertex 2.78647 40.6183 3
      vertex 4.46352 40.0734 5
      vertex 2.78647 40.6183 5
    endloop
  endfacet
  facet normal -0.309017 -0.951057 -0
    outer loop
      vertex 4.46352 40.0734 5
      vertex 2.78647 40.6183 3
      vertex 4.46352 40.0734 3
    endloop
  endfacet
  facet normal 0.809016 0.587786 0
    outer loop
      vertex 57.5 11.5 5
      vertex 56.4635 12.9266 3
      vertex 56.4635 12.9266 5
    endloop
  endfacet
  facet normal 0.809016 0.587786 0
    outer loop
      vertex 56.4635 12.9266 3
      vertex 57.5 11.5 5
      vertex 57.5 11.5 3
    endloop
  endfacet
  facet normal -1 0 0
    outer loop
      vertex 54.7865 10.6183 3
      vertex 54.7865 12.3817 5
      vertex 54.7865 12.3817 3
    endloop
  endfacet
  facet normal -1 -0 0
    outer loop
      vertex 54.7865 12.3817 5
      vertex 54.7865 10.6183 3
      vertex 54.7865 10.6183 5
    endloop
  endfacet
  facet normal -0.309017 0.951056 0
    outer loop
      vertex 56.4635 12.9266 3
      vertex 54.7865 12.3817 5
      vertex 56.4635 12.9266 5
    endloop
  endfacet
  facet normal -0.309017 0.951056 0
    outer loop
      vertex 54.7865 12.3817 5
      vertex 56.4635 12.9266 3
      vertex 54.7865 12.3817 3
    endloop
  endfacet
  facet normal 0 0 1
    outer loop
      vertex 56.4635 12.9266 5
      vertex 56.4635 10.0734 5
      vertex 57.5 11.5 5
    endloop
  endfacet
  facet normal -0 0 1
    outer loop
      vertex 54.7865 12.3817 5
      vertex 56.4635 10.0734 5
      vertex 56.4635 12.9266 5
    endloop
  endfacet
  facet normal 0 0 1
    outer loop
      vertex 56.4635 10.0734 5
      vertex 54.7865 12.3817 5
      vertex 54.7865 10.6183 5
    endloop
  endfacet
  facet normal 0.809017 -0.587786 0
    outer loop
      vertex 56.4635 10.0734 5
      vertex 57.5 11.5 3
      vertex 57.5 11.5 5
    endloop
  endfacet
  facet normal 0.809017 -0.587786 0
    outer loop
      vertex 57.5 11.5 3
      vertex 56.4635 10.0734 5
      vertex 56.4635 10.0734 3
    endloop
  endfacet
  facet normal -0.309017 -0.951056 0
    outer loop
      vertex 54.7865 10.6183 3
      vertex 56.4635 10.0734 5
      vertex 54.7865 10.6183 5
    endloop
  endfacet
  facet normal -0.309017 -0.951056 -0
    outer loop
      vertex 56.4635 10.0734 5
      vertex 54.7865 10.6183 3
      vertex 56.4635 10.0734 3
    endloop
  endfacet
  facet normal 0.809016 0.587787 0
    outer loop
      vertex 57.5 41 5
      vertex 56.4635 42.4266 3
      vertex 56.4635 42.4266 5
    endloop
  endfacet
  facet normal 0.809016 0.587787 0
    outer loop
      vertex 56.4635 42.4266 3
      vertex 57.5 41 5
      vertex 57.5 41 3
    endloop
  endfacet
  facet normal -1 0 0
    outer loop
      vertex 54.7865 40.1183 3
      vertex 54.7865 41.8817 5
      vertex 54.7865 41.8817 3
    endloop
  endfacet
  facet normal -1 -0 0
    outer loop
      vertex 54.7865 41.8817 5
      vertex 54.7865 40.1183 3
      vertex 54.7865 40.1183 5
    endloop
  endfacet
  facet normal -0.309017 0.951056 0
    outer loop
      vertex 56.4635 42.4266 3
      vertex 54.7865 41.8817 5
      vertex 56.4635 42.4266 5
    endloop
  endfacet
  facet normal -0.309017 0.951056 0
    outer loop
      vertex 54.7865 41.8817 5
      vertex 56.4635 42.4266 3
      vertex 54.7865 41.8817 3
    endloop
  endfacet
  facet normal 0 0 1
    outer loop
      vertex 56.4635 42.4266 5
      vertex 56.4635 39.5734 5
      vertex 57.5 41 5
    endloop
  endfacet
  facet normal -0 0 1
    outer loop
      vertex 54.7865 41.8817 5
      vertex 56.4635 39.5734 5
      vertex 56.4635 42.4266 5
    endloop
  endfacet
  facet normal 0 0 1
    outer loop
      vertex 56.4635 39.5734 5
      vertex 54.7865 41.8817 5
      vertex 54.7865 40.1183 5
    endloop
  endfacet
  facet normal 0.809017 -0.587785 0
    outer loop
      vertex 56.4635 39.5734 5
      vertex 57.5 41 3
      vertex 57.5 41 5
    endloop
  endfacet
  facet normal 0.809017 -0.587785 0
    outer loop
      vertex 57.5 41 3
      vertex 56.4635 39.5734 5
      vertex 56.4635 39.5734 3
    endloop
  endfacet
  facet normal -0.309017 -0.951056 0
    outer loop
      vertex 54.7865 40.1183 3
      vertex 56.4635 39.5734 5
      vertex 54.7865 40.1183 5
    endloop
  endfacet
  facet normal -0.309017 -0.951056 -0
    outer loop
      vertex 56.4635 39.5734 5
      vertex 54.7865 40.1183 3
      vertex 56.4635 39.5734 3
    endloop
  endfacet
  facet normal -0 0 1
    outer loop
      vertex 4.46352 40.0734 3
      vertex 5.5 11.5 3
      vertex 5.5 41.5 3
    endloop
  endfacet
  facet normal 0 0 1
    outer loop
      vertex 4.46352 40.0734 3
      vertex 4.46352 12.9266 3
      vertex 5.5 11.5 3
    endloop
  endfacet
  facet normal 0 0 1
    outer loop
      vertex 2.78647 40.6183 3
      vertex 4.46352 12.9266 3
      vertex 4.46352 40.0734 3
    endloop
  endfacet
  facet normal 0 0 1
    outer loop
      vertex 4.46352 12.9266 3
      vertex 2.78647 40.6183 3
      vertex 2.78647 12.3817 3
    endloop
  endfacet
  facet normal 0 0 1
    outer loop
      vertex 6 44 3
      vertex 5.5 41.5 3
      vertex 6 9 3
    endloop
  endfacet
  facet normal 0 0 1
    outer loop
      vertex 6 44 3
      vertex 4.46352 42.9266 3
      vertex 5.5 41.5 3
    endloop
  endfacet
  facet normal -0 0 1
    outer loop
      vertex 1 44 3
      vertex 4.46352 42.9266 3
      vertex 6 44 3
    endloop
  endfacet
  facet normal 0 0 1
    outer loop
      vertex 1 44 3
      vertex 2.78647 40.6183 3
      vertex 2.78647 42.3817 3
    endloop
  endfacet
  facet normal 0 0 1
    outer loop
      vertex 2.78647 40.6183 3
      vertex 1 44 3
      vertex 2.78647 12.3817 3
    endloop
  endfacet
  facet normal 0 0 1
    outer loop
      vertex 1 9 3
      vertex 2.78647 12.3817 3
      vertex 1 44 3
    endloop
  endfacet
  facet normal 0 0 1
    outer loop
      vertex 4.46352 42.9266 3
      vertex 1 44 3
      vertex 2.78647 42.3817 3
    endloop
  endfacet
  facet normal -0 0 1
    outer loop
      vertex 5.5 11.5 3
      vertex 6 9 3
      vertex 5.5 41.5 3
    endloop
  endfacet
  facet normal -0 0 1
    outer loop
      vertex 4.46352 10.0734 3
      vertex 6 9 3
      vertex 5.5 11.5 3
    endloop
  endfacet
  facet normal 0 0 1
    outer loop
      vertex 1 9 3
      vertex 4.46352 10.0734 3
      vertex 2.78647 10.6183 3
    endloop
  endfacet
  facet normal 0 0 1
    outer loop
      vertex 4.46352 10.0734 3
      vertex 1 9 3
      vertex 6 9 3
    endloop
  endfacet
  facet normal 0 0 1
    outer loop
      vertex 2.78647 12.3817 3
      vertex 1 9 3
      vertex 2.78647 10.6183 3
    endloop
  endfacet
  facet normal 1 -0 0
    outer loop
      vertex 6 9 3
      vertex 6 44 1
      vertex 6 44 3
    endloop
  endfacet
  facet normal 1 0 0
    outer loop
      vertex 6 44 1
      vertex 6 9 3
      vertex 6 9 1
    endloop
  endfacet
  facet normal -1 0 0
    outer loop
      vertex 54 9 1
      vertex 54 44 3
      vertex 54 44 1
    endloop
  endfacet
  facet normal -1 -0 0
    outer loop
      vertex 54 44 3
      vertex 54 9 1
      vertex 54 9 3
    endloop
  endfacet
  facet normal -0 0 1
    outer loop
      vertex 56.4635 39.5734 3
      vertex 57.5 11.5 3
      vertex 57.5 41 3
    endloop
  endfacet
  facet normal 0 0 1
    outer loop
      vertex 56.4635 39.5734 3
      vertex 56.4635 12.9266 3
      vertex 57.5 11.5 3
    endloop
  endfacet
  facet normal 0 0 1
    outer loop
      vertex 54.7865 40.1183 3
      vertex 56.4635 12.9266 3
      vertex 56.4635 39.5734 3
    endloop
  endfacet
  facet normal 0 0 1
    outer loop
      vertex 56.4635 12.9266 3
      vertex 54.7865 40.1183 3
      vertex 54.7865 12.3817 3
    endloop
  endfacet
  facet normal 0 0 1
    outer loop
      vertex 57.5 41 3
      vertex 59 44 3
      vertex 58 44 3
    endloop
  endfacet
  facet normal 0 0 1
    outer loop
      vertex 59 44 3
      vertex 57.5 41 3
      vertex 59 9 3
    endloop
  endfacet
  facet normal -0 0 1
    outer loop
      vertex 57.5 11.5 3
      vertex 59 9 3
      vertex 57.5 41 3
    endloop
  endfacet
  facet normal 0 0 1
    outer loop
      vertex 58 44 3
      vertex 56.4635 42.4266 3
      vertex 57.5 41 3
    endloop
  endfacet
  facet normal -0 0 1
    outer loop
      vertex 54 44 3
      vertex 56.4635 42.4266 3
      vertex 58 44 3
    endloop
  endfacet
  facet normal 0 0 1
    outer loop
      vertex 54 44 3
      vertex 54.7865 40.1183 3
      vertex 54.7865 41.8817 3
    endloop
  endfacet
  facet normal 0 0 1
    outer loop
      vertex 54 9 3
      vertex 54.7865 40.1183 3
      vertex 54 44 3
    endloop
  endfacet
  facet normal 0 0 1
    outer loop
      vertex 54.7865 40.1183 3
      vertex 54 9 3
      vertex 54.7865 12.3817 3
    endloop
  endfacet
  facet normal 0 0 1
    outer loop
      vertex 56.4635 42.4266 3
      vertex 54 44 3
      vertex 54.7865 41.8817 3
    endloop
  endfacet
  facet normal 0 0 1
    outer loop
      vertex 59 9 3
      vertex 57.5 11.5 3
      vertex 58 9 3
    endloop
  endfacet
  facet normal -0 0 1
    outer loop
      vertex 56.4635 10.0734 3
      vertex 58 9 3
      vertex 57.5 11.5 3
    endloop
  endfacet
  facet normal 0 0 1
    outer loop
      vertex 54 9 3
      vertex 56.4635 10.0734 3
      vertex 54.7865 10.6183 3
    endloop
  endfacet
  facet normal 0 0 1
    outer loop
      vertex 56.4635 10.0734 3
      vertex 54 9 3
      vertex 58 9 3
    endloop
  endfacet
  facet normal 0 0 1
    outer loop
      vertex 54.7865 12.3817 3
      vertex 54 9 3
      vertex 54.7865 10.6183 3
    endloop
  endfacet
  facet normal -0 0 1
    outer loop
      vertex 2.08183 9 5
      vertex 58 8 5
      vertex 58 9 5
    endloop
  endfacet
  facet normal 0 0 1
    outer loop
      vertex 58 8 5
      vertex 2.08183 9 5
      vertex 2.08183 8 5
    endloop
  endfacet
  facet normal -0 0 1
    outer loop
      vertex 2.08183 45 5
      vertex 58 44 5
      vertex 58 45 5
    endloop
  endfacet
  facet normal 0 0 1
    outer loop
      vertex 58 44 5
      vertex 2.08183 45 5
      vertex 2.08183 44 5
    endloop
  endfacet
  facet normal 0 1 -0
    outer loop
      vertex 58 45 1
      vertex 2.08183 45 5
      vertex 58 45 5
    endloop
  endfacet
  facet normal 0 1 0
    outer loop
      vertex 2.08183 45 5
      vertex 58 45 1
      vertex 2.08183 45 1
    endloop
  endfacet
endsolid OpenSCAD_Model
