solid OpenSCAD_Model
  facet normal -0.945817 -0.324699 0
    outer loop
      vertex 0.723158 3.14432 0
      vertex 0.0818329 5.01243 17
      vertex 0.0818329 5.01243 0
    endloop
  endfacet
  facet normal -0.945817 -0.324699 0
    outer loop
      vertex 0.0818329 5.01243 17
      vertex 0.723158 3.14432 0
      vertex 0.723158 3.14432 17
    endloop
  endfacet
  facet normal -0 0 1
    outer loop
      vertex 1 9 17
      vertex 6.08183 7.01243 17
      vertex 6.08183 9 17
    endloop
  endfacet
  facet normal 0 0 1
    outer loop
      vertex 6.08183 7.01243 17
      vertex 3.58983 0.505361 17
      vertex 5.50452 0.0204935 17
    endloop
  endfacet
  facet normal 0 0 1
    outer loop
      vertex 6.08183 7.01243 17
      vertex 1.93631 1.58566 17
      vertex 3.58983 0.505361 17
    endloop
  endfacet
  facet normal 0 0 1
    outer loop
      vertex 6.08183 7.01243 17
      vertex 1 9 17
      vertex 0.0818329 5.01243 17
    endloop
  endfacet
  facet normal 0 0 1
    outer loop
      vertex 6.08183 7.01243 17
      vertex 0.723158 3.14432 17
      vertex 1.93631 1.58566 17
    endloop
  endfacet
  facet normal 0 0 1
    outer loop
      vertex 1 45 17
      vertex 0.0818329 48.9876 17
      vertex 1 9 17
    endloop
  endfacet
  facet normal 0 0 1
    outer loop
      vertex 0.0818329 5.01243 17
      vertex 1 9 17
      vertex 0.0818329 48.9876 17
    endloop
  endfacet
  facet normal 0 0 1
    outer loop
      vertex 6.08183 7.01243 17
      vertex 0.0818329 5.01243 17
      vertex 0.723158 3.14432 17
    endloop
  endfacet
  facet normal 0 0 1
    outer loop
      vertex 60 48 17
      vertex 53.6749 47.9482 17
      vertex 54 46 17
    endloop
  endfacet
  facet normal 0 0 1
    outer loop
      vertex 52.7348 49.6853 17
      vertex 55.4729 53.8164 17
      vertex 53.5045 53.9795 17
    endloop
  endfacet
  facet normal 0 0 1
    outer loop
      vertex 57.2817 53.023 17
      vertex 52.7348 49.6853 17
      vertex 53.6749 47.9482 17
    endloop
  endfacet
  facet normal 0 0 1
    outer loop
      vertex 53.5045 53.9795 17
      vertex 51.2817 51.023 17
      vertex 52.7348 49.6853 17
    endloop
  endfacet
  facet normal 0 0 1
    outer loop
      vertex 53.5045 53.9795 17
      vertex 49.4729 51.8164 17
      vertex 51.2817 51.023 17
    endloop
  endfacet
  facet normal 0 0 1
    outer loop
      vertex 53.5045 53.9795 17
      vertex 47.5045 51.9795 17
      vertex 49.4729 51.8164 17
    endloop
  endfacet
  facet normal 0 0 1
    outer loop
      vertex 53.5045 53.9795 17
      vertex 11.5045 51.9795 17
      vertex 47.5045 51.9795 17
    endloop
  endfacet
  facet normal -0 0 1
    outer loop
      vertex 5.50452 53.9795 17
      vertex 11.5045 51.9795 17
      vertex 53.5045 53.9795 17
    endloop
  endfacet
  facet normal 0 0 1
    outer loop
      vertex 5.50452 53.9795 17
      vertex 9.58983 51.4946 17
      vertex 11.5045 51.9795 17
    endloop
  endfacet
  facet normal 0 0 1
    outer loop
      vertex 5.50452 53.9795 17
      vertex 7.93631 50.4143 17
      vertex 9.58983 51.4946 17
    endloop
  endfacet
  facet normal 0 0 1
    outer loop
      vertex 5.50452 53.9795 17
      vertex 6.72316 48.8557 17
      vertex 7.93631 50.4143 17
    endloop
  endfacet
  facet normal -0 0 1
    outer loop
      vertex 3.58983 53.4946 17
      vertex 6.72316 48.8557 17
      vertex 5.50452 53.9795 17
    endloop
  endfacet
  facet normal -0 0 1
    outer loop
      vertex 1.93631 52.4143 17
      vertex 6.72316 48.8557 17
      vertex 3.58983 53.4946 17
    endloop
  endfacet
  facet normal -0 0 1
    outer loop
      vertex 0.723158 50.8557 17
      vertex 6.72316 48.8557 17
      vertex 1.93631 52.4143 17
    endloop
  endfacet
  facet normal 0 0 1
    outer loop
      vertex 6.72316 48.8557 17
      vertex 0.723158 50.8557 17
      vertex 6.08183 46.9876 17
    endloop
  endfacet
  facet normal -0 0 1
    outer loop
      vertex 0.0818329 48.9876 17
      vertex 6.08183 46.9876 17
      vertex 0.723158 50.8557 17
    endloop
  endfacet
  facet normal 0 0 1
    outer loop
      vertex 6.08183 46.9876 17
      vertex 0.0818329 48.9876 17
      vertex 1 45 17
    endloop
  endfacet
  facet normal 0 0 1
    outer loop
      vertex 6.08183 46.9876 17
      vertex 1 45 17
      vertex 6.08183 45 17
    endloop
  endfacet
  facet normal 0 0 1
    outer loop
      vertex 53.6749 47.9482 17
      vertex 60 48 17
      vertex 59.6749 49.9482 17
    endloop
  endfacet
  facet normal 0 0 1
    outer loop
      vertex 60 48 17
      vertex 59 45 17
      vertex 60 6 17
    endloop
  endfacet
  facet normal -0 0 1
    outer loop
      vertex 59 9 17
      vertex 60 6 17
      vertex 59 45 17
    endloop
  endfacet
  facet normal 0 0 1
    outer loop
      vertex 53.6749 47.9482 17
      vertex 59.6749 49.9482 17
      vertex 58.7348 51.6853 17
    endloop
  endfacet
  facet normal 0 0 1
    outer loop
      vertex 53.6749 47.9482 17
      vertex 58.7348 51.6853 17
      vertex 57.2817 53.023 17
    endloop
  endfacet
  facet normal 0 0 1
    outer loop
      vertex 52.7348 49.6853 17
      vertex 57.2817 53.023 17
      vertex 55.4729 53.8164 17
    endloop
  endfacet
  facet normal 0 0 1
    outer loop
      vertex 60 48 17
      vertex 54 46 17
      vertex 59 45 17
    endloop
  endfacet
  facet normal 0 0 1
    outer loop
      vertex 59 45 17
      vertex 54 46 17
      vertex 54 45 17
    endloop
  endfacet
  facet normal -0 0 1
    outer loop
      vertex 54 8 17
      vertex 60 6 17
      vertex 59 9 17
    endloop
  endfacet
  facet normal 0 0 1
    outer loop
      vertex 60 6 17
      vertex 53.6749 6.0518 17
      vertex 59.6749 4.0518 17
    endloop
  endfacet
  facet normal 0 0 1
    outer loop
      vertex 59.6749 4.0518 17
      vertex 53.6749 6.0518 17
      vertex 58.7348 2.31472 17
    endloop
  endfacet
  facet normal 0 0 1
    outer loop
      vertex 58.7348 2.31472 17
      vertex 53.6749 6.0518 17
      vertex 57.2817 0.977001 17
    endloop
  endfacet
  facet normal 0 0 1
    outer loop
      vertex 54 8 17
      vertex 59 9 17
      vertex 54 9 17
    endloop
  endfacet
  facet normal 0 0 1
    outer loop
      vertex 60 6 17
      vertex 54 8 17
      vertex 53.6749 6.0518 17
    endloop
  endfacet
  facet normal -0 0 1
    outer loop
      vertex 52.7348 4.31472 17
      vertex 57.2817 0.977001 17
      vertex 53.6749 6.0518 17
    endloop
  endfacet
  facet normal 0 0 1
    outer loop
      vertex 57.2817 0.977001 17
      vertex 52.7348 4.31472 17
      vertex 55.4729 0.183599 17
    endloop
  endfacet
  facet normal 0 0 1
    outer loop
      vertex 55.4729 0.183599 17
      vertex 52.7348 4.31472 17
      vertex 53.5045 0.0204935 17
    endloop
  endfacet
  facet normal -0 0 1
    outer loop
      vertex 51.2817 2.977 17
      vertex 53.5045 0.0204935 17
      vertex 52.7348 4.31472 17
    endloop
  endfacet
  facet normal -0 0 1
    outer loop
      vertex 49.4729 2.1836 17
      vertex 53.5045 0.0204935 17
      vertex 51.2817 2.977 17
    endloop
  endfacet
  facet normal -0 0 1
    outer loop
      vertex 47.5045 2.02049 17
      vertex 53.5045 0.0204935 17
      vertex 49.4729 2.1836 17
    endloop
  endfacet
  facet normal -0 0 1
    outer loop
      vertex 11.5045 2.02049 17
      vertex 53.5045 0.0204935 17
      vertex 47.5045 2.02049 17
    endloop
  endfacet
  facet normal 0 0 1
    outer loop
      vertex 11.5045 2.02049 17
      vertex 5.50452 0.0204935 17
      vertex 53.5045 0.0204935 17
    endloop
  endfacet
  facet normal 0 0 1
    outer loop
      vertex 9.58983 2.50536 17
      vertex 5.50452 0.0204935 17
      vertex 11.5045 2.02049 17
    endloop
  endfacet
  facet normal 0 0 1
    outer loop
      vertex 7.93631 3.58566 17
      vertex 5.50452 0.0204935 17
      vertex 9.58983 2.50536 17
    endloop
  endfacet
  facet normal 0 0 1
    outer loop
      vertex 6.72316 5.14432 17
      vertex 5.50452 0.0204935 17
      vertex 7.93631 3.58566 17
    endloop
  endfacet
  facet normal 0 0 1
    outer loop
      vertex 5.50452 0.0204935 17
      vertex 6.72316 5.14432 17
      vertex 6.08183 7.01243 17
    endloop
  endfacet
  facet normal -1 0 0
    outer loop
      vertex 0.0818329 5.01243 0
      vertex 0.0818329 48.9876 17
      vertex 0.0818329 48.9876 0
    endloop
  endfacet
  facet normal -1 -0 0
    outer loop
      vertex 0.0818329 48.9876 17
      vertex 0.0818329 5.01243 0
      vertex 0.0818329 5.01243 17
    endloop
  endfacet
  facet normal 0 1 -0
    outer loop
      vertex 53.5045 53.9795 0
      vertex 5.50452 53.9795 17
      vertex 53.5045 53.9795 17
    endloop
  endfacet
  facet normal 0 1 0
    outer loop
      vertex 5.50452 53.9795 17
      vertex 53.5045 53.9795 0
      vertex 5.50452 53.9795 0
    endloop
  endfacet
  facet normal 1 -0 0
    outer loop
      vertex 60 6 17
      vertex 60 48 0
      vertex 60 48 17
    endloop
  endfacet
  facet normal 1 0 0
    outer loop
      vertex 60 48 0
      vertex 60 6 17
      vertex 60 6 0
    endloop
  endfacet
  facet normal -0.245486 -0.9694 0
    outer loop
      vertex 3.58983 0.505361 0
      vertex 5.50452 0.0204935 17
      vertex 3.58983 0.505361 17
    endloop
  endfacet
  facet normal -0.245486 -0.9694 -0
    outer loop
      vertex 5.50452 0.0204935 17
      vertex 3.58983 0.505361 0
      vertex 5.50452 0.0204935 0
    endloop
  endfacet
  facet normal -0.546948 -0.837166 0
    outer loop
      vertex 1.93631 1.58566 0
      vertex 3.58983 0.505361 17
      vertex 1.93631 1.58566 17
    endloop
  endfacet
  facet normal -0.546948 -0.837166 -0
    outer loop
      vertex 3.58983 0.505361 17
      vertex 1.93631 1.58566 0
      vertex 3.58983 0.505361 0
    endloop
  endfacet
  facet normal 0.986361 -0.164594 0
    outer loop
      vertex 59.6749 4.0518 17
      vertex 60 6 0
      vertex 60 6 17
    endloop
  endfacet
  facet normal 0.986361 -0.164594 0
    outer loop
      vertex 60 6 0
      vertex 59.6749 4.0518 17
      vertex 59.6749 4.0518 0
    endloop
  endfacet
  facet normal 0.0825792 -0.996585 0
    outer loop
      vertex 53.5045 0.0204935 0
      vertex 55.4729 0.183599 17
      vertex 53.5045 0.0204935 17
    endloop
  endfacet
  facet normal 0.0825792 -0.996585 0
    outer loop
      vertex 55.4729 0.183599 17
      vertex 53.5045 0.0204935 0
      vertex 55.4729 0.183599 0
    endloop
  endfacet
  facet normal -0.245486 0.9694 0
    outer loop
      vertex 5.50452 53.9795 0
      vertex 3.58983 53.4946 17
      vertex 5.50452 53.9795 17
    endloop
  endfacet
  facet normal -0.245486 0.9694 0
    outer loop
      vertex 3.58983 53.4946 17
      vertex 5.50452 53.9795 0
      vertex 3.58983 53.4946 0
    endloop
  endfacet
  facet normal -0.546948 0.837167 0
    outer loop
      vertex 3.58983 53.4946 0
      vertex 1.93631 52.4143 17
      vertex 3.58983 53.4946 17
    endloop
  endfacet
  facet normal -0.546948 0.837167 0
    outer loop
      vertex 1.93631 52.4143 17
      vertex 3.58983 53.4946 0
      vertex 1.93631 52.4143 0
    endloop
  endfacet
  facet normal -0.945817 0.3247 0
    outer loop
      vertex 0.0818329 48.9876 0
      vertex 0.723158 50.8557 17
      vertex 0.723158 50.8557 0
    endloop
  endfacet
  facet normal -0.945817 0.3247 0
    outer loop
      vertex 0.723158 50.8557 17
      vertex 0.0818329 48.9876 0
      vertex 0.0818329 48.9876 17
    endloop
  endfacet
  facet normal -0.789141 0.614212 0
    outer loop
      vertex 0.723158 50.8557 0
      vertex 1.93631 52.4143 17
      vertex 1.93631 52.4143 0
    endloop
  endfacet
  facet normal -0.789141 0.614212 0
    outer loop
      vertex 1.93631 52.4143 17
      vertex 0.723158 50.8557 0
      vertex 0.723158 50.8557 17
    endloop
  endfacet
  facet normal 0.0825792 0.996585 -0
    outer loop
      vertex 55.4729 53.8164 0
      vertex 53.5045 53.9795 17
      vertex 55.4729 53.8164 17
    endloop
  endfacet
  facet normal 0.0825792 0.996585 0
    outer loop
      vertex 53.5045 53.9795 17
      vertex 55.4729 53.8164 0
      vertex 53.5045 53.9795 0
    endloop
  endfacet
  facet normal 0 -1 0
    outer loop
      vertex 5.50452 0.0204935 0
      vertex 53.5045 0.0204935 17
      vertex 5.50452 0.0204935 17
    endloop
  endfacet
  facet normal 0 -1 -0
    outer loop
      vertex 53.5045 0.0204935 17
      vertex 5.50452 0.0204935 0
      vertex 53.5045 0.0204935 0
    endloop
  endfacet
  facet normal 0 0 -1
    outer loop
      vertex 1.08183 45 0
      vertex 1 45 0
      vertex 1.08183 47.9876 0
    endloop
  endfacet
  facet normal 0 0 -1
    outer loop
      vertex 58.6749 5.0518 0
      vertex 60 6 0
      vertex 59.6749 4.0518 0
    endloop
  endfacet
  facet normal 0 0 -1
    outer loop
      vertex 60 6 0
      vertex 59 7 0
      vertex 60 48 0
    endloop
  endfacet
  facet normal 0 0 -1
    outer loop
      vertex 59 47 0
      vertex 60 48 0
      vertex 59 7 0
    endloop
  endfacet
  facet normal 0 0 -1
    outer loop
      vertex 57.7348 3.31472 0
      vertex 59.6749 4.0518 0
      vertex 58.7348 2.31472 0
    endloop
  endfacet
  facet normal -0 0 -1
    outer loop
      vertex 60 6 0
      vertex 58.6749 5.0518 0
      vertex 59 7 0
    endloop
  endfacet
  facet normal -0 0 -1
    outer loop
      vertex 59.6749 4.0518 0
      vertex 57.7348 3.31472 0
      vertex 58.6749 5.0518 0
    endloop
  endfacet
  facet normal 0 0 -1
    outer loop
      vertex 57.2817 0.977001 0
      vertex 57.7348 3.31472 0
      vertex 58.7348 2.31472 0
    endloop
  endfacet
  facet normal 0 0 -1
    outer loop
      vertex 57.2817 0.977001 0
      vertex 56.2817 1.977 0
      vertex 57.7348 3.31472 0
    endloop
  endfacet
  facet normal 0 0 -1
    outer loop
      vertex 55.4729 0.183599 0
      vertex 56.2817 1.977 0
      vertex 57.2817 0.977001 0
    endloop
  endfacet
  facet normal 0 0 -1
    outer loop
      vertex 55.4729 0.183599 0
      vertex 54.4729 1.1836 0
      vertex 56.2817 1.977 0
    endloop
  endfacet
  facet normal 0 0 -1
    outer loop
      vertex 53.5045 0.0204935 0
      vertex 54.4729 1.1836 0
      vertex 55.4729 0.183599 0
    endloop
  endfacet
  facet normal 0 0 -1
    outer loop
      vertex 53.5045 0.0204935 0
      vertex 52.5045 1.02049 0
      vertex 54.4729 1.1836 0
    endloop
  endfacet
  facet normal 0 0 -1
    outer loop
      vertex 53.5045 0.0204935 0
      vertex 6.50452 1.02049 0
      vertex 52.5045 1.02049 0
    endloop
  endfacet
  facet normal 0 0 -1
    outer loop
      vertex 5.50452 0.0204935 0
      vertex 6.50452 1.02049 0
      vertex 53.5045 0.0204935 0
    endloop
  endfacet
  facet normal 0 0 -1
    outer loop
      vertex 5.50452 0.0204935 0
      vertex 4.58983 1.50536 0
      vertex 6.50452 1.02049 0
    endloop
  endfacet
  facet normal 0 0 -1
    outer loop
      vertex 3.58983 0.505361 0
      vertex 4.58983 1.50536 0
      vertex 5.50452 0.0204935 0
    endloop
  endfacet
  facet normal 0 0 -1
    outer loop
      vertex 3.58983 0.505361 0
      vertex 2.93631 2.58566 0
      vertex 4.58983 1.50536 0
    endloop
  endfacet
  facet normal 0 0 -1
    outer loop
      vertex 1.93631 1.58566 0
      vertex 2.93631 2.58566 0
      vertex 3.58983 0.505361 0
    endloop
  endfacet
  facet normal 0 0 -1
    outer loop
      vertex 0.723158 3.14432 0
      vertex 2.93631 2.58566 0
      vertex 1.93631 1.58566 0
    endloop
  endfacet
  facet normal 0 0 -1
    outer loop
      vertex 2.93631 2.58566 0
      vertex 0.723158 3.14432 0
      vertex 1.72316 4.14432 0
    endloop
  endfacet
  facet normal 0 0 -1
    outer loop
      vertex 1.08183 6.01243 0
      vertex 1 9 0
      vertex 1.08183 9 0
    endloop
  endfacet
  facet normal -0 0 -1
    outer loop
      vertex 1.08183 6.01243 0
      vertex 0.0818329 5.01243 0
      vertex 1 9 0
    endloop
  endfacet
  facet normal 0 0 -1
    outer loop
      vertex 1.72316 4.14432 0
      vertex 0.0818329 5.01243 0
      vertex 1.08183 6.01243 0
    endloop
  endfacet
  facet normal 0 0 -1
    outer loop
      vertex 0.0818329 5.01243 0
      vertex 1.72316 4.14432 0
      vertex 0.723158 3.14432 0
    endloop
  endfacet
  facet normal 0 0 -1
    outer loop
      vertex 58.6749 48.9482 0
      vertex 60 48 0
      vertex 59 47 0
    endloop
  endfacet
  facet normal 0 0 -1
    outer loop
      vertex 60 48 0
      vertex 58.6749 48.9482 0
      vertex 59.6749 49.9482 0
    endloop
  endfacet
  facet normal 0 0 -1
    outer loop
      vertex 57.7348 50.6853 0
      vertex 59.6749 49.9482 0
      vertex 58.6749 48.9482 0
    endloop
  endfacet
  facet normal 0 0 -1
    outer loop
      vertex 59.6749 49.9482 0
      vertex 57.7348 50.6853 0
      vertex 58.7348 51.6853 0
    endloop
  endfacet
  facet normal 0 0 -1
    outer loop
      vertex 57.7348 50.6853 0
      vertex 57.2817 53.023 0
      vertex 58.7348 51.6853 0
    endloop
  endfacet
  facet normal 0 0 -1
    outer loop
      vertex 56.2817 52.023 0
      vertex 57.2817 53.023 0
      vertex 57.7348 50.6853 0
    endloop
  endfacet
  facet normal 0 0 -1
    outer loop
      vertex 56.2817 52.023 0
      vertex 55.4729 53.8164 0
      vertex 57.2817 53.023 0
    endloop
  endfacet
  facet normal 0 0 -1
    outer loop
      vertex 54.4729 52.8164 0
      vertex 55.4729 53.8164 0
      vertex 56.2817 52.023 0
    endloop
  endfacet
  facet normal 0 0 -1
    outer loop
      vertex 54.4729 52.8164 0
      vertex 53.5045 53.9795 0
      vertex 55.4729 53.8164 0
    endloop
  endfacet
  facet normal 0 0 -1
    outer loop
      vertex 52.5045 52.9795 0
      vertex 53.5045 53.9795 0
      vertex 54.4729 52.8164 0
    endloop
  endfacet
  facet normal 0 0 -1
    outer loop
      vertex 6.50452 52.9795 0
      vertex 53.5045 53.9795 0
      vertex 52.5045 52.9795 0
    endloop
  endfacet
  facet normal 0 0 -1
    outer loop
      vertex 6.50452 52.9795 0
      vertex 5.50452 53.9795 0
      vertex 53.5045 53.9795 0
    endloop
  endfacet
  facet normal 0 0 -1
    outer loop
      vertex 4.58983 52.4946 0
      vertex 5.50452 53.9795 0
      vertex 6.50452 52.9795 0
    endloop
  endfacet
  facet normal 0 0 -1
    outer loop
      vertex 4.58983 52.4946 0
      vertex 3.58983 53.4946 0
      vertex 5.50452 53.9795 0
    endloop
  endfacet
  facet normal 0 0 -1
    outer loop
      vertex 2.93631 51.4143 0
      vertex 3.58983 53.4946 0
      vertex 4.58983 52.4946 0
    endloop
  endfacet
  facet normal 0 0 -1
    outer loop
      vertex 2.93631 51.4143 0
      vertex 1.93631 52.4143 0
      vertex 3.58983 53.4946 0
    endloop
  endfacet
  facet normal 0 0 -1
    outer loop
      vertex 0.723158 50.8557 0
      vertex 2.93631 51.4143 0
      vertex 1.72316 49.8557 0
    endloop
  endfacet
  facet normal 0 0 -1
    outer loop
      vertex 0.0818329 48.9876 0
      vertex 1.72316 49.8557 0
      vertex 1.08183 47.9876 0
    endloop
  endfacet
  facet normal -0 0 -1
    outer loop
      vertex 2.93631 51.4143 0
      vertex 0.723158 50.8557 0
      vertex 1.93631 52.4143 0
    endloop
  endfacet
  facet normal 0 0 -1
    outer loop
      vertex 0.0818329 48.9876 0
      vertex 1.08183 47.9876 0
      vertex 1 45 0
    endloop
  endfacet
  facet normal -0 0 -1
    outer loop
      vertex 1 9 0
      vertex 0.0818329 5.01243 0
      vertex 1 45 0
    endloop
  endfacet
  facet normal 0 0 -1
    outer loop
      vertex 0.0818329 48.9876 0
      vertex 1 45 0
      vertex 0.0818329 5.01243 0
    endloop
  endfacet
  facet normal -0 0 -1
    outer loop
      vertex 1.72316 49.8557 0
      vertex 0.0818329 48.9876 0
      vertex 0.723158 50.8557 0
    endloop
  endfacet
  facet normal 0.401695 -0.915773 0
    outer loop
      vertex 55.4729 0.183599 0
      vertex 57.2817 0.977001 17
      vertex 55.4729 0.183599 17
    endloop
  endfacet
  facet normal 0.401695 -0.915773 0
    outer loop
      vertex 57.2817 0.977001 17
      vertex 55.4729 0.183599 0
      vertex 57.2817 0.977001 0
    endloop
  endfacet
  facet normal 0.677282 0.735723 -0
    outer loop
      vertex 58.7348 51.6853 0
      vertex 57.2817 53.023 17
      vertex 58.7348 51.6853 17
    endloop
  endfacet
  facet normal 0.677282 0.735723 0
    outer loop
      vertex 57.2817 53.023 17
      vertex 58.7348 51.6853 0
      vertex 57.2817 53.023 0
    endloop
  endfacet
  facet normal 0.986361 0.164594 0
    outer loop
      vertex 60 48 17
      vertex 59.6749 49.9482 0
      vertex 59.6749 49.9482 17
    endloop
  endfacet
  facet normal 0.986361 0.164594 0
    outer loop
      vertex 59.6749 49.9482 0
      vertex 60 48 17
      vertex 60 48 0
    endloop
  endfacet
  facet normal 0.401696 0.915773 -0
    outer loop
      vertex 57.2817 53.023 0
      vertex 55.4729 53.8164 17
      vertex 57.2817 53.023 17
    endloop
  endfacet
  facet normal 0.401696 0.915773 0
    outer loop
      vertex 55.4729 53.8164 17
      vertex 57.2817 53.023 0
      vertex 55.4729 53.8164 0
    endloop
  endfacet
  facet normal -0.78914 -0.614213 0
    outer loop
      vertex 1.93631 1.58566 0
      vertex 0.723158 3.14432 17
      vertex 0.723158 3.14432 0
    endloop
  endfacet
  facet normal -0.78914 -0.614213 0
    outer loop
      vertex 0.723158 3.14432 17
      vertex 1.93631 1.58566 0
      vertex 1.93631 1.58566 17
    endloop
  endfacet
  facet normal 0.879473 -0.475949 0
    outer loop
      vertex 58.7348 2.31472 17
      vertex 59.6749 4.0518 0
      vertex 59.6749 4.0518 17
    endloop
  endfacet
  facet normal 0.879473 -0.475949 0
    outer loop
      vertex 59.6749 4.0518 0
      vertex 58.7348 2.31472 17
      vertex 58.7348 2.31472 0
    endloop
  endfacet
  facet normal 0.677282 -0.735723 0
    outer loop
      vertex 57.2817 0.977001 0
      vertex 58.7348 2.31472 17
      vertex 57.2817 0.977001 17
    endloop
  endfacet
  facet normal 0.677282 -0.735723 0
    outer loop
      vertex 58.7348 2.31472 17
      vertex 57.2817 0.977001 0
      vertex 58.7348 2.31472 0
    endloop
  endfacet
  facet normal 0.879473 0.475949 0
    outer loop
      vertex 59.6749 49.9482 17
      vertex 58.7348 51.6853 0
      vertex 58.7348 51.6853 17
    endloop
  endfacet
  facet normal 0.879473 0.475949 0
    outer loop
      vertex 58.7348 51.6853 0
      vertex 59.6749 49.9482 17
      vertex 59.6749 49.9482 0
    endloop
  endfacet
  facet normal 1 -0 0
    outer loop
      vertex 6.08183 7.01243 17
      vertex 6.08183 9 2
      vertex 6.08183 9 17
    endloop
  endfacet
  facet normal 1 0 0
    outer loop
      vertex 6.08183 9 2
      vertex 6.08183 7.01243 17
      vertex 6.08183 7.01243 2
    endloop
  endfacet
  facet normal 1 -0 0
    outer loop
      vertex 6.08183 45 17
      vertex 6.08183 46.9876 2
      vertex 6.08183 46.9876 17
    endloop
  endfacet
  facet normal 1 0 0
    outer loop
      vertex 6.08183 46.9876 2
      vertex 6.08183 45 17
      vertex 6.08183 45 2
    endloop
  endfacet
  facet normal -1 0 0
    outer loop
      vertex 54 45 2
      vertex 54 46 17
      vertex 54 46 2
    endloop
  endfacet
  facet normal -1 -0 0
    outer loop
      vertex 54 46 17
      vertex 54 45 2
      vertex 54 45 17
    endloop
  endfacet
  facet normal -1 0 0
    outer loop
      vertex 54 8 2
      vertex 54 9 17
      vertex 54 9 2
    endloop
  endfacet
  facet normal -1 -0 0
    outer loop
      vertex 54 9 17
      vertex 54 8 2
      vertex 54 8 17
    endloop
  endfacet
  facet normal 0.245486 0.9694 -0
    outer loop
      vertex 11.5045 2.02049 2
      vertex 9.58983 2.50536 17
      vertex 11.5045 2.02049 17
    endloop
  endfacet
  facet normal 0.245486 0.9694 0
    outer loop
      vertex 9.58983 2.50536 17
      vertex 11.5045 2.02049 2
      vertex 9.58983 2.50536 2
    endloop
  endfacet
  facet normal 0.546948 0.837166 -0
    outer loop
      vertex 9.58983 2.50536 2
      vertex 7.93631 3.58566 17
      vertex 9.58983 2.50536 17
    endloop
  endfacet
  facet normal 0.546948 0.837166 0
    outer loop
      vertex 7.93631 3.58566 17
      vertex 9.58983 2.50536 2
      vertex 7.93631 3.58566 2
    endloop
  endfacet
  facet normal -0.986361 0.164594 0
    outer loop
      vertex 53.6749 6.0518 2
      vertex 54 8 17
      vertex 54 8 2
    endloop
  endfacet
  facet normal -0.986361 0.164594 0
    outer loop
      vertex 54 8 17
      vertex 53.6749 6.0518 2
      vertex 53.6749 6.0518 17
    endloop
  endfacet
  facet normal -0.0825792 0.996585 0
    outer loop
      vertex 49.4729 2.1836 2
      vertex 47.5045 2.02049 17
      vertex 49.4729 2.1836 17
    endloop
  endfacet
  facet normal -0.0825792 0.996585 0
    outer loop
      vertex 47.5045 2.02049 17
      vertex 49.4729 2.1836 2
      vertex 47.5045 2.02049 2
    endloop
  endfacet
  facet normal 0 -1 0
    outer loop
      vertex 11.5045 51.9795 2
      vertex 47.5045 51.9795 17
      vertex 11.5045 51.9795 17
    endloop
  endfacet
  facet normal 0 -1 -0
    outer loop
      vertex 47.5045 51.9795 17
      vertex 11.5045 51.9795 2
      vertex 47.5045 51.9795 2
    endloop
  endfacet
  facet normal 0.245486 -0.9694 0
    outer loop
      vertex 9.58983 51.4946 2
      vertex 11.5045 51.9795 17
      vertex 9.58983 51.4946 17
    endloop
  endfacet
  facet normal 0.245486 -0.9694 0
    outer loop
      vertex 11.5045 51.9795 17
      vertex 9.58983 51.4946 2
      vertex 11.5045 51.9795 2
    endloop
  endfacet
  facet normal -0.0825792 -0.996585 0
    outer loop
      vertex 47.5045 51.9795 2
      vertex 49.4729 51.8164 17
      vertex 47.5045 51.9795 17
    endloop
  endfacet
  facet normal -0.0825792 -0.996585 -0
    outer loop
      vertex 49.4729 51.8164 17
      vertex 47.5045 51.9795 2
      vertex 49.4729 51.8164 2
    endloop
  endfacet
  facet normal 0.546948 -0.837167 0
    outer loop
      vertex 7.93631 50.4143 2
      vertex 9.58983 51.4946 17
      vertex 7.93631 50.4143 17
    endloop
  endfacet
  facet normal 0.546948 -0.837167 0
    outer loop
      vertex 9.58983 51.4946 17
      vertex 7.93631 50.4143 2
      vertex 9.58983 51.4946 2
    endloop
  endfacet
  facet normal 0.945817 -0.3247 0
    outer loop
      vertex 6.08183 46.9876 17
      vertex 6.72316 48.8557 2
      vertex 6.72316 48.8557 17
    endloop
  endfacet
  facet normal 0.945817 -0.3247 0
    outer loop
      vertex 6.72316 48.8557 2
      vertex 6.08183 46.9876 17
      vertex 6.08183 46.9876 2
    endloop
  endfacet
  facet normal 0.789141 -0.614212 0
    outer loop
      vertex 6.72316 48.8557 17
      vertex 7.93631 50.4143 2
      vertex 7.93631 50.4143 17
    endloop
  endfacet
  facet normal 0.789141 -0.614212 0
    outer loop
      vertex 7.93631 50.4143 2
      vertex 6.72316 48.8557 17
      vertex 6.72316 48.8557 2
    endloop
  endfacet
  facet normal -0.401696 -0.915773 0
    outer loop
      vertex 49.4729 51.8164 2
      vertex 51.2817 51.023 17
      vertex 49.4729 51.8164 17
    endloop
  endfacet
  facet normal -0.401696 -0.915773 -0
    outer loop
      vertex 51.2817 51.023 17
      vertex 49.4729 51.8164 2
      vertex 51.2817 51.023 2
    endloop
  endfacet
  facet normal 0 1 -0
    outer loop
      vertex 47.5045 2.02049 2
      vertex 11.5045 2.02049 17
      vertex 47.5045 2.02049 17
    endloop
  endfacet
  facet normal 0 1 0
    outer loop
      vertex 11.5045 2.02049 17
      vertex 47.5045 2.02049 2
      vertex 11.5045 2.02049 2
    endloop
  endfacet
  facet normal -0.401695 0.915773 0
    outer loop
      vertex 51.2817 2.977 2
      vertex 49.4729 2.1836 17
      vertex 51.2817 2.977 17
    endloop
  endfacet
  facet normal -0.401695 0.915773 0
    outer loop
      vertex 49.4729 2.1836 17
      vertex 51.2817 2.977 2
      vertex 49.4729 2.1836 2
    endloop
  endfacet
  facet normal -0.879473 -0.475949 0
    outer loop
      vertex 53.6749 47.9482 2
      vertex 52.7348 49.6853 17
      vertex 52.7348 49.6853 2
    endloop
  endfacet
  facet normal -0.879473 -0.475949 0
    outer loop
      vertex 52.7348 49.6853 17
      vertex 53.6749 47.9482 2
      vertex 53.6749 47.9482 17
    endloop
  endfacet
  facet normal -0.986361 -0.164594 0
    outer loop
      vertex 54 46 2
      vertex 53.6749 47.9482 17
      vertex 53.6749 47.9482 2
    endloop
  endfacet
  facet normal -0.986361 -0.164594 0
    outer loop
      vertex 53.6749 47.9482 17
      vertex 54 46 2
      vertex 54 46 17
    endloop
  endfacet
  facet normal -0.677282 -0.735723 0
    outer loop
      vertex 51.2817 51.023 2
      vertex 52.7348 49.6853 17
      vertex 51.2817 51.023 17
    endloop
  endfacet
  facet normal -0.677282 -0.735723 -0
    outer loop
      vertex 52.7348 49.6853 17
      vertex 51.2817 51.023 2
      vertex 52.7348 49.6853 2
    endloop
  endfacet
  facet normal 0.78914 0.614213 0
    outer loop
      vertex 7.93631 3.58566 17
      vertex 6.72316 5.14432 2
      vertex 6.72316 5.14432 17
    endloop
  endfacet
  facet normal 0.78914 0.614213 0
    outer loop
      vertex 6.72316 5.14432 2
      vertex 7.93631 3.58566 17
      vertex 7.93631 3.58566 2
    endloop
  endfacet
  facet normal 0.945817 0.324699 0
    outer loop
      vertex 6.72316 5.14432 17
      vertex 6.08183 7.01243 2
      vertex 6.08183 7.01243 17
    endloop
  endfacet
  facet normal 0.945817 0.324699 0
    outer loop
      vertex 6.08183 7.01243 2
      vertex 6.72316 5.14432 17
      vertex 6.72316 5.14432 2
    endloop
  endfacet
  facet normal -0.879473 0.475949 0
    outer loop
      vertex 52.7348 4.31472 2
      vertex 53.6749 6.0518 17
      vertex 53.6749 6.0518 2
    endloop
  endfacet
  facet normal -0.879473 0.475949 0
    outer loop
      vertex 53.6749 6.0518 17
      vertex 52.7348 4.31472 2
      vertex 52.7348 4.31472 17
    endloop
  endfacet
  facet normal -0.677282 0.735723 0
    outer loop
      vertex 52.7348 4.31472 2
      vertex 51.2817 2.977 17
      vertex 52.7348 4.31472 17
    endloop
  endfacet
  facet normal -0.677282 0.735723 0
    outer loop
      vertex 51.2817 2.977 17
      vertex 52.7348 4.31472 2
      vertex 51.2817 2.977 2
    endloop
  endfacet
  facet normal -1 0 0
    outer loop
      vertex 59 47 0
      vertex 59 45 2
      vertex 59 47 2
    endloop
  endfacet
  facet normal -1 0 0
    outer loop
      vertex 59 45 2
      vertex 59 9 2
      vertex 59 45 17
    endloop
  endfacet
  facet normal -1 0 0
    outer loop
      vertex 59 47 0
      vertex 59 9 2
      vertex 59 45 2
    endloop
  endfacet
  facet normal -1 0 0
    outer loop
      vertex 59 7 0
      vertex 59 9 2
      vertex 59 47 0
    endloop
  endfacet
  facet normal -1 -0 0
    outer loop
      vertex 59 9 2
      vertex 59 7 0
      vertex 59 7 2
    endloop
  endfacet
  facet normal -1 -0 0
    outer loop
      vertex 59 45 17
      vertex 59 9 2
      vertex 59 9 17
    endloop
  endfacet
  facet normal 0.945817 0.324699 0
    outer loop
      vertex 1.72316 4.14432 2
      vertex 1.08183 6.01243 0
      vertex 1.08183 6.01243 2
    endloop
  endfacet
  facet normal 0.945817 0.324699 0
    outer loop
      vertex 1.08183 6.01243 0
      vertex 1.72316 4.14432 2
      vertex 1.72316 4.14432 0
    endloop
  endfacet
  facet normal -0.986361 0.164594 0
    outer loop
      vertex 58.6749 5.0518 0
      vertex 59 7 2
      vertex 59 7 0
    endloop
  endfacet
  facet normal -0.986361 0.164594 0
    outer loop
      vertex 59 7 2
      vertex 58.6749 5.0518 0
      vertex 58.6749 5.0518 2
    endloop
  endfacet
  facet normal 0.546948 -0.837167 0
    outer loop
      vertex 2.93631 51.4143 0
      vertex 4.58983 52.4946 2
      vertex 2.93631 51.4143 2
    endloop
  endfacet
  facet normal 0.546948 -0.837167 0
    outer loop
      vertex 4.58983 52.4946 2
      vertex 2.93631 51.4143 0
      vertex 4.58983 52.4946 0
    endloop
  endfacet
  facet normal 1 -0 0
    outer loop
      vertex 1.08183 6.01243 2
      vertex 1.08183 9 0
      vertex 1.08183 9 2
    endloop
  endfacet
  facet normal 1 0 0
    outer loop
      vertex 1.08183 9 0
      vertex 1.08183 6.01243 2
      vertex 1.08183 6.01243 0
    endloop
  endfacet
  facet normal 1 -0 0
    outer loop
      vertex 1.08183 45 2
      vertex 1.08183 47.9876 0
      vertex 1.08183 47.9876 2
    endloop
  endfacet
  facet normal 1 0 0
    outer loop
      vertex 1.08183 47.9876 0
      vertex 1.08183 45 2
      vertex 1.08183 45 0
    endloop
  endfacet
  facet normal -0 0 -1
    outer loop
      vertex 59 7 2
      vertex 53.6749 6.0518 2
      vertex 54 8 2
    endloop
  endfacet
  facet normal 0 0 -1
    outer loop
      vertex 56.2817 1.977 2
      vertex 52.7348 4.31472 2
      vertex 53.6749 6.0518 2
    endloop
  endfacet
  facet normal 0 0 -1
    outer loop
      vertex 52.5045 1.02049 2
      vertex 52.7348 4.31472 2
      vertex 54.4729 1.1836 2
    endloop
  endfacet
  facet normal 0 0 -1
    outer loop
      vertex 52.5045 1.02049 2
      vertex 51.2817 2.977 2
      vertex 52.7348 4.31472 2
    endloop
  endfacet
  facet normal 0 0 -1
    outer loop
      vertex 52.5045 1.02049 2
      vertex 49.4729 2.1836 2
      vertex 51.2817 2.977 2
    endloop
  endfacet
  facet normal 0 0 -1
    outer loop
      vertex 52.5045 1.02049 2
      vertex 47.5045 2.02049 2
      vertex 49.4729 2.1836 2
    endloop
  endfacet
  facet normal 0 0 -1
    outer loop
      vertex 52.5045 1.02049 2
      vertex 11.5045 2.02049 2
      vertex 47.5045 2.02049 2
    endloop
  endfacet
  facet normal 0 0 -1
    outer loop
      vertex 6.50452 1.02049 2
      vertex 11.5045 2.02049 2
      vertex 52.5045 1.02049 2
    endloop
  endfacet
  facet normal 0 0 -1
    outer loop
      vertex 6.50452 1.02049 2
      vertex 9.58983 2.50536 2
      vertex 11.5045 2.02049 2
    endloop
  endfacet
  facet normal 0 0 -1
    outer loop
      vertex 6.50452 1.02049 2
      vertex 7.93631 3.58566 2
      vertex 9.58983 2.50536 2
    endloop
  endfacet
  facet normal 0 0 -1
    outer loop
      vertex 4.58983 1.50536 2
      vertex 7.93631 3.58566 2
      vertex 6.50452 1.02049 2
    endloop
  endfacet
  facet normal -0 0 -1
    outer loop
      vertex 7.93631 3.58566 2
      vertex 4.58983 1.50536 2
      vertex 6.72316 5.14432 2
    endloop
  endfacet
  facet normal 0 0 -1
    outer loop
      vertex 2.93631 2.58566 2
      vertex 6.72316 5.14432 2
      vertex 4.58983 1.50536 2
    endloop
  endfacet
  facet normal 0 0 -1
    outer loop
      vertex 1.72316 4.14432 2
      vertex 6.72316 5.14432 2
      vertex 2.93631 2.58566 2
    endloop
  endfacet
  facet normal -0 0 -1
    outer loop
      vertex 6.72316 5.14432 2
      vertex 1.72316 4.14432 2
      vertex 6.08183 7.01243 2
    endloop
  endfacet
  facet normal 0 0 -1
    outer loop
      vertex 1.08183 6.01243 2
      vertex 6.08183 7.01243 2
      vertex 1.72316 4.14432 2
    endloop
  endfacet
  facet normal 0 0 -1
    outer loop
      vertex 1.08183 9 2
      vertex 6.08183 7.01243 2
      vertex 1.08183 6.01243 2
    endloop
  endfacet
  facet normal 0 0 -1
    outer loop
      vertex 6.08183 7.01243 2
      vertex 1.08183 9 2
      vertex 6.08183 9 2
    endloop
  endfacet
  facet normal 0 0 -1
    outer loop
      vertex 53.6749 6.0518 2
      vertex 59 7 2
      vertex 58.6749 5.0518 2
    endloop
  endfacet
  facet normal 0 0 -1
    outer loop
      vertex 53.6749 6.0518 2
      vertex 58.6749 5.0518 2
      vertex 57.7348 3.31472 2
    endloop
  endfacet
  facet normal 0 0 -1
    outer loop
      vertex 53.6749 6.0518 2
      vertex 57.7348 3.31472 2
      vertex 56.2817 1.977 2
    endloop
  endfacet
  facet normal 0 0 -1
    outer loop
      vertex 52.7348 4.31472 2
      vertex 56.2817 1.977 2
      vertex 54.4729 1.1836 2
    endloop
  endfacet
  facet normal 0 0 -1
    outer loop
      vertex 59 7 2
      vertex 54 8 2
      vertex 59 9 2
    endloop
  endfacet
  facet normal -0 0 -1
    outer loop
      vertex 59 9 2
      vertex 54 8 2
      vertex 54 9 2
    endloop
  endfacet
  facet normal 0 0 -1
    outer loop
      vertex 1.08183 45 2
      vertex 6.08183 46.9876 2
      vertex 6.08183 45 2
    endloop
  endfacet
  facet normal 0 0 -1
    outer loop
      vertex 6.08183 46.9876 2
      vertex 2.93631 51.4143 2
      vertex 4.58983 52.4946 2
    endloop
  endfacet
  facet normal 0 0 -1
    outer loop
      vertex 6.08183 46.9876 2
      vertex 1.72316 49.8557 2
      vertex 2.93631 51.4143 2
    endloop
  endfacet
  facet normal -0 0 -1
    outer loop
      vertex 6.08183 46.9876 2
      vertex 1.08183 45 2
      vertex 1.08183 47.9876 2
    endloop
  endfacet
  facet normal 0 0 -1
    outer loop
      vertex 6.08183 46.9876 2
      vertex 1.08183 47.9876 2
      vertex 1.72316 49.8557 2
    endloop
  endfacet
  facet normal 0 0 -1
    outer loop
      vertex 54 46 2
      vertex 59 47 2
      vertex 59 45 2
    endloop
  endfacet
  facet normal 0 0 -1
    outer loop
      vertex 53.6749 47.9482 2
      vertex 59 47 2
      vertex 54 46 2
    endloop
  endfacet
  facet normal -0 0 -1
    outer loop
      vertex 58.6749 48.9482 2
      vertex 53.6749 47.9482 2
      vertex 57.7348 50.6853 2
    endloop
  endfacet
  facet normal -0 0 -1
    outer loop
      vertex 57.7348 50.6853 2
      vertex 53.6749 47.9482 2
      vertex 56.2817 52.023 2
    endloop
  endfacet
  facet normal 0 0 -1
    outer loop
      vertex 54 46 2
      vertex 59 45 2
      vertex 54 45 2
    endloop
  endfacet
  facet normal 0 0 -1
    outer loop
      vertex 59 47 2
      vertex 53.6749 47.9482 2
      vertex 58.6749 48.9482 2
    endloop
  endfacet
  facet normal 0 0 -1
    outer loop
      vertex 52.7348 49.6853 2
      vertex 56.2817 52.023 2
      vertex 53.6749 47.9482 2
    endloop
  endfacet
  facet normal -0 0 -1
    outer loop
      vertex 56.2817 52.023 2
      vertex 52.7348 49.6853 2
      vertex 54.4729 52.8164 2
    endloop
  endfacet
  facet normal 0 0 -1
    outer loop
      vertex 52.7348 49.6853 2
      vertex 52.5045 52.9795 2
      vertex 54.4729 52.8164 2
    endloop
  endfacet
  facet normal 0 0 -1
    outer loop
      vertex 51.2817 51.023 2
      vertex 52.5045 52.9795 2
      vertex 52.7348 49.6853 2
    endloop
  endfacet
  facet normal 0 0 -1
    outer loop
      vertex 49.4729 51.8164 2
      vertex 52.5045 52.9795 2
      vertex 51.2817 51.023 2
    endloop
  endfacet
  facet normal 0 0 -1
    outer loop
      vertex 47.5045 51.9795 2
      vertex 52.5045 52.9795 2
      vertex 49.4729 51.8164 2
    endloop
  endfacet
  facet normal 0 0 -1
    outer loop
      vertex 11.5045 51.9795 2
      vertex 52.5045 52.9795 2
      vertex 47.5045 51.9795 2
    endloop
  endfacet
  facet normal 0 0 -1
    outer loop
      vertex 11.5045 51.9795 2
      vertex 6.50452 52.9795 2
      vertex 52.5045 52.9795 2
    endloop
  endfacet
  facet normal 0 0 -1
    outer loop
      vertex 9.58983 51.4946 2
      vertex 6.50452 52.9795 2
      vertex 11.5045 51.9795 2
    endloop
  endfacet
  facet normal 0 0 -1
    outer loop
      vertex 7.93631 50.4143 2
      vertex 6.50452 52.9795 2
      vertex 9.58983 51.4946 2
    endloop
  endfacet
  facet normal 0 0 -1
    outer loop
      vertex 4.58983 52.4946 2
      vertex 7.93631 50.4143 2
      vertex 6.72316 48.8557 2
    endloop
  endfacet
  facet normal 0 0 -1
    outer loop
      vertex 4.58983 52.4946 2
      vertex 6.72316 48.8557 2
      vertex 6.08183 46.9876 2
    endloop
  endfacet
  facet normal 0 0 -1
    outer loop
      vertex 7.93631 50.4143 2
      vertex 4.58983 52.4946 2
      vertex 6.50452 52.9795 2
    endloop
  endfacet
  facet normal 0 1 -0
    outer loop
      vertex 52.5045 1.02049 0
      vertex 6.50452 1.02049 2
      vertex 52.5045 1.02049 2
    endloop
  endfacet
  facet normal 0 1 0
    outer loop
      vertex 6.50452 1.02049 2
      vertex 52.5045 1.02049 0
      vertex 6.50452 1.02049 0
    endloop
  endfacet
  facet normal -0.401695 0.915773 0
    outer loop
      vertex 56.2817 1.977 0
      vertex 54.4729 1.1836 2
      vertex 56.2817 1.977 2
    endloop
  endfacet
  facet normal -0.401695 0.915773 0
    outer loop
      vertex 54.4729 1.1836 2
      vertex 56.2817 1.977 0
      vertex 54.4729 1.1836 0
    endloop
  endfacet
  facet normal -0.0825792 0.996585 0
    outer loop
      vertex 54.4729 1.1836 0
      vertex 52.5045 1.02049 2
      vertex 54.4729 1.1836 2
    endloop
  endfacet
  facet normal -0.0825792 0.996585 0
    outer loop
      vertex 52.5045 1.02049 2
      vertex 54.4729 1.1836 0
      vertex 52.5045 1.02049 0
    endloop
  endfacet
  facet normal 0 -1 0
    outer loop
      vertex 6.50452 52.9795 0
      vertex 52.5045 52.9795 2
      vertex 6.50452 52.9795 2
    endloop
  endfacet
  facet normal 0 -1 -0
    outer loop
      vertex 52.5045 52.9795 2
      vertex 6.50452 52.9795 0
      vertex 52.5045 52.9795 0
    endloop
  endfacet
  facet normal 0.245486 -0.9694 0
    outer loop
      vertex 4.58983 52.4946 0
      vertex 6.50452 52.9795 2
      vertex 4.58983 52.4946 2
    endloop
  endfacet
  facet normal 0.245486 -0.9694 0
    outer loop
      vertex 6.50452 52.9795 2
      vertex 4.58983 52.4946 0
      vertex 6.50452 52.9795 0
    endloop
  endfacet
  facet normal -0.879473 0.475949 0
    outer loop
      vertex 57.7348 3.31472 0
      vertex 58.6749 5.0518 2
      vertex 58.6749 5.0518 0
    endloop
  endfacet
  facet normal -0.879473 0.475949 0
    outer loop
      vertex 58.6749 5.0518 2
      vertex 57.7348 3.31472 0
      vertex 57.7348 3.31472 2
    endloop
  endfacet
  facet normal -0.677282 0.735723 0
    outer loop
      vertex 57.7348 3.31472 0
      vertex 56.2817 1.977 2
      vertex 57.7348 3.31472 2
    endloop
  endfacet
  facet normal -0.677282 0.735723 0
    outer loop
      vertex 56.2817 1.977 2
      vertex 57.7348 3.31472 0
      vertex 56.2817 1.977 0
    endloop
  endfacet
  facet normal 0.546948 0.837166 -0
    outer loop
      vertex 4.58983 1.50536 0
      vertex 2.93631 2.58566 2
      vertex 4.58983 1.50536 2
    endloop
  endfacet
  facet normal 0.546948 0.837166 0
    outer loop
      vertex 2.93631 2.58566 2
      vertex 4.58983 1.50536 0
      vertex 2.93631 2.58566 0
    endloop
  endfacet
  facet normal 0.245486 0.9694 -0
    outer loop
      vertex 6.50452 1.02049 0
      vertex 4.58983 1.50536 2
      vertex 6.50452 1.02049 2
    endloop
  endfacet
  facet normal 0.245486 0.9694 0
    outer loop
      vertex 4.58983 1.50536 2
      vertex 6.50452 1.02049 0
      vertex 4.58983 1.50536 0
    endloop
  endfacet
  facet normal 0.945817 -0.3247 0
    outer loop
      vertex 1.08183 47.9876 2
      vertex 1.72316 49.8557 0
      vertex 1.72316 49.8557 2
    endloop
  endfacet
  facet normal 0.945817 -0.3247 0
    outer loop
      vertex 1.72316 49.8557 0
      vertex 1.08183 47.9876 2
      vertex 1.08183 47.9876 0
    endloop
  endfacet
  facet normal 0.789141 -0.614212 0
    outer loop
      vertex 1.72316 49.8557 2
      vertex 2.93631 51.4143 0
      vertex 2.93631 51.4143 2
    endloop
  endfacet
  facet normal 0.789141 -0.614212 0
    outer loop
      vertex 2.93631 51.4143 0
      vertex 1.72316 49.8557 2
      vertex 1.72316 49.8557 0
    endloop
  endfacet
  facet normal -0.986361 -0.164594 0
    outer loop
      vertex 59 47 0
      vertex 58.6749 48.9482 2
      vertex 58.6749 48.9482 0
    endloop
  endfacet
  facet normal -0.986361 -0.164594 0
    outer loop
      vertex 58.6749 48.9482 2
      vertex 59 47 0
      vertex 59 47 2
    endloop
  endfacet
  facet normal -0.677282 -0.735723 0
    outer loop
      vertex 56.2817 52.023 0
      vertex 57.7348 50.6853 2
      vertex 56.2817 52.023 2
    endloop
  endfacet
  facet normal -0.677282 -0.735723 -0
    outer loop
      vertex 57.7348 50.6853 2
      vertex 56.2817 52.023 0
      vertex 57.7348 50.6853 0
    endloop
  endfacet
  facet normal -0.0825792 -0.996585 0
    outer loop
      vertex 52.5045 52.9795 0
      vertex 54.4729 52.8164 2
      vertex 52.5045 52.9795 2
    endloop
  endfacet
  facet normal -0.0825792 -0.996585 -0
    outer loop
      vertex 54.4729 52.8164 2
      vertex 52.5045 52.9795 0
      vertex 54.4729 52.8164 0
    endloop
  endfacet
  facet normal -0.401696 -0.915773 0
    outer loop
      vertex 54.4729 52.8164 0
      vertex 56.2817 52.023 2
      vertex 54.4729 52.8164 2
    endloop
  endfacet
  facet normal -0.401696 -0.915773 -0
    outer loop
      vertex 56.2817 52.023 2
      vertex 54.4729 52.8164 0
      vertex 56.2817 52.023 0
    endloop
  endfacet
  facet normal 0.78914 0.614213 0
    outer loop
      vertex 2.93631 2.58566 2
      vertex 1.72316 4.14432 0
      vertex 1.72316 4.14432 2
    endloop
  endfacet
  facet normal 0.78914 0.614213 0
    outer loop
      vertex 1.72316 4.14432 0
      vertex 2.93631 2.58566 2
      vertex 2.93631 2.58566 0
    endloop
  endfacet
  facet normal -0.879473 -0.475949 0
    outer loop
      vertex 58.6749 48.9482 0
      vertex 57.7348 50.6853 2
      vertex 57.7348 50.6853 0
    endloop
  endfacet
  facet normal -0.879473 -0.475949 0
    outer loop
      vertex 57.7348 50.6853 2
      vertex 58.6749 48.9482 0
      vertex 58.6749 48.9482 2
    endloop
  endfacet
  facet normal 1 -0 0
    outer loop
      vertex 1 9 17
      vertex 1 45 0
      vertex 1 45 17
    endloop
  endfacet
  facet normal 1 0 0
    outer loop
      vertex 1 45 0
      vertex 1 9 17
      vertex 1 9 0
    endloop
  endfacet
  facet normal 0 1 -0
    outer loop
      vertex 6.08183 9 2
      vertex 1 9 17
      vertex 6.08183 9 17
    endloop
  endfacet
  facet normal 0 1 -0
    outer loop
      vertex 1.08183 9 2
      vertex 1 9 17
      vertex 6.08183 9 2
    endloop
  endfacet
  facet normal 0 1 0
    outer loop
      vertex 1 9 0
      vertex 1.08183 9 2
      vertex 1.08183 9 0
    endloop
  endfacet
  facet normal 0 1 0
    outer loop
      vertex 1.08183 9 2
      vertex 1 9 0
      vertex 1 9 17
    endloop
  endfacet
  facet normal 0 1 -0
    outer loop
      vertex 59 9 2
      vertex 54 9 17
      vertex 59 9 17
    endloop
  endfacet
  facet normal 0 1 0
    outer loop
      vertex 54 9 17
      vertex 59 9 2
      vertex 54 9 2
    endloop
  endfacet
  facet normal 0 -1 0
    outer loop
      vertex 54 45 2
      vertex 59 45 17
      vertex 54 45 17
    endloop
  endfacet
  facet normal 0 -1 -0
    outer loop
      vertex 59 45 17
      vertex 54 45 2
      vertex 59 45 2
    endloop
  endfacet
  facet normal 0 -1 0
    outer loop
      vertex 1 45 17
      vertex 1.08183 45 2
      vertex 6.08183 45 17
    endloop
  endfacet
  facet normal 0 -1 0
    outer loop
      vertex 1 45 0
      vertex 1.08183 45 2
      vertex 1 45 17
    endloop
  endfacet
  facet normal 0 -1 -0
    outer loop
      vertex 1.08183 45 2
      vertex 1 45 0
      vertex 1.08183 45 0
    endloop
  endfacet
  facet normal 0 -1 -0
    outer loop
      vertex 6.08183 45 17
      vertex 1.08183 45 2
      vertex 6.08183 45 2
    endloop
  endfacet
endsolid OpenSCAD_Model
